%TF.GenerationSoftware,KiCad,Pcbnew,8.0.6*%
%TF.CreationDate,2025-01-21T08:23:12-05:00*%
%TF.ProjectId,vga_test,7667615f-7465-4737-942e-6b696361645f,rev?*%
%TF.SameCoordinates,Original*%
%TF.FileFunction,Copper,L2,Bot*%
%TF.FilePolarity,Positive*%
%FSLAX46Y46*%
G04 Gerber Fmt 4.6, Leading zero omitted, Abs format (unit mm)*
G04 Created by KiCad (PCBNEW 8.0.6) date 2025-01-21 08:23:12*
%MOMM*%
%LPD*%
G01*
G04 APERTURE LIST*
%TA.AperFunction,ComponentPad*%
%ADD10R,1.700000X1.700000*%
%TD*%
%TA.AperFunction,ComponentPad*%
%ADD11O,1.700000X1.700000*%
%TD*%
%TA.AperFunction,ComponentPad*%
%ADD12R,1.530000X1.530000*%
%TD*%
%TA.AperFunction,ComponentPad*%
%ADD13C,1.530000*%
%TD*%
%TA.AperFunction,ComponentPad*%
%ADD14C,4.000000*%
%TD*%
%TA.AperFunction,ComponentPad*%
%ADD15C,1.700000*%
%TD*%
%TA.AperFunction,SMDPad,CuDef*%
%ADD16R,1.000000X1.000000*%
%TD*%
%TA.AperFunction,ViaPad*%
%ADD17C,0.600000*%
%TD*%
%TA.AperFunction,Conductor*%
%ADD18C,0.250000*%
%TD*%
%TA.AperFunction,Conductor*%
%ADD19C,0.200000*%
%TD*%
%TA.AperFunction,Conductor*%
%ADD20C,0.500000*%
%TD*%
G04 APERTURE END LIST*
D10*
%TO.P,J12,1,Pin_1*%
%TO.N,/IO08*%
X107220000Y-96500000D03*
D11*
%TO.P,J12,2,Pin_2*%
%TO.N,/IO09*%
X109760000Y-96500000D03*
%TO.P,J12,3,Pin_3*%
%TO.N,/IO10*%
X112300000Y-96500000D03*
%TO.P,J12,4,Pin_4*%
%TO.N,/IO11*%
X114840000Y-96500000D03*
%TO.P,J12,5,Pin_5*%
%TO.N,/IO12*%
X117380000Y-96500000D03*
%TO.P,J12,6,Pin_6*%
%TO.N,/IO13*%
X119920000Y-96500000D03*
%TO.P,J12,7,Pin_7*%
%TO.N,/IO14*%
X122460000Y-96500000D03*
%TO.P,J12,8,Pin_8*%
%TO.N,/IO15*%
X125000000Y-96500000D03*
%TD*%
D10*
%TO.P,J4,1,Pin_1*%
%TO.N,/3v3*%
X73975000Y-96500000D03*
D11*
%TO.P,J4,2,Pin_2*%
X76515000Y-96500000D03*
%TO.P,J4,3,Pin_3*%
X79055000Y-96500000D03*
%TD*%
D10*
%TO.P,J3,1,Pin_1*%
%TO.N,/5v*%
X131460000Y-94500000D03*
D11*
%TO.P,J3,2,Pin_2*%
X134000000Y-94500000D03*
%TO.P,J3,3,Pin_3*%
X131460000Y-97040000D03*
%TO.P,J3,4,Pin_4*%
X134000000Y-97040000D03*
%TD*%
D12*
%TO.P,U1,J1_1,3V3*%
%TO.N,/3v3*%
X74470000Y-87660000D03*
D13*
%TO.P,U1,J1_2,3V3*%
X77010000Y-87660000D03*
%TO.P,U1,J1_3,RST*%
%TO.N,/RST*%
X79550000Y-87660000D03*
%TO.P,U1,J1_4,GPIO4*%
%TO.N,/IO04*%
X82090000Y-87660000D03*
%TO.P,U1,J1_5,GPIO5*%
%TO.N,/IO05*%
X84630000Y-87660000D03*
%TO.P,U1,J1_6,GPIO6*%
%TO.N,/IO06*%
X87170000Y-87660000D03*
%TO.P,U1,J1_7,GPIO7*%
%TO.N,/IO07*%
X89710000Y-87660000D03*
%TO.P,U1,J1_8,GPIO15*%
%TO.N,/IO15*%
X92250000Y-87660000D03*
%TO.P,U1,J1_9,GPIO16*%
%TO.N,/IO16*%
X94790000Y-87660000D03*
%TO.P,U1,J1_10,GPIO17*%
%TO.N,/IO17*%
X97330000Y-87660000D03*
%TO.P,U1,J1_11,GPIO18*%
%TO.N,/IO18*%
X99870000Y-87660000D03*
%TO.P,U1,J1_12,GPIO8*%
%TO.N,/IO08*%
X102410000Y-87660000D03*
%TO.P,U1,J1_13,GPIO3*%
%TO.N,/IO03*%
X104950000Y-87660000D03*
%TO.P,U1,J1_14,GPIO46*%
%TO.N,/IO46*%
X107490000Y-87660000D03*
%TO.P,U1,J1_15,GPIO9*%
%TO.N,/IO09*%
X110030000Y-87660000D03*
%TO.P,U1,J1_16,GPIO10*%
%TO.N,/IO10*%
X112570000Y-87660000D03*
%TO.P,U1,J1_17,GPIO11*%
%TO.N,/IO11*%
X115110000Y-87660000D03*
%TO.P,U1,J1_18,GPIO12*%
%TO.N,/IO12*%
X117650000Y-87660000D03*
%TO.P,U1,J1_19,GPIO13*%
%TO.N,/IO13*%
X120190000Y-87660000D03*
%TO.P,U1,J1_20,GPIO14*%
%TO.N,/IO14*%
X122730000Y-87660000D03*
%TO.P,U1,J1_21,5V0*%
%TO.N,/5v*%
X125270000Y-87660000D03*
%TO.P,U1,J1_22,GND*%
%TO.N,GND*%
X127810000Y-87660000D03*
%TO.P,U1,J3_1,GND*%
X74470000Y-62200000D03*
%TO.P,U1,J3_2,U0TXD/GPIO43*%
%TO.N,/IO43*%
X77010000Y-62200000D03*
%TO.P,U1,J3_3,U0RXD/GPIO44*%
%TO.N,/IO44*%
X79550000Y-62200000D03*
%TO.P,U1,J3_4,GPIO1*%
%TO.N,HSYNC*%
X82090000Y-62200000D03*
%TO.P,U1,J3_5,GPIO2*%
%TO.N,VSYNK*%
X84630000Y-62200000D03*
%TO.P,U1,J3_6,MTMS/GPIO42*%
%TO.N,/IO42*%
X87170000Y-62200000D03*
%TO.P,U1,J3_7,MTDI/GPIO41*%
%TO.N,/IO41*%
X89710000Y-62200000D03*
%TO.P,U1,J3_8,MTDO/GPIO40*%
%TO.N,/IO40*%
X92250000Y-62200000D03*
%TO.P,U1,J3_9,MTCK/GPIO39*%
%TO.N,/IO39*%
X94790000Y-62200000D03*
%TO.P,U1,J3_10,GPIO38*%
%TO.N,/IO38*%
X97330000Y-62200000D03*
%TO.P,U1,J3_11,GPIO37*%
%TO.N,/IO37*%
X99870000Y-62200000D03*
%TO.P,U1,J3_12,GPIO36*%
%TO.N,/IO36*%
X102410000Y-62200000D03*
%TO.P,U1,J3_13,GPIO35*%
%TO.N,/IO35*%
X104950000Y-62200000D03*
%TO.P,U1,J3_14,GPIO0*%
%TO.N,/IO00*%
X107490000Y-62200000D03*
%TO.P,U1,J3_15,GPIO45*%
%TO.N,/IO45*%
X110030000Y-62200000D03*
%TO.P,U1,J3_16,GPIO48*%
%TO.N,/IO48*%
X112570000Y-62200000D03*
%TO.P,U1,J3_17,GPIO47*%
%TO.N,/IO47*%
X115110000Y-62200000D03*
%TO.P,U1,J3_18,GPIO21*%
%TO.N,/IO21*%
X117650000Y-62200000D03*
%TO.P,U1,J3_19,USB_D+/GPIO20*%
%TO.N,/IO19*%
X120190000Y-62200000D03*
%TO.P,U1,J3_20,USB_D-/GPIO19*%
%TO.N,/IO20*%
X122730000Y-62200000D03*
%TO.P,U1,J3_21,GND*%
%TO.N,GND*%
X125270000Y-62200000D03*
%TO.P,U1,J3_22,GND*%
X127810000Y-62200000D03*
%TD*%
D10*
%TO.P,J11,1,Pin_1*%
%TO.N,GND*%
X63960000Y-94460000D03*
D11*
%TO.P,J11,2,Pin_2*%
X66500000Y-94460000D03*
%TO.P,J11,3,Pin_3*%
X63960000Y-97000000D03*
%TO.P,J11,4,Pin_4*%
X66500000Y-97000000D03*
%TD*%
D14*
%TO.P,J1,0*%
%TO.N,GND*%
X56430000Y-86990000D03*
X56430000Y-62000000D03*
D10*
%TO.P,J1,1*%
%TO.N,RED*%
X58970000Y-78825000D03*
D15*
%TO.P,J1,2*%
%TO.N,GREEN*%
X58970000Y-76535000D03*
%TO.P,J1,3*%
%TO.N,BLUE*%
X58970000Y-74245000D03*
%TO.P,J1,4*%
%TO.N,unconnected-(J1-Pad4)*%
X58970000Y-71955000D03*
%TO.P,J1,5*%
%TO.N,GND*%
X58970000Y-69665000D03*
%TO.P,J1,6*%
X56430000Y-79970000D03*
%TO.P,J1,7*%
X56430000Y-77680000D03*
%TO.P,J1,8*%
X56430000Y-75390000D03*
%TO.P,J1,9*%
%TO.N,unconnected-(J1-Pad9)*%
X56430000Y-73100000D03*
%TO.P,J1,10*%
%TO.N,GND*%
X56430000Y-70810000D03*
%TO.P,J1,11*%
%TO.N,unconnected-(J1-Pad11)*%
X53890000Y-78825000D03*
%TO.P,J1,12*%
%TO.N,unconnected-(J1-Pad12)*%
X53890000Y-76535000D03*
%TO.P,J1,13*%
%TO.N,Net-(J1-Pad13)*%
X53890000Y-74245000D03*
%TO.P,J1,14*%
%TO.N,Net-(J1-Pad14)*%
X53890000Y-71955000D03*
%TO.P,J1,15*%
%TO.N,unconnected-(J1-Pad15)*%
X53890000Y-69665000D03*
%TD*%
D10*
%TO.P,J2,1,Pin_1*%
%TO.N,GND*%
X131920000Y-57540000D03*
D11*
%TO.P,J2,2,Pin_2*%
X131920000Y-55000000D03*
%TO.P,J2,3,Pin_3*%
X134460000Y-57540000D03*
%TO.P,J2,4,Pin_4*%
X134460000Y-55000000D03*
%TO.P,J2,5,Pin_5*%
X137000000Y-57540000D03*
%TO.P,J2,6,Pin_6*%
X137000000Y-55000000D03*
%TD*%
D10*
%TO.P,J9,1,Pin_1*%
%TO.N,/IO20*%
X125500000Y-55500000D03*
D11*
%TO.P,J9,2,Pin_2*%
%TO.N,/IO19*%
X122960000Y-55500000D03*
%TD*%
D10*
%TO.P,J8,1,Pin_1*%
%TO.N,/IO43*%
X76960000Y-55500000D03*
D11*
%TO.P,J8,2,Pin_2*%
%TO.N,/IO44*%
X79500000Y-55500000D03*
%TD*%
D10*
%TO.P,J7,1,Pin_1*%
%TO.N,/IO39*%
X94080000Y-55500000D03*
D11*
%TO.P,J7,2,Pin_2*%
%TO.N,/IO40*%
X91540000Y-55500000D03*
%TO.P,J7,3,Pin_3*%
%TO.N,/IO41*%
X89000000Y-55500000D03*
%TO.P,J7,4,Pin_4*%
%TO.N,/IO42*%
X86460000Y-55500000D03*
%TD*%
D10*
%TO.P,J5,1,Pin_1*%
%TO.N,/IO35*%
X105540000Y-55500000D03*
D11*
%TO.P,J5,2,Pin_2*%
%TO.N,/IO36*%
X103000000Y-55500000D03*
%TO.P,J5,3,Pin_3*%
%TO.N,/IO37*%
X100460000Y-55500000D03*
%TO.P,J5,4,Pin_4*%
%TO.N,/IO38*%
X97920000Y-55500000D03*
%TD*%
D10*
%TO.P,J10,1,Pin_1*%
%TO.N,/IO04*%
X83380000Y-96500000D03*
D11*
%TO.P,J10,2,Pin_2*%
%TO.N,/IO05*%
X85920000Y-96500000D03*
%TO.P,J10,3,Pin_3*%
%TO.N,/IO06*%
X88460000Y-96500000D03*
%TO.P,J10,4,Pin_4*%
%TO.N,/IO07*%
X91000000Y-96500000D03*
%TD*%
D10*
%TO.P,J6,1,Pin_1*%
%TO.N,/IO45*%
X110960000Y-55500000D03*
D11*
%TO.P,J6,2,Pin_2*%
%TO.N,/IO46*%
X113500000Y-55500000D03*
%TO.P,J6,3,Pin_3*%
%TO.N,/IO47*%
X116040000Y-55500000D03*
%TO.P,J6,4,Pin_4*%
%TO.N,/IO48*%
X118580000Y-55500000D03*
%TD*%
D16*
%TO.P,TP1,1,1*%
%TO.N,/RST*%
X79500000Y-84500000D03*
%TD*%
%TO.P,TP3,1,1*%
%TO.N,/IO03*%
X105000000Y-84500000D03*
%TD*%
%TO.P,TP2,1,1*%
%TO.N,/IO00*%
X107510000Y-65010000D03*
%TD*%
D17*
%TO.N,RED*%
X90500000Y-93500000D03*
X104000000Y-93500000D03*
%TD*%
D18*
%TO.N,/IO15*%
X92250000Y-87660000D02*
X93340000Y-86570000D01*
X123181493Y-86570000D02*
X124180000Y-87568507D01*
X93340000Y-86570000D02*
X102861493Y-86570000D01*
X102861493Y-86570000D02*
X103500000Y-87208507D01*
X109578507Y-86570000D02*
X123181493Y-86570000D01*
X103500000Y-87208507D02*
X103500000Y-88111493D01*
X103500000Y-88111493D02*
X104138507Y-88750000D01*
X108580000Y-87568507D02*
X109578507Y-86570000D01*
X124180000Y-87568507D02*
X124180000Y-95680000D01*
X104138507Y-88750000D02*
X107941493Y-88750000D01*
X108580000Y-88111493D02*
X108580000Y-87568507D01*
X107941493Y-88750000D02*
X108580000Y-88111493D01*
X124180000Y-95680000D02*
X125000000Y-96500000D01*
%TO.N,/IO08*%
X102410000Y-87660000D02*
X103500000Y-88750000D01*
X103500000Y-90000000D02*
X108000000Y-90000000D01*
X103500000Y-88750000D02*
X103500000Y-90000000D01*
X108000000Y-90000000D02*
X108000000Y-91000000D01*
X107760000Y-91240000D02*
X107760000Y-96500000D01*
X108000000Y-91000000D02*
X107760000Y-91240000D01*
%TO.N,/IO14*%
X122730000Y-87660000D02*
X122730000Y-96330000D01*
D19*
X122730000Y-96330000D02*
X122875000Y-96475000D01*
D18*
%TO.N,/IO13*%
X120190000Y-87660000D02*
X120190000Y-96330000D01*
D19*
X120190000Y-96330000D02*
X120335000Y-96475000D01*
D18*
%TO.N,/IO00*%
X107490000Y-62200000D02*
X107490000Y-64990000D01*
X107490000Y-64990000D02*
X107510000Y-65010000D01*
%TO.N,RED*%
X104000000Y-93500000D02*
X104000000Y-92500000D01*
X104000000Y-92500000D02*
X90500000Y-92500000D01*
X90500000Y-92500000D02*
X91000000Y-93000000D01*
X90500000Y-93500000D02*
X91000000Y-93000000D01*
%TO.N,/IO04*%
X82090000Y-87660000D02*
X82090000Y-95210000D01*
X82090000Y-95210000D02*
X83380000Y-96500000D01*
%TO.N,/IO05*%
X84630000Y-87660000D02*
X84630000Y-95210000D01*
X84630000Y-95210000D02*
X85920000Y-96500000D01*
%TO.N,/IO06*%
X87170000Y-87660000D02*
X87170000Y-95210000D01*
X87170000Y-95210000D02*
X88460000Y-96500000D01*
%TO.N,/IO07*%
X89710000Y-87660000D02*
X89710000Y-95210000D01*
X89710000Y-95210000D02*
X91000000Y-96500000D01*
%TO.N,/IO09*%
X110030000Y-96150000D02*
X110380000Y-96500000D01*
X110030000Y-87660000D02*
X110030000Y-96150000D01*
%TO.N,/IO10*%
X112570000Y-87660000D02*
X112570000Y-96150000D01*
X112570000Y-96150000D02*
X112920000Y-96500000D01*
%TO.N,/IO11*%
X115110000Y-87660000D02*
X115110000Y-96150000D01*
X115110000Y-96150000D02*
X115460000Y-96500000D01*
%TO.N,/IO12*%
X117650000Y-87660000D02*
X117650000Y-96150000D01*
X117650000Y-96150000D02*
X118000000Y-96500000D01*
%TO.N,/RST*%
X79500000Y-87610000D02*
X79550000Y-87660000D01*
X79500000Y-84500000D02*
X79500000Y-87610000D01*
%TO.N,/IO00*%
X107500000Y-65000000D02*
X107510000Y-65010000D01*
%TO.N,/IO03*%
X104950000Y-84550000D02*
X105000000Y-84500000D01*
X104950000Y-87660000D02*
X104950000Y-84550000D01*
D20*
%TO.N,/3v3*%
X74470000Y-96945000D02*
X74500000Y-96975000D01*
D18*
X74500000Y-96975000D02*
X74475000Y-97000000D01*
D20*
X74475000Y-96500000D02*
X79555000Y-96500000D01*
X74470000Y-87430000D02*
X74470000Y-96945000D01*
D18*
%TO.N,/IO45*%
X110960000Y-55500000D02*
X110960000Y-61000000D01*
X110960000Y-61000000D02*
X110030000Y-61930000D01*
%TO.N,/IO46*%
X111510000Y-57490000D02*
X113500000Y-55500000D01*
X111120000Y-62000000D02*
X111510000Y-61610000D01*
X111510000Y-61610000D02*
X111510000Y-57490000D01*
X111440000Y-83480000D02*
X111440000Y-62701493D01*
X111440000Y-62701493D02*
X111120000Y-62381493D01*
X107490000Y-87430000D02*
X111440000Y-83480000D01*
X111120000Y-62381493D02*
X111120000Y-62000000D01*
%TO.N,/IO48*%
X115553299Y-54325000D02*
X114675000Y-55203299D01*
X117405000Y-54325000D02*
X115553299Y-54325000D01*
X114675000Y-55203299D02*
X114675000Y-59825000D01*
X118580000Y-55500000D02*
X117405000Y-54325000D01*
X114675000Y-59825000D02*
X112570000Y-61930000D01*
%TO.N,/IO47*%
X116040000Y-55500000D02*
X116040000Y-61000000D01*
X116040000Y-61000000D02*
X115110000Y-61930000D01*
%TO.N,/IO44*%
X79500000Y-61880000D02*
X79550000Y-61930000D01*
X79500000Y-55500000D02*
X79500000Y-61880000D01*
X79550000Y-55550000D02*
X79500000Y-55500000D01*
%TO.N,/IO43*%
X77040000Y-61900000D02*
X77040000Y-55580000D01*
X77010000Y-61930000D02*
X77040000Y-61900000D01*
X77040000Y-55580000D02*
X76960000Y-55500000D01*
%TD*%
%TA.AperFunction,Conductor*%
%TO.N,GND*%
G36*
X66034075Y-96807007D02*
G01*
X66000000Y-96934174D01*
X66000000Y-97065826D01*
X66034075Y-97192993D01*
X66066988Y-97250000D01*
X64393012Y-97250000D01*
X64425925Y-97192993D01*
X64460000Y-97065826D01*
X64460000Y-96934174D01*
X64425925Y-96807007D01*
X64393012Y-96750000D01*
X66066988Y-96750000D01*
X66034075Y-96807007D01*
G37*
%TD.AperFunction*%
%TA.AperFunction,Conductor*%
G36*
X64210000Y-96566988D02*
G01*
X64152993Y-96534075D01*
X64025826Y-96500000D01*
X63894174Y-96500000D01*
X63767007Y-96534075D01*
X63710000Y-96566988D01*
X63710000Y-94893012D01*
X63767007Y-94925925D01*
X63894174Y-94960000D01*
X64025826Y-94960000D01*
X64152993Y-94925925D01*
X64210000Y-94893012D01*
X64210000Y-96566988D01*
G37*
%TD.AperFunction*%
%TA.AperFunction,Conductor*%
G36*
X66750000Y-96566988D02*
G01*
X66692993Y-96534075D01*
X66565826Y-96500000D01*
X66434174Y-96500000D01*
X66307007Y-96534075D01*
X66250000Y-96566988D01*
X66250000Y-94893012D01*
X66307007Y-94925925D01*
X66434174Y-94960000D01*
X66565826Y-94960000D01*
X66692993Y-94925925D01*
X66750000Y-94893012D01*
X66750000Y-96566988D01*
G37*
%TD.AperFunction*%
%TA.AperFunction,Conductor*%
G36*
X66034075Y-94267007D02*
G01*
X66000000Y-94394174D01*
X66000000Y-94525826D01*
X66034075Y-94652993D01*
X66066988Y-94710000D01*
X64393012Y-94710000D01*
X64425925Y-94652993D01*
X64460000Y-94525826D01*
X64460000Y-94394174D01*
X64425925Y-94267007D01*
X64393012Y-94210000D01*
X66066988Y-94210000D01*
X66034075Y-94267007D01*
G37*
%TD.AperFunction*%
%TA.AperFunction,Conductor*%
G36*
X55917482Y-77892292D02*
G01*
X55989890Y-78017708D01*
X56092292Y-78120110D01*
X56217708Y-78192518D01*
X56259765Y-78203787D01*
X55668625Y-78794925D01*
X55670311Y-78814195D01*
X55670311Y-78835810D01*
X55668625Y-78855072D01*
X56259765Y-79446212D01*
X56217708Y-79457482D01*
X56092292Y-79529890D01*
X55989890Y-79632292D01*
X55917482Y-79757708D01*
X55906212Y-79799765D01*
X55299538Y-79193091D01*
X55289587Y-79191091D01*
X55239406Y-79142474D01*
X55223477Y-79074444D01*
X55224947Y-79061722D01*
X55225061Y-79060413D01*
X55225063Y-79060408D01*
X55245659Y-78825000D01*
X55225063Y-78589592D01*
X55225062Y-78589591D01*
X55224591Y-78584199D01*
X55225854Y-78584088D01*
X55232906Y-78520774D01*
X55276955Y-78466539D01*
X55296247Y-78460199D01*
X55906212Y-77850234D01*
X55917482Y-77892292D01*
G37*
%TD.AperFunction*%
%TA.AperFunction,Conductor*%
G36*
X57583181Y-78479629D02*
G01*
X57616666Y-78540952D01*
X57619500Y-78567310D01*
X57619500Y-79082689D01*
X57599815Y-79149728D01*
X57583181Y-79170370D01*
X56953787Y-79799764D01*
X56942518Y-79757708D01*
X56870110Y-79632292D01*
X56767708Y-79529890D01*
X56642292Y-79457482D01*
X56600234Y-79446212D01*
X57191372Y-78855073D01*
X57189687Y-78835811D01*
X57189687Y-78814194D01*
X57191372Y-78794925D01*
X56600234Y-78203787D01*
X56642292Y-78192518D01*
X56767708Y-78120110D01*
X56870110Y-78017708D01*
X56942518Y-77892292D01*
X56953787Y-77850235D01*
X57583181Y-78479629D01*
G37*
%TD.AperFunction*%
%TA.AperFunction,Conductor*%
G36*
X55917482Y-75602292D02*
G01*
X55989890Y-75727708D01*
X56092292Y-75830110D01*
X56217708Y-75902518D01*
X56259765Y-75913787D01*
X55668625Y-76504925D01*
X55670311Y-76524195D01*
X55670311Y-76545810D01*
X55668625Y-76565072D01*
X56259765Y-77156212D01*
X56217708Y-77167482D01*
X56092292Y-77239890D01*
X55989890Y-77342292D01*
X55917482Y-77467708D01*
X55906212Y-77509765D01*
X55299538Y-76903091D01*
X55289587Y-76901091D01*
X55239406Y-76852474D01*
X55223477Y-76784444D01*
X55224947Y-76771722D01*
X55225061Y-76770413D01*
X55225063Y-76770408D01*
X55245659Y-76535000D01*
X55225063Y-76299592D01*
X55225062Y-76299591D01*
X55224591Y-76294199D01*
X55225854Y-76294088D01*
X55232906Y-76230774D01*
X55276955Y-76176539D01*
X55296247Y-76170199D01*
X55906212Y-75560234D01*
X55917482Y-75602292D01*
G37*
%TD.AperFunction*%
%TA.AperFunction,Conductor*%
G36*
X57560455Y-76166903D02*
G01*
X57570406Y-76168903D01*
X57620589Y-76217518D01*
X57636523Y-76285546D01*
X57635050Y-76298298D01*
X57614341Y-76534999D01*
X57614341Y-76535000D01*
X57635409Y-76775801D01*
X57634148Y-76775911D01*
X57627086Y-76839239D01*
X57583030Y-76893468D01*
X57563750Y-76899800D01*
X56953787Y-77509764D01*
X56942518Y-77467708D01*
X56870110Y-77342292D01*
X56767708Y-77239890D01*
X56642292Y-77167482D01*
X56600234Y-77156212D01*
X57191372Y-76565073D01*
X57189687Y-76545811D01*
X57189687Y-76524194D01*
X57191372Y-76504925D01*
X56600234Y-75913787D01*
X56642292Y-75902518D01*
X56767708Y-75830110D01*
X56870110Y-75727708D01*
X56942518Y-75602292D01*
X56953787Y-75560235D01*
X57560455Y-76166903D01*
G37*
%TD.AperFunction*%
%TA.AperFunction,Conductor*%
G36*
X55431389Y-74013488D02*
G01*
X55446339Y-74026235D01*
X55525179Y-74105075D01*
X55558600Y-74138496D01*
X55614889Y-74177910D01*
X55658514Y-74232487D01*
X55664330Y-74270777D01*
X56259765Y-74866212D01*
X56217708Y-74877482D01*
X56092292Y-74949890D01*
X55989890Y-75052292D01*
X55917482Y-75177708D01*
X55906212Y-75219765D01*
X55299538Y-74613091D01*
X55289587Y-74611091D01*
X55239406Y-74562474D01*
X55223477Y-74494444D01*
X55224947Y-74481722D01*
X55225061Y-74480413D01*
X55225063Y-74480408D01*
X55245659Y-74245000D01*
X55235136Y-74124728D01*
X55248902Y-74056230D01*
X55297517Y-74006047D01*
X55365546Y-73990113D01*
X55431389Y-74013488D01*
G37*
%TD.AperFunction*%
%TA.AperFunction,Conductor*%
G36*
X57544668Y-73997740D02*
G01*
X57600601Y-74039611D01*
X57625019Y-74105075D01*
X57624863Y-74124729D01*
X57614341Y-74244997D01*
X57614341Y-74245000D01*
X57635409Y-74485801D01*
X57634148Y-74485911D01*
X57627086Y-74549239D01*
X57583030Y-74603468D01*
X57563750Y-74609800D01*
X56953787Y-75219764D01*
X56942518Y-75177708D01*
X56870110Y-75052292D01*
X56767708Y-74949890D01*
X56642292Y-74877482D01*
X56600234Y-74866212D01*
X57196867Y-74269579D01*
X57206472Y-74221792D01*
X57245109Y-74177911D01*
X57301401Y-74138495D01*
X57413655Y-74026240D01*
X57474976Y-73992756D01*
X57544668Y-73997740D01*
G37*
%TD.AperFunction*%
%TA.AperFunction,Conductor*%
G36*
X57560455Y-71586903D02*
G01*
X57570406Y-71588903D01*
X57620589Y-71637518D01*
X57636523Y-71705546D01*
X57635050Y-71718298D01*
X57614341Y-71954999D01*
X57614341Y-71955001D01*
X57624863Y-72075269D01*
X57611096Y-72143769D01*
X57562481Y-72193952D01*
X57494452Y-72209885D01*
X57428609Y-72186510D01*
X57413654Y-72173758D01*
X57383665Y-72143769D01*
X57301401Y-72061505D01*
X57301397Y-72061502D01*
X57301396Y-72061501D01*
X57245109Y-72022089D01*
X57201484Y-71967512D01*
X57195668Y-71929220D01*
X56600234Y-71333787D01*
X56642292Y-71322518D01*
X56767708Y-71250110D01*
X56870110Y-71147708D01*
X56942518Y-71022292D01*
X56953787Y-70980235D01*
X57560455Y-71586903D01*
G37*
%TD.AperFunction*%
%TA.AperFunction,Conductor*%
G36*
X55917482Y-71022292D02*
G01*
X55989890Y-71147708D01*
X56092292Y-71250110D01*
X56217708Y-71322518D01*
X56259765Y-71333787D01*
X55663131Y-71930419D01*
X55653527Y-71978207D01*
X55614891Y-72022088D01*
X55558601Y-72061503D01*
X55558595Y-72061508D01*
X55446344Y-72173758D01*
X55385021Y-72207242D01*
X55315329Y-72202257D01*
X55259396Y-72160386D01*
X55234980Y-72094921D01*
X55235135Y-72075276D01*
X55245659Y-71955000D01*
X55243403Y-71929220D01*
X55224591Y-71714199D01*
X55225854Y-71714088D01*
X55232906Y-71650774D01*
X55276955Y-71596539D01*
X55296247Y-71590199D01*
X55906212Y-70980234D01*
X55917482Y-71022292D01*
G37*
%TD.AperFunction*%
%TA.AperFunction,Conductor*%
G36*
X58457482Y-69877292D02*
G01*
X58529890Y-70002708D01*
X58632292Y-70105110D01*
X58757708Y-70177518D01*
X58799765Y-70188787D01*
X58203131Y-70785419D01*
X58193527Y-70833207D01*
X58154891Y-70877088D01*
X58098601Y-70916503D01*
X58098595Y-70916508D01*
X57985794Y-71029308D01*
X57924471Y-71062792D01*
X57854779Y-71057807D01*
X57798846Y-71015936D01*
X57774430Y-70950471D01*
X57774586Y-70930818D01*
X57785157Y-70810000D01*
X57785157Y-70809998D01*
X57764097Y-70569285D01*
X57765319Y-70569178D01*
X57772394Y-70505717D01*
X57816448Y-70451486D01*
X57836570Y-70444876D01*
X58446212Y-69835234D01*
X58457482Y-69877292D01*
G37*
%TD.AperFunction*%
%TA.AperFunction,Conductor*%
G36*
X133994075Y-57347007D02*
G01*
X133960000Y-57474174D01*
X133960000Y-57605826D01*
X133994075Y-57732993D01*
X134026988Y-57790000D01*
X132353012Y-57790000D01*
X132385925Y-57732993D01*
X132420000Y-57605826D01*
X132420000Y-57474174D01*
X132385925Y-57347007D01*
X132353012Y-57290000D01*
X134026988Y-57290000D01*
X133994075Y-57347007D01*
G37*
%TD.AperFunction*%
%TA.AperFunction,Conductor*%
G36*
X136534075Y-57347007D02*
G01*
X136500000Y-57474174D01*
X136500000Y-57605826D01*
X136534075Y-57732993D01*
X136566988Y-57790000D01*
X134893012Y-57790000D01*
X134925925Y-57732993D01*
X134960000Y-57605826D01*
X134960000Y-57474174D01*
X134925925Y-57347007D01*
X134893012Y-57290000D01*
X136566988Y-57290000D01*
X136534075Y-57347007D01*
G37*
%TD.AperFunction*%
%TA.AperFunction,Conductor*%
G36*
X132170000Y-57106988D02*
G01*
X132112993Y-57074075D01*
X131985826Y-57040000D01*
X131854174Y-57040000D01*
X131727007Y-57074075D01*
X131670000Y-57106988D01*
X131670000Y-55433012D01*
X131727007Y-55465925D01*
X131854174Y-55500000D01*
X131985826Y-55500000D01*
X132112993Y-55465925D01*
X132170000Y-55433012D01*
X132170000Y-57106988D01*
G37*
%TD.AperFunction*%
%TA.AperFunction,Conductor*%
G36*
X134710000Y-57106988D02*
G01*
X134652993Y-57074075D01*
X134525826Y-57040000D01*
X134394174Y-57040000D01*
X134267007Y-57074075D01*
X134210000Y-57106988D01*
X134210000Y-55433012D01*
X134267007Y-55465925D01*
X134394174Y-55500000D01*
X134525826Y-55500000D01*
X134652993Y-55465925D01*
X134710000Y-55433012D01*
X134710000Y-57106988D01*
G37*
%TD.AperFunction*%
%TA.AperFunction,Conductor*%
G36*
X137250000Y-57106988D02*
G01*
X137192993Y-57074075D01*
X137065826Y-57040000D01*
X136934174Y-57040000D01*
X136807007Y-57074075D01*
X136750000Y-57106988D01*
X136750000Y-55433012D01*
X136807007Y-55465925D01*
X136934174Y-55500000D01*
X137065826Y-55500000D01*
X137192993Y-55465925D01*
X137250000Y-55433012D01*
X137250000Y-57106988D01*
G37*
%TD.AperFunction*%
%TA.AperFunction,Conductor*%
G36*
X133994075Y-54807007D02*
G01*
X133960000Y-54934174D01*
X133960000Y-55065826D01*
X133994075Y-55192993D01*
X134026988Y-55250000D01*
X132353012Y-55250000D01*
X132385925Y-55192993D01*
X132420000Y-55065826D01*
X132420000Y-54934174D01*
X132385925Y-54807007D01*
X132353012Y-54750000D01*
X134026988Y-54750000D01*
X133994075Y-54807007D01*
G37*
%TD.AperFunction*%
%TA.AperFunction,Conductor*%
G36*
X136534075Y-54807007D02*
G01*
X136500000Y-54934174D01*
X136500000Y-55065826D01*
X136534075Y-55192993D01*
X136566988Y-55250000D01*
X134893012Y-55250000D01*
X134925925Y-55192993D01*
X134960000Y-55065826D01*
X134960000Y-54934174D01*
X134925925Y-54807007D01*
X134893012Y-54750000D01*
X136566988Y-54750000D01*
X136534075Y-54807007D01*
G37*
%TD.AperFunction*%
%TA.AperFunction,Conductor*%
G36*
X139943039Y-50520185D02*
G01*
X139988794Y-50572989D01*
X140000000Y-50624500D01*
X140000000Y-60000000D01*
X149375500Y-60000000D01*
X149442539Y-60019685D01*
X149488294Y-60072489D01*
X149499500Y-60124000D01*
X149499500Y-89876000D01*
X149479815Y-89943039D01*
X149427011Y-89988794D01*
X149375500Y-90000000D01*
X140000000Y-90000000D01*
X140000000Y-99375500D01*
X139980315Y-99442539D01*
X139927511Y-99488294D01*
X139876000Y-99499500D01*
X60124000Y-99499500D01*
X60056961Y-99479815D01*
X60011206Y-99427011D01*
X60000000Y-99375500D01*
X60000000Y-93562155D01*
X62610000Y-93562155D01*
X62610000Y-94210000D01*
X63526988Y-94210000D01*
X63494075Y-94267007D01*
X63460000Y-94394174D01*
X63460000Y-94525826D01*
X63494075Y-94652993D01*
X63526988Y-94710000D01*
X62610000Y-94710000D01*
X62610000Y-95357844D01*
X62616401Y-95417372D01*
X62616403Y-95417379D01*
X62666645Y-95552086D01*
X62666649Y-95552093D01*
X62752809Y-95667187D01*
X62752812Y-95667190D01*
X62867906Y-95753350D01*
X62867913Y-95753354D01*
X62999986Y-95802614D01*
X63055920Y-95844485D01*
X63080337Y-95909949D01*
X63065486Y-95978222D01*
X63044335Y-96006477D01*
X62921886Y-96128926D01*
X62786400Y-96322420D01*
X62786399Y-96322422D01*
X62686570Y-96536507D01*
X62686567Y-96536513D01*
X62629364Y-96749999D01*
X62629364Y-96750000D01*
X63526988Y-96750000D01*
X63494075Y-96807007D01*
X63460000Y-96934174D01*
X63460000Y-97065826D01*
X63494075Y-97192993D01*
X63526988Y-97250000D01*
X62629364Y-97250000D01*
X62686567Y-97463486D01*
X62686570Y-97463492D01*
X62786399Y-97677578D01*
X62921894Y-97871082D01*
X63088917Y-98038105D01*
X63282421Y-98173600D01*
X63496507Y-98273429D01*
X63496516Y-98273433D01*
X63710000Y-98330634D01*
X63710000Y-97433012D01*
X63767007Y-97465925D01*
X63894174Y-97500000D01*
X64025826Y-97500000D01*
X64152993Y-97465925D01*
X64210000Y-97433012D01*
X64210000Y-98330633D01*
X64423483Y-98273433D01*
X64423492Y-98273429D01*
X64637578Y-98173600D01*
X64831082Y-98038105D01*
X64998105Y-97871082D01*
X65128425Y-97684968D01*
X65183002Y-97641344D01*
X65252501Y-97634151D01*
X65314855Y-97665673D01*
X65331575Y-97684968D01*
X65461894Y-97871082D01*
X65628917Y-98038105D01*
X65822421Y-98173600D01*
X66036507Y-98273429D01*
X66036516Y-98273433D01*
X66250000Y-98330634D01*
X66250000Y-97433012D01*
X66307007Y-97465925D01*
X66434174Y-97500000D01*
X66565826Y-97500000D01*
X66692993Y-97465925D01*
X66750000Y-97433012D01*
X66750000Y-98330633D01*
X66963483Y-98273433D01*
X66963492Y-98273429D01*
X67177578Y-98173600D01*
X67371082Y-98038105D01*
X67538105Y-97871082D01*
X67673600Y-97677578D01*
X67773429Y-97463492D01*
X67773432Y-97463486D01*
X67830636Y-97250000D01*
X66933012Y-97250000D01*
X66965925Y-97192993D01*
X67000000Y-97065826D01*
X67000000Y-96934174D01*
X66965925Y-96807007D01*
X66933012Y-96750000D01*
X67830636Y-96750000D01*
X67830635Y-96749999D01*
X67773432Y-96536513D01*
X67773429Y-96536507D01*
X67673600Y-96322422D01*
X67673599Y-96322420D01*
X67538113Y-96128926D01*
X67538108Y-96128920D01*
X67371082Y-95961894D01*
X67184968Y-95831575D01*
X67141344Y-95776998D01*
X67134151Y-95707499D01*
X67165673Y-95645145D01*
X67184968Y-95628425D01*
X67222514Y-95602135D01*
X72624500Y-95602135D01*
X72624500Y-97397870D01*
X72624501Y-97397876D01*
X72630908Y-97457483D01*
X72681202Y-97592328D01*
X72681206Y-97592335D01*
X72767452Y-97707544D01*
X72767455Y-97707547D01*
X72882664Y-97793793D01*
X72882671Y-97793797D01*
X73017517Y-97844091D01*
X73017516Y-97844091D01*
X73024444Y-97844835D01*
X73077127Y-97850500D01*
X74872872Y-97850499D01*
X74932483Y-97844091D01*
X75067331Y-97793796D01*
X75182546Y-97707546D01*
X75268796Y-97592331D01*
X75317810Y-97460916D01*
X75359681Y-97404984D01*
X75425145Y-97380566D01*
X75493418Y-97395417D01*
X75521673Y-97416569D01*
X75643599Y-97538495D01*
X75740384Y-97606265D01*
X75837165Y-97674032D01*
X75837167Y-97674033D01*
X75837170Y-97674035D01*
X76051337Y-97773903D01*
X76279592Y-97835063D01*
X76456034Y-97850500D01*
X76514999Y-97855659D01*
X76515000Y-97855659D01*
X76515001Y-97855659D01*
X76573966Y-97850500D01*
X76750408Y-97835063D01*
X76978663Y-97773903D01*
X77192830Y-97674035D01*
X77386401Y-97538495D01*
X77553495Y-97371401D01*
X77601127Y-97303376D01*
X77655704Y-97259751D01*
X77702701Y-97250500D01*
X77867299Y-97250500D01*
X77934338Y-97270185D01*
X77968873Y-97303376D01*
X78016501Y-97371395D01*
X78016505Y-97371401D01*
X78183599Y-97538495D01*
X78280384Y-97606265D01*
X78377165Y-97674032D01*
X78377167Y-97674033D01*
X78377170Y-97674035D01*
X78591337Y-97773903D01*
X78819592Y-97835063D01*
X78996034Y-97850500D01*
X79054999Y-97855659D01*
X79055000Y-97855659D01*
X79055001Y-97855659D01*
X79113966Y-97850500D01*
X79290408Y-97835063D01*
X79518663Y-97773903D01*
X79732830Y-97674035D01*
X79926401Y-97538495D01*
X80093495Y-97371401D01*
X80229035Y-97177830D01*
X80328903Y-96963663D01*
X80390063Y-96735408D01*
X80410659Y-96500000D01*
X80390063Y-96264592D01*
X80331673Y-96046674D01*
X80328905Y-96036344D01*
X80328904Y-96036343D01*
X80328903Y-96036337D01*
X80229035Y-95822171D01*
X80223425Y-95814158D01*
X80093494Y-95628597D01*
X79926402Y-95461506D01*
X79926395Y-95461501D01*
X79732834Y-95325967D01*
X79732830Y-95325965D01*
X79660972Y-95292457D01*
X79518663Y-95226097D01*
X79518659Y-95226096D01*
X79518655Y-95226094D01*
X79290413Y-95164938D01*
X79290403Y-95164936D01*
X79055001Y-95144341D01*
X79054999Y-95144341D01*
X78819596Y-95164936D01*
X78819586Y-95164938D01*
X78591344Y-95226094D01*
X78591337Y-95226096D01*
X78591337Y-95226097D01*
X78582259Y-95230330D01*
X78377171Y-95325964D01*
X78377169Y-95325965D01*
X78183597Y-95461505D01*
X78016506Y-95628596D01*
X77968874Y-95696623D01*
X77914297Y-95740248D01*
X77867299Y-95749500D01*
X77702701Y-95749500D01*
X77635662Y-95729815D01*
X77601126Y-95696623D01*
X77553494Y-95628597D01*
X77386402Y-95461506D01*
X77386395Y-95461501D01*
X77192834Y-95325967D01*
X77192830Y-95325965D01*
X77120972Y-95292457D01*
X76978663Y-95226097D01*
X76978659Y-95226096D01*
X76978655Y-95226094D01*
X76750413Y-95164938D01*
X76750403Y-95164936D01*
X76515001Y-95144341D01*
X76514999Y-95144341D01*
X76279596Y-95164936D01*
X76279586Y-95164938D01*
X76051344Y-95226094D01*
X76051337Y-95226096D01*
X76051337Y-95226097D01*
X76042259Y-95230330D01*
X75837171Y-95325964D01*
X75837169Y-95325965D01*
X75643600Y-95461503D01*
X75521673Y-95583430D01*
X75460350Y-95616914D01*
X75390658Y-95611930D01*
X75334725Y-95570058D01*
X75317810Y-95539081D01*
X75268796Y-95407669D01*
X75245232Y-95376191D01*
X75220816Y-95310726D01*
X75220500Y-95301881D01*
X75220500Y-89043588D01*
X75240185Y-88976549D01*
X75292989Y-88930794D01*
X75331251Y-88920298D01*
X75342483Y-88919091D01*
X75477331Y-88868796D01*
X75592546Y-88782546D01*
X75678796Y-88667331D01*
X75729091Y-88532483D01*
X75735500Y-88472873D01*
X75735499Y-88439434D01*
X75755182Y-88372398D01*
X75807984Y-88326642D01*
X75877143Y-88316697D01*
X75940699Y-88345720D01*
X75961073Y-88368311D01*
X76036862Y-88476547D01*
X76036868Y-88476555D01*
X76193445Y-88633132D01*
X76374833Y-88760142D01*
X76426988Y-88784462D01*
X76575513Y-88853720D01*
X76575515Y-88853720D01*
X76575520Y-88853723D01*
X76789409Y-88911035D01*
X76946974Y-88924820D01*
X77009998Y-88930334D01*
X77010000Y-88930334D01*
X77010002Y-88930334D01*
X77065265Y-88925499D01*
X77230591Y-88911035D01*
X77444480Y-88853723D01*
X77645167Y-88760142D01*
X77826555Y-88633132D01*
X77983132Y-88476555D01*
X78110142Y-88295167D01*
X78167618Y-88171907D01*
X78213790Y-88119468D01*
X78280983Y-88100316D01*
X78347864Y-88120531D01*
X78392381Y-88171907D01*
X78449858Y-88295167D01*
X78576868Y-88476555D01*
X78733445Y-88633132D01*
X78914833Y-88760142D01*
X78966988Y-88784462D01*
X79115513Y-88853720D01*
X79115515Y-88853720D01*
X79115520Y-88853723D01*
X79329409Y-88911035D01*
X79486974Y-88924820D01*
X79549998Y-88930334D01*
X79550000Y-88930334D01*
X79550002Y-88930334D01*
X79605265Y-88925499D01*
X79770591Y-88911035D01*
X79984480Y-88853723D01*
X80185167Y-88760142D01*
X80366555Y-88633132D01*
X80523132Y-88476555D01*
X80650142Y-88295167D01*
X80707618Y-88171907D01*
X80753790Y-88119468D01*
X80820983Y-88100316D01*
X80887864Y-88120531D01*
X80932381Y-88171907D01*
X80989858Y-88295167D01*
X81116868Y-88476555D01*
X81273445Y-88633132D01*
X81411624Y-88729886D01*
X81455248Y-88784462D01*
X81464500Y-88831460D01*
X81464500Y-95271607D01*
X81468646Y-95292449D01*
X81468646Y-95292453D01*
X81488535Y-95392446D01*
X81488536Y-95392450D01*
X81488537Y-95392452D01*
X81494840Y-95407669D01*
X81535685Y-95506281D01*
X81535688Y-95506286D01*
X81557208Y-95538492D01*
X81557209Y-95538495D01*
X81557210Y-95538495D01*
X81604140Y-95608731D01*
X81604141Y-95608732D01*
X81604142Y-95608733D01*
X81691267Y-95695858D01*
X81691268Y-95695858D01*
X81698335Y-95702925D01*
X81698334Y-95702925D01*
X81698338Y-95702928D01*
X81993181Y-95997771D01*
X82026666Y-96059094D01*
X82029500Y-96085452D01*
X82029500Y-97397870D01*
X82029501Y-97397876D01*
X82035908Y-97457483D01*
X82086202Y-97592328D01*
X82086206Y-97592335D01*
X82172452Y-97707544D01*
X82172455Y-97707547D01*
X82287664Y-97793793D01*
X82287671Y-97793797D01*
X82422517Y-97844091D01*
X82422516Y-97844091D01*
X82429444Y-97844835D01*
X82482127Y-97850500D01*
X84277872Y-97850499D01*
X84337483Y-97844091D01*
X84472331Y-97793796D01*
X84587546Y-97707546D01*
X84673796Y-97592331D01*
X84722810Y-97460916D01*
X84764681Y-97404984D01*
X84830145Y-97380566D01*
X84898418Y-97395417D01*
X84926673Y-97416569D01*
X85048599Y-97538495D01*
X85145384Y-97606265D01*
X85242165Y-97674032D01*
X85242167Y-97674033D01*
X85242170Y-97674035D01*
X85456337Y-97773903D01*
X85684592Y-97835063D01*
X85861034Y-97850500D01*
X85919999Y-97855659D01*
X85920000Y-97855659D01*
X85920001Y-97855659D01*
X85978966Y-97850500D01*
X86155408Y-97835063D01*
X86383663Y-97773903D01*
X86597830Y-97674035D01*
X86791401Y-97538495D01*
X86958495Y-97371401D01*
X87088425Y-97185842D01*
X87143002Y-97142217D01*
X87212500Y-97135023D01*
X87274855Y-97166546D01*
X87291575Y-97185842D01*
X87421500Y-97371395D01*
X87421505Y-97371401D01*
X87588599Y-97538495D01*
X87685384Y-97606265D01*
X87782165Y-97674032D01*
X87782167Y-97674033D01*
X87782170Y-97674035D01*
X87996337Y-97773903D01*
X88224592Y-97835063D01*
X88401034Y-97850500D01*
X88459999Y-97855659D01*
X88460000Y-97855659D01*
X88460001Y-97855659D01*
X88518966Y-97850500D01*
X88695408Y-97835063D01*
X88923663Y-97773903D01*
X89137830Y-97674035D01*
X89331401Y-97538495D01*
X89498495Y-97371401D01*
X89628425Y-97185842D01*
X89683002Y-97142217D01*
X89752500Y-97135023D01*
X89814855Y-97166546D01*
X89831575Y-97185842D01*
X89961500Y-97371395D01*
X89961505Y-97371401D01*
X90128599Y-97538495D01*
X90225384Y-97606265D01*
X90322165Y-97674032D01*
X90322167Y-97674033D01*
X90322170Y-97674035D01*
X90536337Y-97773903D01*
X90764592Y-97835063D01*
X90941034Y-97850500D01*
X90999999Y-97855659D01*
X91000000Y-97855659D01*
X91000001Y-97855659D01*
X91058966Y-97850500D01*
X91235408Y-97835063D01*
X91463663Y-97773903D01*
X91677830Y-97674035D01*
X91871401Y-97538495D01*
X92038495Y-97371401D01*
X92174035Y-97177830D01*
X92273903Y-96963663D01*
X92335063Y-96735408D01*
X92355659Y-96500000D01*
X92335063Y-96264592D01*
X92276673Y-96046674D01*
X92273905Y-96036344D01*
X92273904Y-96036343D01*
X92273903Y-96036337D01*
X92174035Y-95822171D01*
X92168425Y-95814158D01*
X92038494Y-95628597D01*
X91871402Y-95461506D01*
X91871395Y-95461501D01*
X91677834Y-95325967D01*
X91677830Y-95325965D01*
X91605972Y-95292457D01*
X91463663Y-95226097D01*
X91463659Y-95226096D01*
X91463655Y-95226094D01*
X91235413Y-95164938D01*
X91235403Y-95164936D01*
X91000001Y-95144341D01*
X90999999Y-95144341D01*
X90764596Y-95164936D01*
X90764586Y-95164938D01*
X90664126Y-95191856D01*
X90594276Y-95190193D01*
X90544352Y-95159762D01*
X90371819Y-94987228D01*
X90338334Y-94925905D01*
X90335500Y-94899547D01*
X90335500Y-94425786D01*
X90355185Y-94358747D01*
X90407989Y-94312992D01*
X90473384Y-94302566D01*
X90489039Y-94304330D01*
X90499999Y-94305565D01*
X90500000Y-94305565D01*
X90500004Y-94305565D01*
X90679249Y-94285369D01*
X90679252Y-94285368D01*
X90679255Y-94285368D01*
X90849522Y-94225789D01*
X91002262Y-94129816D01*
X91129816Y-94002262D01*
X91225789Y-93849522D01*
X91285368Y-93679255D01*
X91290672Y-93632173D01*
X91317737Y-93567763D01*
X91326190Y-93558398D01*
X91485857Y-93398733D01*
X91522976Y-93343182D01*
X91554312Y-93296286D01*
X91566382Y-93267147D01*
X91593347Y-93202048D01*
X91637188Y-93147644D01*
X91703482Y-93125579D01*
X91707908Y-93125500D01*
X103108189Y-93125500D01*
X103175228Y-93145185D01*
X103220983Y-93197989D01*
X103230927Y-93267147D01*
X103225230Y-93290455D01*
X103214633Y-93320737D01*
X103214630Y-93320750D01*
X103194435Y-93499996D01*
X103194435Y-93500003D01*
X103214630Y-93679249D01*
X103214631Y-93679254D01*
X103274211Y-93849523D01*
X103343629Y-93960000D01*
X103370184Y-94002262D01*
X103497738Y-94129816D01*
X103650478Y-94225789D01*
X103820745Y-94285368D01*
X103820750Y-94285369D01*
X103999996Y-94305565D01*
X104000000Y-94305565D01*
X104000004Y-94305565D01*
X104179249Y-94285369D01*
X104179252Y-94285368D01*
X104179255Y-94285368D01*
X104349522Y-94225789D01*
X104502262Y-94129816D01*
X104629816Y-94002262D01*
X104725789Y-93849522D01*
X104785368Y-93679255D01*
X104785369Y-93679249D01*
X104805565Y-93500003D01*
X104805565Y-93499996D01*
X104785369Y-93320750D01*
X104785368Y-93320745D01*
X104761596Y-93252809D01*
X104725789Y-93150478D01*
X104725174Y-93149500D01*
X104644506Y-93021117D01*
X104625500Y-92955145D01*
X104625500Y-92438393D01*
X104625499Y-92438389D01*
X104601464Y-92317555D01*
X104601463Y-92317548D01*
X104554311Y-92203714D01*
X104554310Y-92203713D01*
X104554307Y-92203707D01*
X104485858Y-92101267D01*
X104485855Y-92101263D01*
X104398736Y-92014144D01*
X104398732Y-92014141D01*
X104296292Y-91945692D01*
X104296283Y-91945687D01*
X104182454Y-91898538D01*
X104182455Y-91898538D01*
X104182452Y-91898537D01*
X104182448Y-91898536D01*
X104182444Y-91898535D01*
X104061610Y-91874500D01*
X104061606Y-91874500D01*
X90561607Y-91874500D01*
X90459500Y-91874500D01*
X90392461Y-91854815D01*
X90346706Y-91802011D01*
X90335500Y-91750500D01*
X90335500Y-88831460D01*
X90355185Y-88764421D01*
X90388374Y-88729887D01*
X90526555Y-88633132D01*
X90683132Y-88476555D01*
X90810142Y-88295167D01*
X90867618Y-88171907D01*
X90913790Y-88119468D01*
X90980983Y-88100316D01*
X91047864Y-88120531D01*
X91092381Y-88171907D01*
X91149858Y-88295167D01*
X91276868Y-88476555D01*
X91433445Y-88633132D01*
X91614833Y-88760142D01*
X91666988Y-88784462D01*
X91815513Y-88853720D01*
X91815515Y-88853720D01*
X91815520Y-88853723D01*
X92029409Y-88911035D01*
X92186974Y-88924820D01*
X92249998Y-88930334D01*
X92250000Y-88930334D01*
X92250002Y-88930334D01*
X92305265Y-88925499D01*
X92470591Y-88911035D01*
X92684480Y-88853723D01*
X92885167Y-88760142D01*
X93066555Y-88633132D01*
X93223132Y-88476555D01*
X93350142Y-88295167D01*
X93407618Y-88171907D01*
X93453790Y-88119468D01*
X93520983Y-88100316D01*
X93587864Y-88120531D01*
X93632381Y-88171907D01*
X93689858Y-88295167D01*
X93816868Y-88476555D01*
X93973445Y-88633132D01*
X94154833Y-88760142D01*
X94206988Y-88784462D01*
X94355513Y-88853720D01*
X94355515Y-88853720D01*
X94355520Y-88853723D01*
X94569409Y-88911035D01*
X94726974Y-88924820D01*
X94789998Y-88930334D01*
X94790000Y-88930334D01*
X94790002Y-88930334D01*
X94845265Y-88925499D01*
X95010591Y-88911035D01*
X95224480Y-88853723D01*
X95425167Y-88760142D01*
X95606555Y-88633132D01*
X95763132Y-88476555D01*
X95890142Y-88295167D01*
X95947618Y-88171907D01*
X95993790Y-88119468D01*
X96060983Y-88100316D01*
X96127864Y-88120531D01*
X96172381Y-88171907D01*
X96229858Y-88295167D01*
X96356868Y-88476555D01*
X96513445Y-88633132D01*
X96694833Y-88760142D01*
X96746988Y-88784462D01*
X96895513Y-88853720D01*
X96895515Y-88853720D01*
X96895520Y-88853723D01*
X97109409Y-88911035D01*
X97266974Y-88924820D01*
X97329998Y-88930334D01*
X97330000Y-88930334D01*
X97330002Y-88930334D01*
X97385265Y-88925499D01*
X97550591Y-88911035D01*
X97764480Y-88853723D01*
X97965167Y-88760142D01*
X98146555Y-88633132D01*
X98303132Y-88476555D01*
X98430142Y-88295167D01*
X98487618Y-88171907D01*
X98533790Y-88119468D01*
X98600983Y-88100316D01*
X98667864Y-88120531D01*
X98712381Y-88171907D01*
X98769858Y-88295167D01*
X98896868Y-88476555D01*
X99053445Y-88633132D01*
X99234833Y-88760142D01*
X99286988Y-88784462D01*
X99435513Y-88853720D01*
X99435515Y-88853720D01*
X99435520Y-88853723D01*
X99649409Y-88911035D01*
X99806974Y-88924820D01*
X99869998Y-88930334D01*
X99870000Y-88930334D01*
X99870002Y-88930334D01*
X99925265Y-88925499D01*
X100090591Y-88911035D01*
X100304480Y-88853723D01*
X100505167Y-88760142D01*
X100686555Y-88633132D01*
X100843132Y-88476555D01*
X100970142Y-88295167D01*
X101027618Y-88171907D01*
X101073790Y-88119468D01*
X101140983Y-88100316D01*
X101207864Y-88120531D01*
X101252381Y-88171907D01*
X101309858Y-88295167D01*
X101436868Y-88476555D01*
X101593445Y-88633132D01*
X101774833Y-88760142D01*
X101826988Y-88784462D01*
X101975513Y-88853720D01*
X101975515Y-88853720D01*
X101975520Y-88853723D01*
X102189409Y-88911035D01*
X102346974Y-88924820D01*
X102409998Y-88930334D01*
X102410000Y-88930334D01*
X102410002Y-88930334D01*
X102465265Y-88925499D01*
X102630591Y-88911035D01*
X102676471Y-88898741D01*
X102746319Y-88900404D01*
X102796245Y-88930835D01*
X102838181Y-88972771D01*
X102871666Y-89034094D01*
X102874500Y-89060452D01*
X102874500Y-90061610D01*
X102898535Y-90182444D01*
X102898538Y-90182454D01*
X102945687Y-90296283D01*
X102945692Y-90296292D01*
X103014141Y-90398732D01*
X103014144Y-90398736D01*
X103101263Y-90485855D01*
X103101267Y-90485858D01*
X103203707Y-90554307D01*
X103203713Y-90554310D01*
X103203714Y-90554311D01*
X103317548Y-90601463D01*
X103438389Y-90625499D01*
X103438393Y-90625500D01*
X103438394Y-90625500D01*
X103561606Y-90625500D01*
X107190547Y-90625500D01*
X107257586Y-90645185D01*
X107303341Y-90697989D01*
X107313285Y-90767147D01*
X107284260Y-90830703D01*
X107278228Y-90837181D01*
X107274144Y-90841264D01*
X107274138Y-90841272D01*
X107205692Y-90943705D01*
X107205684Y-90943719D01*
X107172347Y-91024207D01*
X107166823Y-91037543D01*
X107158537Y-91057545D01*
X107158535Y-91057553D01*
X107134500Y-91178389D01*
X107134500Y-95025500D01*
X107114815Y-95092539D01*
X107062011Y-95138294D01*
X107010500Y-95149500D01*
X106322129Y-95149500D01*
X106322123Y-95149501D01*
X106262516Y-95155908D01*
X106127671Y-95206202D01*
X106127664Y-95206206D01*
X106012455Y-95292452D01*
X106012452Y-95292455D01*
X105926206Y-95407664D01*
X105926204Y-95407669D01*
X105875908Y-95542517D01*
X105869501Y-95602116D01*
X105869500Y-95602135D01*
X105869500Y-97397870D01*
X105869501Y-97397876D01*
X105875908Y-97457483D01*
X105926202Y-97592328D01*
X105926206Y-97592335D01*
X106012452Y-97707544D01*
X106012455Y-97707547D01*
X106127664Y-97793793D01*
X106127671Y-97793797D01*
X106262517Y-97844091D01*
X106262516Y-97844091D01*
X106269444Y-97844835D01*
X106322127Y-97850500D01*
X108117872Y-97850499D01*
X108177483Y-97844091D01*
X108312331Y-97793796D01*
X108427546Y-97707546D01*
X108513796Y-97592331D01*
X108562810Y-97460916D01*
X108604681Y-97404984D01*
X108670145Y-97380566D01*
X108738418Y-97395417D01*
X108766673Y-97416569D01*
X108888599Y-97538495D01*
X108985384Y-97606265D01*
X109082165Y-97674032D01*
X109082167Y-97674033D01*
X109082170Y-97674035D01*
X109296337Y-97773903D01*
X109524592Y-97835063D01*
X109701034Y-97850500D01*
X109759999Y-97855659D01*
X109760000Y-97855659D01*
X109760001Y-97855659D01*
X109818966Y-97850500D01*
X109995408Y-97835063D01*
X110223663Y-97773903D01*
X110437830Y-97674035D01*
X110631401Y-97538495D01*
X110798495Y-97371401D01*
X110928425Y-97185842D01*
X110983002Y-97142217D01*
X111052500Y-97135023D01*
X111114855Y-97166546D01*
X111131575Y-97185842D01*
X111261500Y-97371395D01*
X111261505Y-97371401D01*
X111428599Y-97538495D01*
X111525384Y-97606265D01*
X111622165Y-97674032D01*
X111622167Y-97674033D01*
X111622170Y-97674035D01*
X111836337Y-97773903D01*
X112064592Y-97835063D01*
X112241034Y-97850500D01*
X112299999Y-97855659D01*
X112300000Y-97855659D01*
X112300001Y-97855659D01*
X112358966Y-97850500D01*
X112535408Y-97835063D01*
X112763663Y-97773903D01*
X112977830Y-97674035D01*
X113171401Y-97538495D01*
X113338495Y-97371401D01*
X113468425Y-97185842D01*
X113523002Y-97142217D01*
X113592500Y-97135023D01*
X113654855Y-97166546D01*
X113671575Y-97185842D01*
X113801500Y-97371395D01*
X113801505Y-97371401D01*
X113968599Y-97538495D01*
X114065384Y-97606265D01*
X114162165Y-97674032D01*
X114162167Y-97674033D01*
X114162170Y-97674035D01*
X114376337Y-97773903D01*
X114604592Y-97835063D01*
X114781034Y-97850500D01*
X114839999Y-97855659D01*
X114840000Y-97855659D01*
X114840001Y-97855659D01*
X114898966Y-97850500D01*
X115075408Y-97835063D01*
X115303663Y-97773903D01*
X115517830Y-97674035D01*
X115711401Y-97538495D01*
X115878495Y-97371401D01*
X116008425Y-97185842D01*
X116063002Y-97142217D01*
X116132500Y-97135023D01*
X116194855Y-97166546D01*
X116211575Y-97185842D01*
X116341500Y-97371395D01*
X116341505Y-97371401D01*
X116508599Y-97538495D01*
X116605384Y-97606265D01*
X116702165Y-97674032D01*
X116702167Y-97674033D01*
X116702170Y-97674035D01*
X116916337Y-97773903D01*
X117144592Y-97835063D01*
X117321034Y-97850500D01*
X117379999Y-97855659D01*
X117380000Y-97855659D01*
X117380001Y-97855659D01*
X117438966Y-97850500D01*
X117615408Y-97835063D01*
X117843663Y-97773903D01*
X118057830Y-97674035D01*
X118251401Y-97538495D01*
X118418495Y-97371401D01*
X118548425Y-97185842D01*
X118603002Y-97142217D01*
X118672500Y-97135023D01*
X118734855Y-97166546D01*
X118751575Y-97185842D01*
X118881500Y-97371395D01*
X118881505Y-97371401D01*
X119048599Y-97538495D01*
X119145384Y-97606265D01*
X119242165Y-97674032D01*
X119242167Y-97674033D01*
X119242170Y-97674035D01*
X119456337Y-97773903D01*
X119684592Y-97835063D01*
X119861034Y-97850500D01*
X119919999Y-97855659D01*
X119920000Y-97855659D01*
X119920001Y-97855659D01*
X119978966Y-97850500D01*
X120155408Y-97835063D01*
X120383663Y-97773903D01*
X120597830Y-97674035D01*
X120791401Y-97538495D01*
X120958495Y-97371401D01*
X121088425Y-97185842D01*
X121143002Y-97142217D01*
X121212500Y-97135023D01*
X121274855Y-97166546D01*
X121291575Y-97185842D01*
X121421500Y-97371395D01*
X121421505Y-97371401D01*
X121588599Y-97538495D01*
X121685384Y-97606265D01*
X121782165Y-97674032D01*
X121782167Y-97674033D01*
X121782170Y-97674035D01*
X121996337Y-97773903D01*
X122224592Y-97835063D01*
X122401034Y-97850500D01*
X122459999Y-97855659D01*
X122460000Y-97855659D01*
X122460001Y-97855659D01*
X122518966Y-97850500D01*
X122695408Y-97835063D01*
X122923663Y-97773903D01*
X123137830Y-97674035D01*
X123331401Y-97538495D01*
X123498495Y-97371401D01*
X123628425Y-97185842D01*
X123683002Y-97142217D01*
X123752500Y-97135023D01*
X123814855Y-97166546D01*
X123831575Y-97185842D01*
X123961500Y-97371395D01*
X123961505Y-97371401D01*
X124128599Y-97538495D01*
X124225384Y-97606265D01*
X124322165Y-97674032D01*
X124322167Y-97674033D01*
X124322170Y-97674035D01*
X124536337Y-97773903D01*
X124764592Y-97835063D01*
X124941034Y-97850500D01*
X124999999Y-97855659D01*
X125000000Y-97855659D01*
X125000001Y-97855659D01*
X125058966Y-97850500D01*
X125235408Y-97835063D01*
X125463663Y-97773903D01*
X125677830Y-97674035D01*
X125871401Y-97538495D01*
X126038495Y-97371401D01*
X126174035Y-97177830D01*
X126238307Y-97039999D01*
X130104341Y-97039999D01*
X130104341Y-97040000D01*
X130124936Y-97275403D01*
X130124938Y-97275413D01*
X130186094Y-97503655D01*
X130186096Y-97503659D01*
X130186097Y-97503663D01*
X130281170Y-97707547D01*
X130285965Y-97717830D01*
X130285967Y-97717834D01*
X130374374Y-97844091D01*
X130421505Y-97911401D01*
X130588599Y-98078495D01*
X130685384Y-98146265D01*
X130782165Y-98214032D01*
X130782167Y-98214033D01*
X130782170Y-98214035D01*
X130996337Y-98313903D01*
X131224592Y-98375063D01*
X131412918Y-98391539D01*
X131459999Y-98395659D01*
X131460000Y-98395659D01*
X131460001Y-98395659D01*
X131499234Y-98392226D01*
X131695408Y-98375063D01*
X131923663Y-98313903D01*
X132137830Y-98214035D01*
X132331401Y-98078495D01*
X132498495Y-97911401D01*
X132628425Y-97725842D01*
X132683002Y-97682217D01*
X132752500Y-97675023D01*
X132814855Y-97706546D01*
X132831575Y-97725842D01*
X132961500Y-97911395D01*
X132961505Y-97911401D01*
X133128599Y-98078495D01*
X133225384Y-98146265D01*
X133322165Y-98214032D01*
X133322167Y-98214033D01*
X133322170Y-98214035D01*
X133536337Y-98313903D01*
X133764592Y-98375063D01*
X133952918Y-98391539D01*
X133999999Y-98395659D01*
X134000000Y-98395659D01*
X134000001Y-98395659D01*
X134039234Y-98392226D01*
X134235408Y-98375063D01*
X134463663Y-98313903D01*
X134677830Y-98214035D01*
X134871401Y-98078495D01*
X135038495Y-97911401D01*
X135174035Y-97717830D01*
X135273903Y-97503663D01*
X135335063Y-97275408D01*
X135355659Y-97040000D01*
X135335063Y-96804592D01*
X135273903Y-96576337D01*
X135174035Y-96362171D01*
X135168425Y-96354158D01*
X135038494Y-96168597D01*
X134871402Y-96001506D01*
X134871396Y-96001501D01*
X134685842Y-95871575D01*
X134642217Y-95816998D01*
X134635023Y-95747500D01*
X134666546Y-95685145D01*
X134685842Y-95668425D01*
X134742722Y-95628597D01*
X134871401Y-95538495D01*
X135038495Y-95371401D01*
X135174035Y-95177830D01*
X135273903Y-94963663D01*
X135335063Y-94735408D01*
X135355659Y-94500000D01*
X135335063Y-94264592D01*
X135273903Y-94036337D01*
X135174035Y-93822171D01*
X135146202Y-93782420D01*
X135038494Y-93628597D01*
X134871402Y-93461506D01*
X134871395Y-93461501D01*
X134677834Y-93325967D01*
X134677830Y-93325965D01*
X134666636Y-93320745D01*
X134463663Y-93226097D01*
X134463659Y-93226096D01*
X134463655Y-93226094D01*
X134235413Y-93164938D01*
X134235403Y-93164936D01*
X134000001Y-93144341D01*
X133999999Y-93144341D01*
X133764596Y-93164936D01*
X133764586Y-93164938D01*
X133536344Y-93226094D01*
X133536335Y-93226098D01*
X133322171Y-93325964D01*
X133322169Y-93325965D01*
X133128600Y-93461503D01*
X133006673Y-93583430D01*
X132945350Y-93616914D01*
X132875658Y-93611930D01*
X132819725Y-93570058D01*
X132802810Y-93539081D01*
X132753797Y-93407671D01*
X132753793Y-93407664D01*
X132667547Y-93292455D01*
X132667544Y-93292452D01*
X132552335Y-93206206D01*
X132552328Y-93206202D01*
X132417482Y-93155908D01*
X132417483Y-93155908D01*
X132357883Y-93149501D01*
X132357881Y-93149500D01*
X132357873Y-93149500D01*
X132357864Y-93149500D01*
X130562129Y-93149500D01*
X130562123Y-93149501D01*
X130502516Y-93155908D01*
X130367671Y-93206202D01*
X130367664Y-93206206D01*
X130252455Y-93292452D01*
X130252452Y-93292455D01*
X130166206Y-93407664D01*
X130166202Y-93407671D01*
X130115908Y-93542517D01*
X130109501Y-93602116D01*
X130109500Y-93602135D01*
X130109500Y-95397870D01*
X130109501Y-95397876D01*
X130115908Y-95457483D01*
X130166202Y-95592328D01*
X130166206Y-95592335D01*
X130252452Y-95707544D01*
X130252455Y-95707547D01*
X130367664Y-95793793D01*
X130367671Y-95793797D01*
X130499081Y-95842810D01*
X130555015Y-95884681D01*
X130579432Y-95950145D01*
X130564580Y-96018418D01*
X130543430Y-96046673D01*
X130421503Y-96168600D01*
X130285965Y-96362169D01*
X130285964Y-96362171D01*
X130186098Y-96576335D01*
X130186094Y-96576344D01*
X130124938Y-96804586D01*
X130124936Y-96804596D01*
X130104341Y-97039999D01*
X126238307Y-97039999D01*
X126273903Y-96963663D01*
X126335063Y-96735408D01*
X126355659Y-96500000D01*
X126335063Y-96264592D01*
X126276673Y-96046674D01*
X126273905Y-96036344D01*
X126273904Y-96036343D01*
X126273903Y-96036337D01*
X126174035Y-95822171D01*
X126168425Y-95814158D01*
X126038494Y-95628597D01*
X125871402Y-95461506D01*
X125871395Y-95461501D01*
X125677834Y-95325967D01*
X125677830Y-95325965D01*
X125605972Y-95292457D01*
X125463663Y-95226097D01*
X125463659Y-95226096D01*
X125463655Y-95226094D01*
X125235413Y-95164938D01*
X125235403Y-95164936D01*
X125000001Y-95144341D01*
X124999998Y-95144341D01*
X124940307Y-95149563D01*
X124871807Y-95135796D01*
X124821624Y-95087181D01*
X124805500Y-95026035D01*
X124805500Y-89007279D01*
X124825185Y-88940240D01*
X124877989Y-88894485D01*
X124947147Y-88884541D01*
X124961581Y-88887501D01*
X125049409Y-88911035D01*
X125206974Y-88924820D01*
X125269998Y-88930334D01*
X125270000Y-88930334D01*
X125270002Y-88930334D01*
X125325265Y-88925499D01*
X125490591Y-88911035D01*
X125704480Y-88853723D01*
X125905167Y-88760142D01*
X126086555Y-88633132D01*
X126243132Y-88476555D01*
X126370142Y-88295167D01*
X126427895Y-88171312D01*
X126474064Y-88118878D01*
X126541258Y-88099725D01*
X126608139Y-88119940D01*
X126652657Y-88171316D01*
X126710295Y-88294919D01*
X126756103Y-88360341D01*
X126756105Y-88360342D01*
X127318871Y-87797575D01*
X127334755Y-87856853D01*
X127401898Y-87973147D01*
X127496853Y-88068102D01*
X127613147Y-88135245D01*
X127672424Y-88151128D01*
X127109656Y-88713894D01*
X127175083Y-88759706D01*
X127175085Y-88759707D01*
X127375690Y-88853250D01*
X127375699Y-88853254D01*
X127589490Y-88910538D01*
X127589500Y-88910540D01*
X127809999Y-88929832D01*
X127810001Y-88929832D01*
X128030499Y-88910540D01*
X128030509Y-88910538D01*
X128244300Y-88853254D01*
X128244309Y-88853250D01*
X128444915Y-88759706D01*
X128510342Y-88713894D01*
X127947575Y-88151127D01*
X128006853Y-88135245D01*
X128123147Y-88068102D01*
X128218102Y-87973147D01*
X128285245Y-87856853D01*
X128301128Y-87797575D01*
X128863894Y-88360342D01*
X128909706Y-88294915D01*
X129003250Y-88094309D01*
X129003254Y-88094300D01*
X129060538Y-87880509D01*
X129060540Y-87880499D01*
X129079832Y-87660000D01*
X129079832Y-87659999D01*
X129060540Y-87439500D01*
X129060538Y-87439490D01*
X129003254Y-87225699D01*
X129003250Y-87225690D01*
X128909707Y-87025085D01*
X128909706Y-87025083D01*
X128863894Y-86959657D01*
X128863894Y-86959656D01*
X128301127Y-87522423D01*
X128285245Y-87463147D01*
X128218102Y-87346853D01*
X128123147Y-87251898D01*
X128006853Y-87184755D01*
X127947575Y-87168872D01*
X128510342Y-86606105D01*
X128510341Y-86606103D01*
X128444919Y-86560295D01*
X128244309Y-86466749D01*
X128244300Y-86466745D01*
X128030509Y-86409461D01*
X128030499Y-86409459D01*
X127810001Y-86390168D01*
X127809999Y-86390168D01*
X127589500Y-86409459D01*
X127589490Y-86409461D01*
X127375699Y-86466745D01*
X127375690Y-86466749D01*
X127175084Y-86560293D01*
X127109657Y-86606104D01*
X127672424Y-87168871D01*
X127613147Y-87184755D01*
X127496853Y-87251898D01*
X127401898Y-87346853D01*
X127334755Y-87463147D01*
X127318871Y-87522424D01*
X126756104Y-86959657D01*
X126710293Y-87025084D01*
X126652657Y-87148683D01*
X126606484Y-87201122D01*
X126539290Y-87220274D01*
X126472409Y-87200058D01*
X126427893Y-87148682D01*
X126370142Y-87024833D01*
X126243132Y-86843445D01*
X126086555Y-86686868D01*
X125905167Y-86559858D01*
X125905163Y-86559856D01*
X125704486Y-86466279D01*
X125704475Y-86466275D01*
X125490592Y-86408965D01*
X125490585Y-86408964D01*
X125270002Y-86389666D01*
X125269998Y-86389666D01*
X125049414Y-86408964D01*
X125049407Y-86408965D01*
X124835524Y-86466275D01*
X124835513Y-86466279D01*
X124634836Y-86559856D01*
X124634834Y-86559857D01*
X124453444Y-86686868D01*
X124453441Y-86686871D01*
X124405879Y-86734434D01*
X124344556Y-86767919D01*
X124274864Y-86762935D01*
X124230517Y-86734434D01*
X123671691Y-86175608D01*
X123671671Y-86175586D01*
X123580226Y-86084141D01*
X123529002Y-86049915D01*
X123477780Y-86015689D01*
X123477779Y-86015688D01*
X123477776Y-86015686D01*
X123477773Y-86015685D01*
X123397285Y-85982347D01*
X123363946Y-85968537D01*
X123353920Y-85966543D01*
X123303522Y-85956518D01*
X123243103Y-85944500D01*
X123243100Y-85944500D01*
X123243099Y-85944500D01*
X110159452Y-85944500D01*
X110092413Y-85924815D01*
X110046658Y-85872011D01*
X110036714Y-85802853D01*
X110065739Y-85739297D01*
X110071771Y-85732819D01*
X110929577Y-84875014D01*
X111925858Y-83878733D01*
X111994312Y-83776285D01*
X112041463Y-83662451D01*
X112062597Y-83556206D01*
X112065501Y-83541608D01*
X112065501Y-83413283D01*
X112065500Y-83413257D01*
X112065500Y-63536561D01*
X112085185Y-63469522D01*
X112137989Y-63423767D01*
X112207147Y-63413823D01*
X112221582Y-63416783D01*
X112349409Y-63451035D01*
X112506974Y-63464820D01*
X112569998Y-63470334D01*
X112570000Y-63470334D01*
X112570002Y-63470334D01*
X112625147Y-63465509D01*
X112790591Y-63451035D01*
X113004480Y-63393723D01*
X113205167Y-63300142D01*
X113386555Y-63173132D01*
X113543132Y-63016555D01*
X113670142Y-62835167D01*
X113727618Y-62711907D01*
X113773790Y-62659468D01*
X113840983Y-62640316D01*
X113907864Y-62660531D01*
X113952381Y-62711907D01*
X114009858Y-62835167D01*
X114136868Y-63016555D01*
X114293445Y-63173132D01*
X114474833Y-63300142D01*
X114526988Y-63324462D01*
X114675513Y-63393720D01*
X114675515Y-63393720D01*
X114675520Y-63393723D01*
X114889409Y-63451035D01*
X115046974Y-63464820D01*
X115109998Y-63470334D01*
X115110000Y-63470334D01*
X115110002Y-63470334D01*
X115165147Y-63465509D01*
X115330591Y-63451035D01*
X115544480Y-63393723D01*
X115745167Y-63300142D01*
X115926555Y-63173132D01*
X116083132Y-63016555D01*
X116210142Y-62835167D01*
X116267618Y-62711907D01*
X116313790Y-62659468D01*
X116380983Y-62640316D01*
X116447864Y-62660531D01*
X116492381Y-62711907D01*
X116549858Y-62835167D01*
X116676868Y-63016555D01*
X116833445Y-63173132D01*
X117014833Y-63300142D01*
X117066988Y-63324462D01*
X117215513Y-63393720D01*
X117215515Y-63393720D01*
X117215520Y-63393723D01*
X117429409Y-63451035D01*
X117586974Y-63464820D01*
X117649998Y-63470334D01*
X117650000Y-63470334D01*
X117650002Y-63470334D01*
X117705147Y-63465509D01*
X117870591Y-63451035D01*
X118084480Y-63393723D01*
X118285167Y-63300142D01*
X118466555Y-63173132D01*
X118623132Y-63016555D01*
X118750142Y-62835167D01*
X118807618Y-62711907D01*
X118853790Y-62659468D01*
X118920983Y-62640316D01*
X118987864Y-62660531D01*
X119032381Y-62711907D01*
X119089858Y-62835167D01*
X119216868Y-63016555D01*
X119373445Y-63173132D01*
X119554833Y-63300142D01*
X119606988Y-63324462D01*
X119755513Y-63393720D01*
X119755515Y-63393720D01*
X119755520Y-63393723D01*
X119969409Y-63451035D01*
X120126974Y-63464820D01*
X120189998Y-63470334D01*
X120190000Y-63470334D01*
X120190002Y-63470334D01*
X120245147Y-63465509D01*
X120410591Y-63451035D01*
X120624480Y-63393723D01*
X120825167Y-63300142D01*
X121006555Y-63173132D01*
X121163132Y-63016555D01*
X121290142Y-62835167D01*
X121347618Y-62711907D01*
X121393790Y-62659468D01*
X121460983Y-62640316D01*
X121527864Y-62660531D01*
X121572381Y-62711907D01*
X121629858Y-62835167D01*
X121756868Y-63016555D01*
X121913445Y-63173132D01*
X122094833Y-63300142D01*
X122146988Y-63324462D01*
X122295513Y-63393720D01*
X122295515Y-63393720D01*
X122295520Y-63393723D01*
X122509409Y-63451035D01*
X122666974Y-63464820D01*
X122729998Y-63470334D01*
X122730000Y-63470334D01*
X122730002Y-63470334D01*
X122785147Y-63465509D01*
X122950591Y-63451035D01*
X123164480Y-63393723D01*
X123365167Y-63300142D01*
X123546555Y-63173132D01*
X123703132Y-63016555D01*
X123830142Y-62835167D01*
X123887895Y-62711312D01*
X123934064Y-62658878D01*
X124001258Y-62639725D01*
X124068139Y-62659940D01*
X124112657Y-62711316D01*
X124170295Y-62834919D01*
X124216103Y-62900341D01*
X124216105Y-62900342D01*
X124778871Y-62337575D01*
X124794755Y-62396853D01*
X124861898Y-62513147D01*
X124956853Y-62608102D01*
X125073147Y-62675245D01*
X125132424Y-62691128D01*
X124569656Y-63253894D01*
X124635083Y-63299706D01*
X124635085Y-63299707D01*
X124835690Y-63393250D01*
X124835699Y-63393254D01*
X125049490Y-63450538D01*
X125049500Y-63450540D01*
X125269999Y-63469832D01*
X125270001Y-63469832D01*
X125490499Y-63450540D01*
X125490509Y-63450538D01*
X125704300Y-63393254D01*
X125704309Y-63393250D01*
X125904915Y-63299706D01*
X125970342Y-63253894D01*
X125407575Y-62691127D01*
X125466853Y-62675245D01*
X125583147Y-62608102D01*
X125678102Y-62513147D01*
X125745245Y-62396853D01*
X125761128Y-62337575D01*
X126323894Y-62900342D01*
X126369707Y-62834914D01*
X126369708Y-62834912D01*
X126427618Y-62710725D01*
X126473790Y-62658285D01*
X126540983Y-62639133D01*
X126607865Y-62659349D01*
X126652382Y-62710725D01*
X126710293Y-62834916D01*
X126710294Y-62834918D01*
X126756103Y-62900341D01*
X126756105Y-62900342D01*
X127318871Y-62337575D01*
X127334755Y-62396853D01*
X127401898Y-62513147D01*
X127496853Y-62608102D01*
X127613147Y-62675245D01*
X127672424Y-62691128D01*
X127109656Y-63253894D01*
X127175083Y-63299706D01*
X127175085Y-63299707D01*
X127375690Y-63393250D01*
X127375699Y-63393254D01*
X127589490Y-63450538D01*
X127589500Y-63450540D01*
X127809999Y-63469832D01*
X127810001Y-63469832D01*
X128030499Y-63450540D01*
X128030509Y-63450538D01*
X128244300Y-63393254D01*
X128244309Y-63393250D01*
X128444915Y-63299706D01*
X128510342Y-63253894D01*
X127947575Y-62691127D01*
X128006853Y-62675245D01*
X128123147Y-62608102D01*
X128218102Y-62513147D01*
X128285245Y-62396853D01*
X128301127Y-62337575D01*
X128863894Y-62900342D01*
X128909706Y-62834915D01*
X129003250Y-62634309D01*
X129003254Y-62634300D01*
X129060538Y-62420509D01*
X129060540Y-62420499D01*
X129079832Y-62200000D01*
X129079832Y-62199999D01*
X129060540Y-61979500D01*
X129060538Y-61979490D01*
X129003254Y-61765699D01*
X129003250Y-61765690D01*
X128909707Y-61565085D01*
X128909706Y-61565083D01*
X128863894Y-61499657D01*
X128863894Y-61499656D01*
X128301127Y-62062423D01*
X128285245Y-62003147D01*
X128218102Y-61886853D01*
X128123147Y-61791898D01*
X128006853Y-61724755D01*
X127947575Y-61708872D01*
X128510342Y-61146105D01*
X128510341Y-61146103D01*
X128444919Y-61100295D01*
X128244309Y-61006749D01*
X128244300Y-61006745D01*
X128030509Y-60949461D01*
X128030499Y-60949459D01*
X127810001Y-60930168D01*
X127809999Y-60930168D01*
X127589500Y-60949459D01*
X127589490Y-60949461D01*
X127375699Y-61006745D01*
X127375690Y-61006749D01*
X127175084Y-61100293D01*
X127109657Y-61146104D01*
X127672424Y-61708871D01*
X127613147Y-61724755D01*
X127496853Y-61791898D01*
X127401898Y-61886853D01*
X127334755Y-62003147D01*
X127318871Y-62062424D01*
X126756104Y-61499657D01*
X126710293Y-61565084D01*
X126652382Y-61689275D01*
X126606210Y-61741714D01*
X126539016Y-61760866D01*
X126472135Y-61740650D01*
X126427618Y-61689275D01*
X126369707Y-61565085D01*
X126369706Y-61565083D01*
X126323894Y-61499657D01*
X126323894Y-61499656D01*
X125761127Y-62062423D01*
X125745245Y-62003147D01*
X125678102Y-61886853D01*
X125583147Y-61791898D01*
X125466853Y-61724755D01*
X125407575Y-61708872D01*
X125970342Y-61146105D01*
X125970341Y-61146103D01*
X125904919Y-61100295D01*
X125704309Y-61006749D01*
X125704300Y-61006745D01*
X125490509Y-60949461D01*
X125490499Y-60949459D01*
X125270001Y-60930168D01*
X125269999Y-60930168D01*
X125049500Y-60949459D01*
X125049490Y-60949461D01*
X124835699Y-61006745D01*
X124835690Y-61006749D01*
X124635084Y-61100293D01*
X124569657Y-61146104D01*
X125132424Y-61708871D01*
X125073147Y-61724755D01*
X124956853Y-61791898D01*
X124861898Y-61886853D01*
X124794755Y-62003147D01*
X124778871Y-62062424D01*
X124216104Y-61499657D01*
X124170293Y-61565084D01*
X124112657Y-61688683D01*
X124066484Y-61741122D01*
X123999290Y-61760274D01*
X123932409Y-61740058D01*
X123887893Y-61688682D01*
X123830142Y-61564833D01*
X123703132Y-61383445D01*
X123546555Y-61226868D01*
X123365167Y-61099858D01*
X123362780Y-61098745D01*
X123164486Y-61006279D01*
X123164475Y-61006275D01*
X122950592Y-60948965D01*
X122950585Y-60948964D01*
X122730002Y-60929666D01*
X122729998Y-60929666D01*
X122509414Y-60948964D01*
X122509407Y-60948965D01*
X122295524Y-61006275D01*
X122295513Y-61006279D01*
X122094836Y-61099856D01*
X122094834Y-61099857D01*
X121913444Y-61226868D01*
X121756868Y-61383444D01*
X121629857Y-61564834D01*
X121629856Y-61564836D01*
X121572382Y-61688091D01*
X121526210Y-61740531D01*
X121459017Y-61759683D01*
X121392135Y-61739467D01*
X121347618Y-61688091D01*
X121318353Y-61625332D01*
X121290142Y-61564833D01*
X121163132Y-61383445D01*
X121006555Y-61226868D01*
X120825167Y-61099858D01*
X120822780Y-61098745D01*
X120624486Y-61006279D01*
X120624475Y-61006275D01*
X120410592Y-60948965D01*
X120410585Y-60948964D01*
X120190002Y-60929666D01*
X120189998Y-60929666D01*
X119969414Y-60948964D01*
X119969407Y-60948965D01*
X119755524Y-61006275D01*
X119755513Y-61006279D01*
X119554836Y-61099856D01*
X119554834Y-61099857D01*
X119373444Y-61226868D01*
X119216868Y-61383444D01*
X119089857Y-61564834D01*
X119089856Y-61564836D01*
X119032382Y-61688091D01*
X118986210Y-61740531D01*
X118919017Y-61759683D01*
X118852135Y-61739467D01*
X118807618Y-61688091D01*
X118778353Y-61625332D01*
X118750142Y-61564833D01*
X118623132Y-61383445D01*
X118466555Y-61226868D01*
X118285167Y-61099858D01*
X118282780Y-61098745D01*
X118084486Y-61006279D01*
X118084475Y-61006275D01*
X117870592Y-60948965D01*
X117870585Y-60948964D01*
X117650002Y-60929666D01*
X117649998Y-60929666D01*
X117429414Y-60948964D01*
X117429407Y-60948965D01*
X117215524Y-61006275D01*
X117215513Y-61006279D01*
X117014836Y-61099856D01*
X117014828Y-61099860D01*
X116853126Y-61213086D01*
X116786920Y-61235413D01*
X116719153Y-61218403D01*
X116671340Y-61167455D01*
X116658662Y-61098745D01*
X116660384Y-61087327D01*
X116665501Y-61061606D01*
X116665501Y-60938393D01*
X116665501Y-60933283D01*
X116665500Y-60933257D01*
X116665500Y-56775226D01*
X116685185Y-56708187D01*
X116718374Y-56673654D01*
X116911401Y-56538495D01*
X117078495Y-56371401D01*
X117208425Y-56185842D01*
X117263002Y-56142217D01*
X117332500Y-56135023D01*
X117394855Y-56166546D01*
X117411575Y-56185842D01*
X117541500Y-56371395D01*
X117541505Y-56371401D01*
X117708599Y-56538495D01*
X117805384Y-56606265D01*
X117902165Y-56674032D01*
X117902167Y-56674033D01*
X117902170Y-56674035D01*
X118116337Y-56773903D01*
X118116343Y-56773904D01*
X118116344Y-56773905D01*
X118171285Y-56788626D01*
X118344592Y-56835063D01*
X118521034Y-56850500D01*
X118579999Y-56855659D01*
X118580000Y-56855659D01*
X118580001Y-56855659D01*
X118638966Y-56850500D01*
X118815408Y-56835063D01*
X119043663Y-56773903D01*
X119257830Y-56674035D01*
X119451401Y-56538495D01*
X119618495Y-56371401D01*
X119754035Y-56177830D01*
X119853903Y-55963663D01*
X119915063Y-55735408D01*
X119935659Y-55500000D01*
X119935659Y-55499999D01*
X121604341Y-55499999D01*
X121604341Y-55500000D01*
X121624936Y-55735403D01*
X121624938Y-55735413D01*
X121686094Y-55963655D01*
X121686096Y-55963659D01*
X121686097Y-55963663D01*
X121700021Y-55993522D01*
X121785965Y-56177830D01*
X121785967Y-56177834D01*
X121894281Y-56332521D01*
X121921505Y-56371401D01*
X122088599Y-56538495D01*
X122185384Y-56606265D01*
X122282165Y-56674032D01*
X122282167Y-56674033D01*
X122282170Y-56674035D01*
X122496337Y-56773903D01*
X122496343Y-56773904D01*
X122496344Y-56773905D01*
X122551285Y-56788626D01*
X122724592Y-56835063D01*
X122901034Y-56850500D01*
X122959999Y-56855659D01*
X122960000Y-56855659D01*
X122960001Y-56855659D01*
X123018966Y-56850500D01*
X123195408Y-56835063D01*
X123423663Y-56773903D01*
X123637830Y-56674035D01*
X123831401Y-56538495D01*
X123953329Y-56416566D01*
X124014648Y-56383084D01*
X124084340Y-56388068D01*
X124140274Y-56429939D01*
X124157189Y-56460917D01*
X124206202Y-56592328D01*
X124206206Y-56592335D01*
X124292452Y-56707544D01*
X124292455Y-56707547D01*
X124407664Y-56793793D01*
X124407671Y-56793797D01*
X124542517Y-56844091D01*
X124542516Y-56844091D01*
X124549444Y-56844835D01*
X124602127Y-56850500D01*
X126397872Y-56850499D01*
X126457483Y-56844091D01*
X126592331Y-56793796D01*
X126707546Y-56707546D01*
X126756498Y-56642155D01*
X130570000Y-56642155D01*
X130570000Y-57290000D01*
X131486988Y-57290000D01*
X131454075Y-57347007D01*
X131420000Y-57474174D01*
X131420000Y-57605826D01*
X131454075Y-57732993D01*
X131486988Y-57790000D01*
X130570000Y-57790000D01*
X130570000Y-58437844D01*
X130576401Y-58497372D01*
X130576403Y-58497379D01*
X130626645Y-58632086D01*
X130626649Y-58632093D01*
X130712809Y-58747187D01*
X130712812Y-58747190D01*
X130827906Y-58833350D01*
X130827913Y-58833354D01*
X130962620Y-58883596D01*
X130962627Y-58883598D01*
X131022155Y-58889999D01*
X131022172Y-58890000D01*
X131670000Y-58890000D01*
X131670000Y-57973012D01*
X131727007Y-58005925D01*
X131854174Y-58040000D01*
X131985826Y-58040000D01*
X132112993Y-58005925D01*
X132170000Y-57973012D01*
X132170000Y-58890000D01*
X132817828Y-58890000D01*
X132817844Y-58889999D01*
X132877372Y-58883598D01*
X132877379Y-58883596D01*
X133012086Y-58833354D01*
X133012093Y-58833350D01*
X133127187Y-58747190D01*
X133127190Y-58747187D01*
X133213350Y-58632093D01*
X133213354Y-58632086D01*
X133262614Y-58500013D01*
X133304485Y-58444079D01*
X133369949Y-58419662D01*
X133438222Y-58434513D01*
X133466477Y-58455665D01*
X133588917Y-58578105D01*
X133782421Y-58713600D01*
X133996507Y-58813429D01*
X133996516Y-58813433D01*
X134210000Y-58870634D01*
X134210000Y-57973012D01*
X134267007Y-58005925D01*
X134394174Y-58040000D01*
X134525826Y-58040000D01*
X134652993Y-58005925D01*
X134710000Y-57973012D01*
X134710000Y-58870633D01*
X134923483Y-58813433D01*
X134923492Y-58813429D01*
X135137578Y-58713600D01*
X135331082Y-58578105D01*
X135498105Y-58411082D01*
X135628425Y-58224968D01*
X135683002Y-58181344D01*
X135752501Y-58174151D01*
X135814855Y-58205673D01*
X135831575Y-58224968D01*
X135961894Y-58411082D01*
X136128917Y-58578105D01*
X136322421Y-58713600D01*
X136536507Y-58813429D01*
X136536516Y-58813433D01*
X136750000Y-58870634D01*
X136750000Y-57973012D01*
X136807007Y-58005925D01*
X136934174Y-58040000D01*
X137065826Y-58040000D01*
X137192993Y-58005925D01*
X137250000Y-57973012D01*
X137250000Y-58870633D01*
X137463483Y-58813433D01*
X137463492Y-58813429D01*
X137677578Y-58713600D01*
X137871082Y-58578105D01*
X138038105Y-58411082D01*
X138173600Y-58217578D01*
X138273429Y-58003492D01*
X138273432Y-58003486D01*
X138330636Y-57790000D01*
X137433012Y-57790000D01*
X137465925Y-57732993D01*
X137500000Y-57605826D01*
X137500000Y-57474174D01*
X137465925Y-57347007D01*
X137433012Y-57290000D01*
X138330636Y-57290000D01*
X138330635Y-57289999D01*
X138273432Y-57076513D01*
X138273429Y-57076507D01*
X138173600Y-56862422D01*
X138173599Y-56862420D01*
X138038113Y-56668926D01*
X138038108Y-56668920D01*
X137871082Y-56501894D01*
X137684968Y-56371575D01*
X137641344Y-56316998D01*
X137634151Y-56247499D01*
X137665673Y-56185145D01*
X137684968Y-56168425D01*
X137871082Y-56038105D01*
X138038105Y-55871082D01*
X138173600Y-55677578D01*
X138273429Y-55463492D01*
X138273432Y-55463486D01*
X138330636Y-55250000D01*
X137433012Y-55250000D01*
X137465925Y-55192993D01*
X137500000Y-55065826D01*
X137500000Y-54934174D01*
X137465925Y-54807007D01*
X137433012Y-54750000D01*
X138330636Y-54750000D01*
X138330635Y-54749999D01*
X138273432Y-54536513D01*
X138273429Y-54536507D01*
X138173600Y-54322422D01*
X138173599Y-54322420D01*
X138038113Y-54128926D01*
X138038108Y-54128920D01*
X137871082Y-53961894D01*
X137677578Y-53826399D01*
X137463492Y-53726570D01*
X137463486Y-53726567D01*
X137250000Y-53669364D01*
X137250000Y-54566988D01*
X137192993Y-54534075D01*
X137065826Y-54500000D01*
X136934174Y-54500000D01*
X136807007Y-54534075D01*
X136750000Y-54566988D01*
X136750000Y-53669364D01*
X136749999Y-53669364D01*
X136536513Y-53726567D01*
X136536507Y-53726570D01*
X136322422Y-53826399D01*
X136322420Y-53826400D01*
X136128926Y-53961886D01*
X136128920Y-53961891D01*
X135961891Y-54128920D01*
X135961890Y-54128922D01*
X135831575Y-54315031D01*
X135776998Y-54358655D01*
X135707499Y-54365848D01*
X135645145Y-54334326D01*
X135628425Y-54315031D01*
X135498109Y-54128922D01*
X135498108Y-54128920D01*
X135331082Y-53961894D01*
X135137578Y-53826399D01*
X134923492Y-53726570D01*
X134923486Y-53726567D01*
X134710000Y-53669364D01*
X134710000Y-54566988D01*
X134652993Y-54534075D01*
X134525826Y-54500000D01*
X134394174Y-54500000D01*
X134267007Y-54534075D01*
X134210000Y-54566988D01*
X134210000Y-53669364D01*
X134209999Y-53669364D01*
X133996513Y-53726567D01*
X133996507Y-53726570D01*
X133782422Y-53826399D01*
X133782420Y-53826400D01*
X133588926Y-53961886D01*
X133588920Y-53961891D01*
X133421891Y-54128920D01*
X133421890Y-54128922D01*
X133291575Y-54315031D01*
X133236998Y-54358655D01*
X133167499Y-54365848D01*
X133105145Y-54334326D01*
X133088425Y-54315031D01*
X132958109Y-54128922D01*
X132958108Y-54128920D01*
X132791082Y-53961894D01*
X132597578Y-53826399D01*
X132383492Y-53726570D01*
X132383486Y-53726567D01*
X132170000Y-53669364D01*
X132170000Y-54566988D01*
X132112993Y-54534075D01*
X131985826Y-54500000D01*
X131854174Y-54500000D01*
X131727007Y-54534075D01*
X131670000Y-54566988D01*
X131670000Y-53669364D01*
X131669999Y-53669364D01*
X131456513Y-53726567D01*
X131456507Y-53726570D01*
X131242422Y-53826399D01*
X131242420Y-53826400D01*
X131048926Y-53961886D01*
X131048920Y-53961891D01*
X130881891Y-54128920D01*
X130881886Y-54128926D01*
X130746400Y-54322420D01*
X130746399Y-54322422D01*
X130646570Y-54536507D01*
X130646567Y-54536513D01*
X130589364Y-54749999D01*
X130589364Y-54750000D01*
X131486988Y-54750000D01*
X131454075Y-54807007D01*
X131420000Y-54934174D01*
X131420000Y-55065826D01*
X131454075Y-55192993D01*
X131486988Y-55250000D01*
X130589364Y-55250000D01*
X130646567Y-55463486D01*
X130646570Y-55463492D01*
X130746399Y-55677578D01*
X130881894Y-55871082D01*
X131004334Y-55993522D01*
X131037819Y-56054845D01*
X131032835Y-56124537D01*
X130990963Y-56180470D01*
X130959987Y-56197385D01*
X130827911Y-56246646D01*
X130827906Y-56246649D01*
X130712812Y-56332809D01*
X130712809Y-56332812D01*
X130626649Y-56447906D01*
X130626645Y-56447913D01*
X130576403Y-56582620D01*
X130576401Y-56582627D01*
X130570000Y-56642155D01*
X126756498Y-56642155D01*
X126793796Y-56592331D01*
X126844091Y-56457483D01*
X126850500Y-56397873D01*
X126850499Y-54602128D01*
X126844091Y-54542517D01*
X126842810Y-54539083D01*
X126793797Y-54407671D01*
X126793793Y-54407664D01*
X126707547Y-54292455D01*
X126707544Y-54292452D01*
X126592335Y-54206206D01*
X126592328Y-54206202D01*
X126457482Y-54155908D01*
X126457483Y-54155908D01*
X126397883Y-54149501D01*
X126397881Y-54149500D01*
X126397873Y-54149500D01*
X126397864Y-54149500D01*
X124602129Y-54149500D01*
X124602123Y-54149501D01*
X124542516Y-54155908D01*
X124407671Y-54206202D01*
X124407664Y-54206206D01*
X124292455Y-54292452D01*
X124292452Y-54292455D01*
X124206206Y-54407664D01*
X124206203Y-54407669D01*
X124157189Y-54539083D01*
X124115317Y-54595016D01*
X124049853Y-54619433D01*
X123981580Y-54604581D01*
X123953326Y-54583430D01*
X123831402Y-54461506D01*
X123831395Y-54461501D01*
X123637834Y-54325967D01*
X123637830Y-54325965D01*
X123614382Y-54315031D01*
X123423663Y-54226097D01*
X123423659Y-54226096D01*
X123423655Y-54226094D01*
X123195413Y-54164938D01*
X123195403Y-54164936D01*
X122960001Y-54144341D01*
X122959999Y-54144341D01*
X122724596Y-54164936D01*
X122724586Y-54164938D01*
X122496344Y-54226094D01*
X122496335Y-54226098D01*
X122282171Y-54325964D01*
X122282169Y-54325965D01*
X122088597Y-54461505D01*
X121921505Y-54628597D01*
X121785965Y-54822169D01*
X121785964Y-54822171D01*
X121686098Y-55036335D01*
X121686094Y-55036344D01*
X121624938Y-55264586D01*
X121624936Y-55264596D01*
X121604341Y-55499999D01*
X119935659Y-55499999D01*
X119915063Y-55264592D01*
X119868626Y-55091285D01*
X119853905Y-55036344D01*
X119853904Y-55036343D01*
X119853903Y-55036337D01*
X119754035Y-54822171D01*
X119748425Y-54814158D01*
X119618494Y-54628597D01*
X119451402Y-54461506D01*
X119451395Y-54461501D01*
X119257834Y-54325967D01*
X119257830Y-54325965D01*
X119234382Y-54315031D01*
X119043663Y-54226097D01*
X119043659Y-54226096D01*
X119043655Y-54226094D01*
X118815413Y-54164938D01*
X118815403Y-54164936D01*
X118580001Y-54144341D01*
X118579999Y-54144341D01*
X118344596Y-54164936D01*
X118344586Y-54164938D01*
X118244126Y-54191856D01*
X118174276Y-54190193D01*
X118124352Y-54159762D01*
X117895198Y-53930608D01*
X117895178Y-53930586D01*
X117803733Y-53839141D01*
X117752509Y-53804915D01*
X117701287Y-53770689D01*
X117701286Y-53770688D01*
X117701283Y-53770686D01*
X117701280Y-53770685D01*
X117620792Y-53737347D01*
X117587453Y-53723537D01*
X117577427Y-53721543D01*
X117527029Y-53711518D01*
X117466610Y-53699500D01*
X117466607Y-53699500D01*
X117466606Y-53699500D01*
X115614905Y-53699500D01*
X115491692Y-53699500D01*
X115491688Y-53699500D01*
X115431270Y-53711518D01*
X115388042Y-53720116D01*
X115370845Y-53723537D01*
X115257011Y-53770689D01*
X115257005Y-53770693D01*
X115154565Y-53839142D01*
X115154561Y-53839145D01*
X114539181Y-54454526D01*
X114477858Y-54488011D01*
X114408166Y-54483027D01*
X114376044Y-54464311D01*
X114375836Y-54464610D01*
X114372264Y-54462109D01*
X114371799Y-54461838D01*
X114371404Y-54461507D01*
X114177834Y-54325967D01*
X114177830Y-54325965D01*
X114154382Y-54315031D01*
X113963663Y-54226097D01*
X113963659Y-54226096D01*
X113963655Y-54226094D01*
X113735413Y-54164938D01*
X113735403Y-54164936D01*
X113500001Y-54144341D01*
X113499999Y-54144341D01*
X113264596Y-54164936D01*
X113264586Y-54164938D01*
X113036344Y-54226094D01*
X113036335Y-54226098D01*
X112822171Y-54325964D01*
X112822169Y-54325965D01*
X112628600Y-54461503D01*
X112506673Y-54583430D01*
X112445350Y-54616914D01*
X112375658Y-54611930D01*
X112319725Y-54570058D01*
X112302810Y-54539081D01*
X112253797Y-54407671D01*
X112253793Y-54407664D01*
X112167547Y-54292455D01*
X112167544Y-54292452D01*
X112052335Y-54206206D01*
X112052328Y-54206202D01*
X111917482Y-54155908D01*
X111917483Y-54155908D01*
X111857883Y-54149501D01*
X111857881Y-54149500D01*
X111857873Y-54149500D01*
X111857864Y-54149500D01*
X110062129Y-54149500D01*
X110062123Y-54149501D01*
X110002516Y-54155908D01*
X109867671Y-54206202D01*
X109867664Y-54206206D01*
X109752455Y-54292452D01*
X109752452Y-54292455D01*
X109666206Y-54407664D01*
X109666202Y-54407671D01*
X109615908Y-54542517D01*
X109609739Y-54599901D01*
X109609501Y-54602123D01*
X109609500Y-54602135D01*
X109609500Y-56397870D01*
X109609501Y-56397876D01*
X109615908Y-56457483D01*
X109666202Y-56592328D01*
X109666206Y-56592335D01*
X109752452Y-56707544D01*
X109752455Y-56707547D01*
X109867664Y-56793793D01*
X109867671Y-56793797D01*
X109869264Y-56794391D01*
X110002517Y-56844091D01*
X110062127Y-56850500D01*
X110210500Y-56850499D01*
X110277539Y-56870183D01*
X110323294Y-56922987D01*
X110334500Y-56974499D01*
X110334500Y-60689546D01*
X110314815Y-60756585D01*
X110298181Y-60777228D01*
X110177317Y-60898091D01*
X110115994Y-60931575D01*
X110078831Y-60933937D01*
X110030005Y-60929666D01*
X110029998Y-60929666D01*
X109809414Y-60948964D01*
X109809407Y-60948965D01*
X109595524Y-61006275D01*
X109595513Y-61006279D01*
X109394836Y-61099856D01*
X109394834Y-61099857D01*
X109213444Y-61226868D01*
X109056868Y-61383444D01*
X108929857Y-61564834D01*
X108929856Y-61564836D01*
X108872382Y-61688091D01*
X108826210Y-61740531D01*
X108759017Y-61759683D01*
X108692135Y-61739467D01*
X108647618Y-61688091D01*
X108618353Y-61625332D01*
X108590142Y-61564833D01*
X108463132Y-61383445D01*
X108306555Y-61226868D01*
X108125167Y-61099858D01*
X108122780Y-61098745D01*
X107924486Y-61006279D01*
X107924475Y-61006275D01*
X107710592Y-60948965D01*
X107710585Y-60948964D01*
X107490002Y-60929666D01*
X107489998Y-60929666D01*
X107269414Y-60948964D01*
X107269407Y-60948965D01*
X107055524Y-61006275D01*
X107055513Y-61006279D01*
X106854836Y-61099856D01*
X106854834Y-61099857D01*
X106673444Y-61226868D01*
X106516868Y-61383444D01*
X106389857Y-61564834D01*
X106389856Y-61564836D01*
X106332382Y-61688091D01*
X106286210Y-61740531D01*
X106219017Y-61759683D01*
X106152135Y-61739467D01*
X106107618Y-61688091D01*
X106078353Y-61625332D01*
X106050142Y-61564833D01*
X105923132Y-61383445D01*
X105766555Y-61226868D01*
X105585167Y-61099858D01*
X105582780Y-61098745D01*
X105384486Y-61006279D01*
X105384475Y-61006275D01*
X105170592Y-60948965D01*
X105170585Y-60948964D01*
X104950002Y-60929666D01*
X104949998Y-60929666D01*
X104729414Y-60948964D01*
X104729407Y-60948965D01*
X104515524Y-61006275D01*
X104515513Y-61006279D01*
X104314836Y-61099856D01*
X104314834Y-61099857D01*
X104133444Y-61226868D01*
X103976868Y-61383444D01*
X103849857Y-61564834D01*
X103849856Y-61564836D01*
X103792382Y-61688091D01*
X103746210Y-61740531D01*
X103679017Y-61759683D01*
X103612135Y-61739467D01*
X103567618Y-61688091D01*
X103538353Y-61625332D01*
X103510142Y-61564833D01*
X103383132Y-61383445D01*
X103226555Y-61226868D01*
X103045167Y-61099858D01*
X103042780Y-61098745D01*
X102844486Y-61006279D01*
X102844475Y-61006275D01*
X102630592Y-60948965D01*
X102630585Y-60948964D01*
X102410002Y-60929666D01*
X102409998Y-60929666D01*
X102189414Y-60948964D01*
X102189407Y-60948965D01*
X101975524Y-61006275D01*
X101975513Y-61006279D01*
X101774836Y-61099856D01*
X101774834Y-61099857D01*
X101593444Y-61226868D01*
X101436868Y-61383444D01*
X101309857Y-61564834D01*
X101309856Y-61564836D01*
X101252382Y-61688091D01*
X101206210Y-61740531D01*
X101139017Y-61759683D01*
X101072135Y-61739467D01*
X101027618Y-61688091D01*
X100998353Y-61625332D01*
X100970142Y-61564833D01*
X100843132Y-61383445D01*
X100686555Y-61226868D01*
X100505167Y-61099858D01*
X100502780Y-61098745D01*
X100304486Y-61006279D01*
X100304475Y-61006275D01*
X100090592Y-60948965D01*
X100090585Y-60948964D01*
X99870002Y-60929666D01*
X99869998Y-60929666D01*
X99649414Y-60948964D01*
X99649407Y-60948965D01*
X99435524Y-61006275D01*
X99435513Y-61006279D01*
X99234836Y-61099856D01*
X99234834Y-61099857D01*
X99053444Y-61226868D01*
X98896868Y-61383444D01*
X98769857Y-61564834D01*
X98769856Y-61564836D01*
X98712382Y-61688091D01*
X98666210Y-61740531D01*
X98599017Y-61759683D01*
X98532135Y-61739467D01*
X98487618Y-61688091D01*
X98458353Y-61625332D01*
X98430142Y-61564833D01*
X98303132Y-61383445D01*
X98146555Y-61226868D01*
X97965167Y-61099858D01*
X97962780Y-61098745D01*
X97764486Y-61006279D01*
X97764475Y-61006275D01*
X97550592Y-60948965D01*
X97550585Y-60948964D01*
X97330002Y-60929666D01*
X97329998Y-60929666D01*
X97109414Y-60948964D01*
X97109407Y-60948965D01*
X96895524Y-61006275D01*
X96895513Y-61006279D01*
X96694836Y-61099856D01*
X96694834Y-61099857D01*
X96513444Y-61226868D01*
X96356868Y-61383444D01*
X96229857Y-61564834D01*
X96229856Y-61564836D01*
X96172382Y-61688091D01*
X96126210Y-61740531D01*
X96059017Y-61759683D01*
X95992135Y-61739467D01*
X95947618Y-61688091D01*
X95918353Y-61625332D01*
X95890142Y-61564833D01*
X95763132Y-61383445D01*
X95606555Y-61226868D01*
X95425167Y-61099858D01*
X95422780Y-61098745D01*
X95224486Y-61006279D01*
X95224475Y-61006275D01*
X95010592Y-60948965D01*
X95010585Y-60948964D01*
X94790002Y-60929666D01*
X94789998Y-60929666D01*
X94569414Y-60948964D01*
X94569407Y-60948965D01*
X94355524Y-61006275D01*
X94355513Y-61006279D01*
X94154836Y-61099856D01*
X94154834Y-61099857D01*
X93973444Y-61226868D01*
X93816868Y-61383444D01*
X93689857Y-61564834D01*
X93689856Y-61564836D01*
X93632382Y-61688091D01*
X93586210Y-61740531D01*
X93519017Y-61759683D01*
X93452135Y-61739467D01*
X93407618Y-61688091D01*
X93378353Y-61625332D01*
X93350142Y-61564833D01*
X93223132Y-61383445D01*
X93066555Y-61226868D01*
X92885167Y-61099858D01*
X92882780Y-61098745D01*
X92684486Y-61006279D01*
X92684475Y-61006275D01*
X92470592Y-60948965D01*
X92470585Y-60948964D01*
X92250002Y-60929666D01*
X92249998Y-60929666D01*
X92029414Y-60948964D01*
X92029407Y-60948965D01*
X91815524Y-61006275D01*
X91815513Y-61006279D01*
X91614836Y-61099856D01*
X91614834Y-61099857D01*
X91433444Y-61226868D01*
X91276868Y-61383444D01*
X91149857Y-61564834D01*
X91149856Y-61564836D01*
X91092382Y-61688091D01*
X91046210Y-61740531D01*
X90979017Y-61759683D01*
X90912135Y-61739467D01*
X90867618Y-61688091D01*
X90838353Y-61625332D01*
X90810142Y-61564833D01*
X90683132Y-61383445D01*
X90526555Y-61226868D01*
X90345167Y-61099858D01*
X90342780Y-61098745D01*
X90144486Y-61006279D01*
X90144475Y-61006275D01*
X89930592Y-60948965D01*
X89930585Y-60948964D01*
X89710002Y-60929666D01*
X89709998Y-60929666D01*
X89489414Y-60948964D01*
X89489407Y-60948965D01*
X89275524Y-61006275D01*
X89275513Y-61006279D01*
X89074836Y-61099856D01*
X89074834Y-61099857D01*
X88893444Y-61226868D01*
X88736868Y-61383444D01*
X88609857Y-61564834D01*
X88609856Y-61564836D01*
X88552382Y-61688091D01*
X88506210Y-61740531D01*
X88439017Y-61759683D01*
X88372135Y-61739467D01*
X88327618Y-61688091D01*
X88298353Y-61625332D01*
X88270142Y-61564833D01*
X88143132Y-61383445D01*
X87986555Y-61226868D01*
X87805167Y-61099858D01*
X87802780Y-61098745D01*
X87604486Y-61006279D01*
X87604475Y-61006275D01*
X87390592Y-60948965D01*
X87390585Y-60948964D01*
X87170002Y-60929666D01*
X87169998Y-60929666D01*
X86949414Y-60948964D01*
X86949407Y-60948965D01*
X86735524Y-61006275D01*
X86735513Y-61006279D01*
X86534836Y-61099856D01*
X86534834Y-61099857D01*
X86353444Y-61226868D01*
X86196868Y-61383444D01*
X86069857Y-61564834D01*
X86069856Y-61564836D01*
X86012382Y-61688091D01*
X85966210Y-61740531D01*
X85899017Y-61759683D01*
X85832135Y-61739467D01*
X85787618Y-61688091D01*
X85758353Y-61625332D01*
X85730142Y-61564833D01*
X85603132Y-61383445D01*
X85446555Y-61226868D01*
X85265167Y-61099858D01*
X85262780Y-61098745D01*
X85064486Y-61006279D01*
X85064475Y-61006275D01*
X84850592Y-60948965D01*
X84850585Y-60948964D01*
X84630002Y-60929666D01*
X84629998Y-60929666D01*
X84409414Y-60948964D01*
X84409407Y-60948965D01*
X84195524Y-61006275D01*
X84195513Y-61006279D01*
X83994836Y-61099856D01*
X83994834Y-61099857D01*
X83813444Y-61226868D01*
X83656868Y-61383444D01*
X83529857Y-61564834D01*
X83529856Y-61564836D01*
X83472382Y-61688091D01*
X83426210Y-61740531D01*
X83359017Y-61759683D01*
X83292135Y-61739467D01*
X83247618Y-61688091D01*
X83218353Y-61625332D01*
X83190142Y-61564833D01*
X83063132Y-61383445D01*
X82906555Y-61226868D01*
X82725167Y-61099858D01*
X82722780Y-61098745D01*
X82524486Y-61006279D01*
X82524475Y-61006275D01*
X82310592Y-60948965D01*
X82310585Y-60948964D01*
X82090002Y-60929666D01*
X82089998Y-60929666D01*
X81869414Y-60948964D01*
X81869407Y-60948965D01*
X81655524Y-61006275D01*
X81655513Y-61006279D01*
X81454836Y-61099856D01*
X81454834Y-61099857D01*
X81273444Y-61226868D01*
X81116868Y-61383444D01*
X80989857Y-61564834D01*
X80989856Y-61564836D01*
X80932382Y-61688091D01*
X80886210Y-61740531D01*
X80819017Y-61759683D01*
X80752135Y-61739467D01*
X80707618Y-61688091D01*
X80678353Y-61625332D01*
X80650142Y-61564833D01*
X80523132Y-61383445D01*
X80366555Y-61226868D01*
X80185167Y-61099858D01*
X80185165Y-61099857D01*
X80180732Y-61096753D01*
X80181796Y-61095232D01*
X80139271Y-61050610D01*
X80125500Y-60993817D01*
X80125500Y-56775226D01*
X80145185Y-56708187D01*
X80178374Y-56673654D01*
X80371401Y-56538495D01*
X80538495Y-56371401D01*
X80674035Y-56177830D01*
X80773903Y-55963663D01*
X80835063Y-55735408D01*
X80855659Y-55500000D01*
X80855659Y-55499999D01*
X85104341Y-55499999D01*
X85104341Y-55500000D01*
X85124936Y-55735403D01*
X85124938Y-55735413D01*
X85186094Y-55963655D01*
X85186096Y-55963659D01*
X85186097Y-55963663D01*
X85200021Y-55993522D01*
X85285965Y-56177830D01*
X85285967Y-56177834D01*
X85394281Y-56332521D01*
X85421505Y-56371401D01*
X85588599Y-56538495D01*
X85685384Y-56606265D01*
X85782165Y-56674032D01*
X85782167Y-56674033D01*
X85782170Y-56674035D01*
X85996337Y-56773903D01*
X85996343Y-56773904D01*
X85996344Y-56773905D01*
X86051285Y-56788626D01*
X86224592Y-56835063D01*
X86401034Y-56850500D01*
X86459999Y-56855659D01*
X86460000Y-56855659D01*
X86460001Y-56855659D01*
X86518966Y-56850500D01*
X86695408Y-56835063D01*
X86923663Y-56773903D01*
X87137830Y-56674035D01*
X87331401Y-56538495D01*
X87498495Y-56371401D01*
X87628425Y-56185842D01*
X87683002Y-56142217D01*
X87752500Y-56135023D01*
X87814855Y-56166546D01*
X87831575Y-56185842D01*
X87961500Y-56371395D01*
X87961505Y-56371401D01*
X88128599Y-56538495D01*
X88225384Y-56606265D01*
X88322165Y-56674032D01*
X88322167Y-56674033D01*
X88322170Y-56674035D01*
X88536337Y-56773903D01*
X88536343Y-56773904D01*
X88536344Y-56773905D01*
X88591285Y-56788626D01*
X88764592Y-56835063D01*
X88941034Y-56850500D01*
X88999999Y-56855659D01*
X89000000Y-56855659D01*
X89000001Y-56855659D01*
X89058966Y-56850500D01*
X89235408Y-56835063D01*
X89463663Y-56773903D01*
X89677830Y-56674035D01*
X89871401Y-56538495D01*
X90038495Y-56371401D01*
X90168425Y-56185842D01*
X90223002Y-56142217D01*
X90292500Y-56135023D01*
X90354855Y-56166546D01*
X90371575Y-56185842D01*
X90501500Y-56371395D01*
X90501505Y-56371401D01*
X90668599Y-56538495D01*
X90765384Y-56606265D01*
X90862165Y-56674032D01*
X90862167Y-56674033D01*
X90862170Y-56674035D01*
X91076337Y-56773903D01*
X91076343Y-56773904D01*
X91076344Y-56773905D01*
X91131285Y-56788626D01*
X91304592Y-56835063D01*
X91481034Y-56850500D01*
X91539999Y-56855659D01*
X91540000Y-56855659D01*
X91540001Y-56855659D01*
X91598966Y-56850500D01*
X91775408Y-56835063D01*
X92003663Y-56773903D01*
X92217830Y-56674035D01*
X92411401Y-56538495D01*
X92533329Y-56416566D01*
X92594648Y-56383084D01*
X92664340Y-56388068D01*
X92720274Y-56429939D01*
X92737189Y-56460917D01*
X92786202Y-56592328D01*
X92786206Y-56592335D01*
X92872452Y-56707544D01*
X92872455Y-56707547D01*
X92987664Y-56793793D01*
X92987671Y-56793797D01*
X93122517Y-56844091D01*
X93122516Y-56844091D01*
X93129444Y-56844835D01*
X93182127Y-56850500D01*
X94977872Y-56850499D01*
X95037483Y-56844091D01*
X95172331Y-56793796D01*
X95287546Y-56707546D01*
X95373796Y-56592331D01*
X95424091Y-56457483D01*
X95430500Y-56397873D01*
X95430499Y-55499999D01*
X96564341Y-55499999D01*
X96564341Y-55500000D01*
X96584936Y-55735403D01*
X96584938Y-55735413D01*
X96646094Y-55963655D01*
X96646096Y-55963659D01*
X96646097Y-55963663D01*
X96660021Y-55993522D01*
X96745965Y-56177830D01*
X96745967Y-56177834D01*
X96854281Y-56332521D01*
X96881505Y-56371401D01*
X97048599Y-56538495D01*
X97145384Y-56606265D01*
X97242165Y-56674032D01*
X97242167Y-56674033D01*
X97242170Y-56674035D01*
X97456337Y-56773903D01*
X97456343Y-56773904D01*
X97456344Y-56773905D01*
X97511285Y-56788626D01*
X97684592Y-56835063D01*
X97861034Y-56850500D01*
X97919999Y-56855659D01*
X97920000Y-56855659D01*
X97920001Y-56855659D01*
X97978966Y-56850500D01*
X98155408Y-56835063D01*
X98383663Y-56773903D01*
X98597830Y-56674035D01*
X98791401Y-56538495D01*
X98958495Y-56371401D01*
X99088425Y-56185842D01*
X99143002Y-56142217D01*
X99212500Y-56135023D01*
X99274855Y-56166546D01*
X99291575Y-56185842D01*
X99421500Y-56371395D01*
X99421505Y-56371401D01*
X99588599Y-56538495D01*
X99685384Y-56606265D01*
X99782165Y-56674032D01*
X99782167Y-56674033D01*
X99782170Y-56674035D01*
X99996337Y-56773903D01*
X99996343Y-56773904D01*
X99996344Y-56773905D01*
X100051285Y-56788626D01*
X100224592Y-56835063D01*
X100401034Y-56850500D01*
X100459999Y-56855659D01*
X100460000Y-56855659D01*
X100460001Y-56855659D01*
X100518966Y-56850500D01*
X100695408Y-56835063D01*
X100923663Y-56773903D01*
X101137830Y-56674035D01*
X101331401Y-56538495D01*
X101498495Y-56371401D01*
X101628425Y-56185842D01*
X101683002Y-56142217D01*
X101752500Y-56135023D01*
X101814855Y-56166546D01*
X101831575Y-56185842D01*
X101961500Y-56371395D01*
X101961505Y-56371401D01*
X102128599Y-56538495D01*
X102225384Y-56606265D01*
X102322165Y-56674032D01*
X102322167Y-56674033D01*
X102322170Y-56674035D01*
X102536337Y-56773903D01*
X102536343Y-56773904D01*
X102536344Y-56773905D01*
X102591285Y-56788626D01*
X102764592Y-56835063D01*
X102941034Y-56850500D01*
X102999999Y-56855659D01*
X103000000Y-56855659D01*
X103000001Y-56855659D01*
X103058966Y-56850500D01*
X103235408Y-56835063D01*
X103463663Y-56773903D01*
X103677830Y-56674035D01*
X103871401Y-56538495D01*
X103993329Y-56416566D01*
X104054648Y-56383084D01*
X104124340Y-56388068D01*
X104180274Y-56429939D01*
X104197189Y-56460917D01*
X104246202Y-56592328D01*
X104246206Y-56592335D01*
X104332452Y-56707544D01*
X104332455Y-56707547D01*
X104447664Y-56793793D01*
X104447671Y-56793797D01*
X104582517Y-56844091D01*
X104582516Y-56844091D01*
X104589444Y-56844835D01*
X104642127Y-56850500D01*
X106437872Y-56850499D01*
X106497483Y-56844091D01*
X106632331Y-56793796D01*
X106747546Y-56707546D01*
X106833796Y-56592331D01*
X106884091Y-56457483D01*
X106890500Y-56397873D01*
X106890499Y-54602128D01*
X106884091Y-54542517D01*
X106882810Y-54539083D01*
X106833797Y-54407671D01*
X106833793Y-54407664D01*
X106747547Y-54292455D01*
X106747544Y-54292452D01*
X106632335Y-54206206D01*
X106632328Y-54206202D01*
X106497482Y-54155908D01*
X106497483Y-54155908D01*
X106437883Y-54149501D01*
X106437881Y-54149500D01*
X106437873Y-54149500D01*
X106437864Y-54149500D01*
X104642129Y-54149500D01*
X104642123Y-54149501D01*
X104582516Y-54155908D01*
X104447671Y-54206202D01*
X104447664Y-54206206D01*
X104332455Y-54292452D01*
X104332452Y-54292455D01*
X104246206Y-54407664D01*
X104246203Y-54407669D01*
X104197189Y-54539083D01*
X104155317Y-54595016D01*
X104089853Y-54619433D01*
X104021580Y-54604581D01*
X103993326Y-54583430D01*
X103871402Y-54461506D01*
X103871395Y-54461501D01*
X103677834Y-54325967D01*
X103677830Y-54325965D01*
X103654382Y-54315031D01*
X103463663Y-54226097D01*
X103463659Y-54226096D01*
X103463655Y-54226094D01*
X103235413Y-54164938D01*
X103235403Y-54164936D01*
X103000001Y-54144341D01*
X102999999Y-54144341D01*
X102764596Y-54164936D01*
X102764586Y-54164938D01*
X102536344Y-54226094D01*
X102536335Y-54226098D01*
X102322171Y-54325964D01*
X102322169Y-54325965D01*
X102128597Y-54461505D01*
X101961505Y-54628597D01*
X101831575Y-54814158D01*
X101776998Y-54857783D01*
X101707500Y-54864977D01*
X101645145Y-54833454D01*
X101628425Y-54814158D01*
X101498494Y-54628597D01*
X101331402Y-54461506D01*
X101331395Y-54461501D01*
X101137834Y-54325967D01*
X101137830Y-54325965D01*
X101114382Y-54315031D01*
X100923663Y-54226097D01*
X100923659Y-54226096D01*
X100923655Y-54226094D01*
X100695413Y-54164938D01*
X100695403Y-54164936D01*
X100460001Y-54144341D01*
X100459999Y-54144341D01*
X100224596Y-54164936D01*
X100224586Y-54164938D01*
X99996344Y-54226094D01*
X99996335Y-54226098D01*
X99782171Y-54325964D01*
X99782169Y-54325965D01*
X99588597Y-54461505D01*
X99421505Y-54628597D01*
X99291575Y-54814158D01*
X99236998Y-54857783D01*
X99167500Y-54864977D01*
X99105145Y-54833454D01*
X99088425Y-54814158D01*
X98958494Y-54628597D01*
X98791402Y-54461506D01*
X98791395Y-54461501D01*
X98597834Y-54325967D01*
X98597830Y-54325965D01*
X98574382Y-54315031D01*
X98383663Y-54226097D01*
X98383659Y-54226096D01*
X98383655Y-54226094D01*
X98155413Y-54164938D01*
X98155403Y-54164936D01*
X97920001Y-54144341D01*
X97919999Y-54144341D01*
X97684596Y-54164936D01*
X97684586Y-54164938D01*
X97456344Y-54226094D01*
X97456335Y-54226098D01*
X97242171Y-54325964D01*
X97242169Y-54325965D01*
X97048597Y-54461505D01*
X96881505Y-54628597D01*
X96745965Y-54822169D01*
X96745964Y-54822171D01*
X96646098Y-55036335D01*
X96646094Y-55036344D01*
X96584938Y-55264586D01*
X96584936Y-55264596D01*
X96564341Y-55499999D01*
X95430499Y-55499999D01*
X95430499Y-54602128D01*
X95424091Y-54542517D01*
X95422810Y-54539083D01*
X95373797Y-54407671D01*
X95373793Y-54407664D01*
X95287547Y-54292455D01*
X95287544Y-54292452D01*
X95172335Y-54206206D01*
X95172328Y-54206202D01*
X95037482Y-54155908D01*
X95037483Y-54155908D01*
X94977883Y-54149501D01*
X94977881Y-54149500D01*
X94977873Y-54149500D01*
X94977864Y-54149500D01*
X93182129Y-54149500D01*
X93182123Y-54149501D01*
X93122516Y-54155908D01*
X92987671Y-54206202D01*
X92987664Y-54206206D01*
X92872455Y-54292452D01*
X92872452Y-54292455D01*
X92786206Y-54407664D01*
X92786203Y-54407669D01*
X92737189Y-54539083D01*
X92695317Y-54595016D01*
X92629853Y-54619433D01*
X92561580Y-54604581D01*
X92533326Y-54583430D01*
X92411402Y-54461506D01*
X92411395Y-54461501D01*
X92217834Y-54325967D01*
X92217830Y-54325965D01*
X92194382Y-54315031D01*
X92003663Y-54226097D01*
X92003659Y-54226096D01*
X92003655Y-54226094D01*
X91775413Y-54164938D01*
X91775403Y-54164936D01*
X91540001Y-54144341D01*
X91539999Y-54144341D01*
X91304596Y-54164936D01*
X91304586Y-54164938D01*
X91076344Y-54226094D01*
X91076335Y-54226098D01*
X90862171Y-54325964D01*
X90862169Y-54325965D01*
X90668597Y-54461505D01*
X90501505Y-54628597D01*
X90371575Y-54814158D01*
X90316998Y-54857783D01*
X90247500Y-54864977D01*
X90185145Y-54833454D01*
X90168425Y-54814158D01*
X90038494Y-54628597D01*
X89871402Y-54461506D01*
X89871395Y-54461501D01*
X89677834Y-54325967D01*
X89677830Y-54325965D01*
X89654382Y-54315031D01*
X89463663Y-54226097D01*
X89463659Y-54226096D01*
X89463655Y-54226094D01*
X89235413Y-54164938D01*
X89235403Y-54164936D01*
X89000001Y-54144341D01*
X88999999Y-54144341D01*
X88764596Y-54164936D01*
X88764586Y-54164938D01*
X88536344Y-54226094D01*
X88536335Y-54226098D01*
X88322171Y-54325964D01*
X88322169Y-54325965D01*
X88128597Y-54461505D01*
X87961505Y-54628597D01*
X87831575Y-54814158D01*
X87776998Y-54857783D01*
X87707500Y-54864977D01*
X87645145Y-54833454D01*
X87628425Y-54814158D01*
X87498494Y-54628597D01*
X87331402Y-54461506D01*
X87331395Y-54461501D01*
X87137834Y-54325967D01*
X87137830Y-54325965D01*
X87114382Y-54315031D01*
X86923663Y-54226097D01*
X86923659Y-54226096D01*
X86923655Y-54226094D01*
X86695413Y-54164938D01*
X86695403Y-54164936D01*
X86460001Y-54144341D01*
X86459999Y-54144341D01*
X86224596Y-54164936D01*
X86224586Y-54164938D01*
X85996344Y-54226094D01*
X85996335Y-54226098D01*
X85782171Y-54325964D01*
X85782169Y-54325965D01*
X85588597Y-54461505D01*
X85421505Y-54628597D01*
X85285965Y-54822169D01*
X85285964Y-54822171D01*
X85186098Y-55036335D01*
X85186094Y-55036344D01*
X85124938Y-55264586D01*
X85124936Y-55264596D01*
X85104341Y-55499999D01*
X80855659Y-55499999D01*
X80835063Y-55264592D01*
X80788626Y-55091285D01*
X80773905Y-55036344D01*
X80773904Y-55036343D01*
X80773903Y-55036337D01*
X80674035Y-54822171D01*
X80668425Y-54814158D01*
X80538494Y-54628597D01*
X80371402Y-54461506D01*
X80371395Y-54461501D01*
X80177834Y-54325967D01*
X80177830Y-54325965D01*
X80154382Y-54315031D01*
X79963663Y-54226097D01*
X79963659Y-54226096D01*
X79963655Y-54226094D01*
X79735413Y-54164938D01*
X79735403Y-54164936D01*
X79500001Y-54144341D01*
X79499999Y-54144341D01*
X79264596Y-54164936D01*
X79264586Y-54164938D01*
X79036344Y-54226094D01*
X79036335Y-54226098D01*
X78822171Y-54325964D01*
X78822169Y-54325965D01*
X78628600Y-54461503D01*
X78506673Y-54583430D01*
X78445350Y-54616914D01*
X78375658Y-54611930D01*
X78319725Y-54570058D01*
X78302810Y-54539081D01*
X78253797Y-54407671D01*
X78253793Y-54407664D01*
X78167547Y-54292455D01*
X78167544Y-54292452D01*
X78052335Y-54206206D01*
X78052328Y-54206202D01*
X77917482Y-54155908D01*
X77917483Y-54155908D01*
X77857883Y-54149501D01*
X77857881Y-54149500D01*
X77857873Y-54149500D01*
X77857864Y-54149500D01*
X76062129Y-54149500D01*
X76062123Y-54149501D01*
X76002516Y-54155908D01*
X75867671Y-54206202D01*
X75867664Y-54206206D01*
X75752455Y-54292452D01*
X75752452Y-54292455D01*
X75666206Y-54407664D01*
X75666202Y-54407671D01*
X75615908Y-54542517D01*
X75609739Y-54599901D01*
X75609501Y-54602123D01*
X75609500Y-54602135D01*
X75609500Y-56397870D01*
X75609501Y-56397876D01*
X75615908Y-56457483D01*
X75666202Y-56592328D01*
X75666206Y-56592335D01*
X75752452Y-56707544D01*
X75752455Y-56707547D01*
X75867664Y-56793793D01*
X75867671Y-56793797D01*
X75869264Y-56794391D01*
X76002517Y-56844091D01*
X76062127Y-56850500D01*
X76290500Y-56850499D01*
X76357539Y-56870183D01*
X76403294Y-56922987D01*
X76414500Y-56974499D01*
X76414500Y-61007532D01*
X76394815Y-61074571D01*
X76361624Y-61109106D01*
X76193452Y-61226862D01*
X76193441Y-61226871D01*
X76036868Y-61383444D01*
X75909857Y-61564833D01*
X75852106Y-61688683D01*
X75805934Y-61741122D01*
X75738740Y-61760274D01*
X75671859Y-61740058D01*
X75627342Y-61688683D01*
X75569707Y-61565085D01*
X75569706Y-61565083D01*
X75523894Y-61499657D01*
X75523894Y-61499656D01*
X74961127Y-62062423D01*
X74945245Y-62003147D01*
X74878102Y-61886853D01*
X74783147Y-61791898D01*
X74666853Y-61724755D01*
X74607575Y-61708872D01*
X75170342Y-61146105D01*
X75170341Y-61146103D01*
X75104919Y-61100295D01*
X74904309Y-61006749D01*
X74904300Y-61006745D01*
X74690509Y-60949461D01*
X74690499Y-60949459D01*
X74470001Y-60930168D01*
X74469999Y-60930168D01*
X74249500Y-60949459D01*
X74249490Y-60949461D01*
X74035699Y-61006745D01*
X74035690Y-61006749D01*
X73835084Y-61100293D01*
X73769657Y-61146104D01*
X74332424Y-61708871D01*
X74273147Y-61724755D01*
X74156853Y-61791898D01*
X74061898Y-61886853D01*
X73994755Y-62003147D01*
X73978871Y-62062424D01*
X73416104Y-61499657D01*
X73370293Y-61565084D01*
X73276749Y-61765690D01*
X73276745Y-61765699D01*
X73219461Y-61979490D01*
X73219459Y-61979500D01*
X73200168Y-62199999D01*
X73200168Y-62200000D01*
X73219459Y-62420499D01*
X73219461Y-62420509D01*
X73276745Y-62634300D01*
X73276749Y-62634309D01*
X73370295Y-62834919D01*
X73416103Y-62900341D01*
X73416105Y-62900342D01*
X73978871Y-62337575D01*
X73994755Y-62396853D01*
X74061898Y-62513147D01*
X74156853Y-62608102D01*
X74273147Y-62675245D01*
X74332424Y-62691128D01*
X73769656Y-63253894D01*
X73835083Y-63299706D01*
X73835085Y-63299707D01*
X74035690Y-63393250D01*
X74035699Y-63393254D01*
X74249490Y-63450538D01*
X74249500Y-63450540D01*
X74469999Y-63469832D01*
X74470001Y-63469832D01*
X74690499Y-63450540D01*
X74690509Y-63450538D01*
X74904300Y-63393254D01*
X74904309Y-63393250D01*
X75104915Y-63299706D01*
X75170342Y-63253894D01*
X74607575Y-62691127D01*
X74666853Y-62675245D01*
X74783147Y-62608102D01*
X74878102Y-62513147D01*
X74945245Y-62396853D01*
X74961128Y-62337575D01*
X75523894Y-62900342D01*
X75569707Y-62834914D01*
X75569708Y-62834912D01*
X75627342Y-62711317D01*
X75673514Y-62658877D01*
X75740707Y-62639725D01*
X75807589Y-62659941D01*
X75852106Y-62711317D01*
X75909858Y-62835167D01*
X76036868Y-63016555D01*
X76193445Y-63173132D01*
X76374833Y-63300142D01*
X76426988Y-63324462D01*
X76575513Y-63393720D01*
X76575515Y-63393720D01*
X76575520Y-63393723D01*
X76789409Y-63451035D01*
X76946974Y-63464820D01*
X77009998Y-63470334D01*
X77010000Y-63470334D01*
X77010002Y-63470334D01*
X77065147Y-63465509D01*
X77230591Y-63451035D01*
X77444480Y-63393723D01*
X77645167Y-63300142D01*
X77826555Y-63173132D01*
X77983132Y-63016555D01*
X78110142Y-62835167D01*
X78167618Y-62711907D01*
X78213790Y-62659468D01*
X78280983Y-62640316D01*
X78347864Y-62660531D01*
X78392381Y-62711907D01*
X78449858Y-62835167D01*
X78576868Y-63016555D01*
X78733445Y-63173132D01*
X78914833Y-63300142D01*
X78966988Y-63324462D01*
X79115513Y-63393720D01*
X79115515Y-63393720D01*
X79115520Y-63393723D01*
X79329409Y-63451035D01*
X79486974Y-63464820D01*
X79549998Y-63470334D01*
X79550000Y-63470334D01*
X79550002Y-63470334D01*
X79605147Y-63465509D01*
X79770591Y-63451035D01*
X79984480Y-63393723D01*
X80185167Y-63300142D01*
X80366555Y-63173132D01*
X80523132Y-63016555D01*
X80650142Y-62835167D01*
X80707618Y-62711907D01*
X80753790Y-62659468D01*
X80820983Y-62640316D01*
X80887864Y-62660531D01*
X80932381Y-62711907D01*
X80989858Y-62835167D01*
X81116868Y-63016555D01*
X81273445Y-63173132D01*
X81454833Y-63300142D01*
X81506988Y-63324462D01*
X81655513Y-63393720D01*
X81655515Y-63393720D01*
X81655520Y-63393723D01*
X81869409Y-63451035D01*
X82026974Y-63464820D01*
X82089998Y-63470334D01*
X82090000Y-63470334D01*
X82090002Y-63470334D01*
X82145147Y-63465509D01*
X82310591Y-63451035D01*
X82524480Y-63393723D01*
X82725167Y-63300142D01*
X82906555Y-63173132D01*
X83063132Y-63016555D01*
X83190142Y-62835167D01*
X83247618Y-62711907D01*
X83293790Y-62659468D01*
X83360983Y-62640316D01*
X83427864Y-62660531D01*
X83472381Y-62711907D01*
X83529858Y-62835167D01*
X83656868Y-63016555D01*
X83813445Y-63173132D01*
X83994833Y-63300142D01*
X84046988Y-63324462D01*
X84195513Y-63393720D01*
X84195515Y-63393720D01*
X84195520Y-63393723D01*
X84409409Y-63451035D01*
X84566974Y-63464820D01*
X84629998Y-63470334D01*
X84630000Y-63470334D01*
X84630002Y-63470334D01*
X84685147Y-63465509D01*
X84850591Y-63451035D01*
X85064480Y-63393723D01*
X85265167Y-63300142D01*
X85446555Y-63173132D01*
X85603132Y-63016555D01*
X85730142Y-62835167D01*
X85787618Y-62711907D01*
X85833790Y-62659468D01*
X85900983Y-62640316D01*
X85967864Y-62660531D01*
X86012381Y-62711907D01*
X86069858Y-62835167D01*
X86196868Y-63016555D01*
X86353445Y-63173132D01*
X86534833Y-63300142D01*
X86586988Y-63324462D01*
X86735513Y-63393720D01*
X86735515Y-63393720D01*
X86735520Y-63393723D01*
X86949409Y-63451035D01*
X87106974Y-63464820D01*
X87169998Y-63470334D01*
X87170000Y-63470334D01*
X87170002Y-63470334D01*
X87225147Y-63465509D01*
X87390591Y-63451035D01*
X87604480Y-63393723D01*
X87805167Y-63300142D01*
X87986555Y-63173132D01*
X88143132Y-63016555D01*
X88270142Y-62835167D01*
X88327618Y-62711907D01*
X88373790Y-62659468D01*
X88440983Y-62640316D01*
X88507864Y-62660531D01*
X88552381Y-62711907D01*
X88609858Y-62835167D01*
X88736868Y-63016555D01*
X88893445Y-63173132D01*
X89074833Y-63300142D01*
X89126988Y-63324462D01*
X89275513Y-63393720D01*
X89275515Y-63393720D01*
X89275520Y-63393723D01*
X89489409Y-63451035D01*
X89646974Y-63464820D01*
X89709998Y-63470334D01*
X89710000Y-63470334D01*
X89710002Y-63470334D01*
X89765147Y-63465509D01*
X89930591Y-63451035D01*
X90144480Y-63393723D01*
X90345167Y-63300142D01*
X90526555Y-63173132D01*
X90683132Y-63016555D01*
X90810142Y-62835167D01*
X90867618Y-62711907D01*
X90913790Y-62659468D01*
X90980983Y-62640316D01*
X91047864Y-62660531D01*
X91092381Y-62711907D01*
X91149858Y-62835167D01*
X91276868Y-63016555D01*
X91433445Y-63173132D01*
X91614833Y-63300142D01*
X91666988Y-63324462D01*
X91815513Y-63393720D01*
X91815515Y-63393720D01*
X91815520Y-63393723D01*
X92029409Y-63451035D01*
X92186974Y-63464820D01*
X92249998Y-63470334D01*
X92250000Y-63470334D01*
X92250002Y-63470334D01*
X92305147Y-63465509D01*
X92470591Y-63451035D01*
X92684480Y-63393723D01*
X92885167Y-63300142D01*
X93066555Y-63173132D01*
X93223132Y-63016555D01*
X93350142Y-62835167D01*
X93407618Y-62711907D01*
X93453790Y-62659468D01*
X93520983Y-62640316D01*
X93587864Y-62660531D01*
X93632381Y-62711907D01*
X93689858Y-62835167D01*
X93816868Y-63016555D01*
X93973445Y-63173132D01*
X94154833Y-63300142D01*
X94206988Y-63324462D01*
X94355513Y-63393720D01*
X94355515Y-63393720D01*
X94355520Y-63393723D01*
X94569409Y-63451035D01*
X94726974Y-63464820D01*
X94789998Y-63470334D01*
X94790000Y-63470334D01*
X94790002Y-63470334D01*
X94845147Y-63465509D01*
X95010591Y-63451035D01*
X95224480Y-63393723D01*
X95425167Y-63300142D01*
X95606555Y-63173132D01*
X95763132Y-63016555D01*
X95890142Y-62835167D01*
X95947618Y-62711907D01*
X95993790Y-62659468D01*
X96060983Y-62640316D01*
X96127864Y-62660531D01*
X96172381Y-62711907D01*
X96229858Y-62835167D01*
X96356868Y-63016555D01*
X96513445Y-63173132D01*
X96694833Y-63300142D01*
X96746988Y-63324462D01*
X96895513Y-63393720D01*
X96895515Y-63393720D01*
X96895520Y-63393723D01*
X97109409Y-63451035D01*
X97266974Y-63464820D01*
X97329998Y-63470334D01*
X97330000Y-63470334D01*
X97330002Y-63470334D01*
X97385147Y-63465509D01*
X97550591Y-63451035D01*
X97764480Y-63393723D01*
X97965167Y-63300142D01*
X98146555Y-63173132D01*
X98303132Y-63016555D01*
X98430142Y-62835167D01*
X98487618Y-62711907D01*
X98533790Y-62659468D01*
X98600983Y-62640316D01*
X98667864Y-62660531D01*
X98712381Y-62711907D01*
X98769858Y-62835167D01*
X98896868Y-63016555D01*
X99053445Y-63173132D01*
X99234833Y-63300142D01*
X99286988Y-63324462D01*
X99435513Y-63393720D01*
X99435515Y-63393720D01*
X99435520Y-63393723D01*
X99649409Y-63451035D01*
X99806974Y-63464820D01*
X99869998Y-63470334D01*
X99870000Y-63470334D01*
X99870002Y-63470334D01*
X99925147Y-63465509D01*
X100090591Y-63451035D01*
X100304480Y-63393723D01*
X100505167Y-63300142D01*
X100686555Y-63173132D01*
X100843132Y-63016555D01*
X100970142Y-62835167D01*
X101027618Y-62711907D01*
X101073790Y-62659468D01*
X101140983Y-62640316D01*
X101207864Y-62660531D01*
X101252381Y-62711907D01*
X101309858Y-62835167D01*
X101436868Y-63016555D01*
X101593445Y-63173132D01*
X101774833Y-63300142D01*
X101826988Y-63324462D01*
X101975513Y-63393720D01*
X101975515Y-63393720D01*
X101975520Y-63393723D01*
X102189409Y-63451035D01*
X102346974Y-63464820D01*
X102409998Y-63470334D01*
X102410000Y-63470334D01*
X102410002Y-63470334D01*
X102465147Y-63465509D01*
X102630591Y-63451035D01*
X102844480Y-63393723D01*
X103045167Y-63300142D01*
X103226555Y-63173132D01*
X103383132Y-63016555D01*
X103510142Y-62835167D01*
X103567618Y-62711907D01*
X103613790Y-62659468D01*
X103680983Y-62640316D01*
X103747864Y-62660531D01*
X103792381Y-62711907D01*
X103849858Y-62835167D01*
X103976868Y-63016555D01*
X104133445Y-63173132D01*
X104314833Y-63300142D01*
X104366988Y-63324462D01*
X104515513Y-63393720D01*
X104515515Y-63393720D01*
X104515520Y-63393723D01*
X104729409Y-63451035D01*
X104886974Y-63464820D01*
X104949998Y-63470334D01*
X104950000Y-63470334D01*
X104950002Y-63470334D01*
X105005147Y-63465509D01*
X105170591Y-63451035D01*
X105384480Y-63393723D01*
X105585167Y-63300142D01*
X105766555Y-63173132D01*
X105923132Y-63016555D01*
X106050142Y-62835167D01*
X106107618Y-62711907D01*
X106153790Y-62659468D01*
X106220983Y-62640316D01*
X106287864Y-62660531D01*
X106332381Y-62711907D01*
X106389858Y-62835167D01*
X106516868Y-63016555D01*
X106673445Y-63173132D01*
X106811624Y-63269886D01*
X106855248Y-63324462D01*
X106864500Y-63371460D01*
X106864500Y-63943993D01*
X106844815Y-64011032D01*
X106792011Y-64056787D01*
X106783836Y-64060174D01*
X106767665Y-64066205D01*
X106652455Y-64152452D01*
X106652452Y-64152455D01*
X106566206Y-64267664D01*
X106566202Y-64267671D01*
X106515908Y-64402517D01*
X106509667Y-64460573D01*
X106509501Y-64462123D01*
X106509500Y-64462135D01*
X106509500Y-65557870D01*
X106509501Y-65557876D01*
X106515908Y-65617483D01*
X106566202Y-65752328D01*
X106566206Y-65752335D01*
X106652452Y-65867544D01*
X106652455Y-65867547D01*
X106767664Y-65953793D01*
X106767671Y-65953797D01*
X106902517Y-66004091D01*
X106902516Y-66004091D01*
X106909444Y-66004835D01*
X106962127Y-66010500D01*
X108057872Y-66010499D01*
X108117483Y-66004091D01*
X108252331Y-65953796D01*
X108367546Y-65867546D01*
X108453796Y-65752331D01*
X108504091Y-65617483D01*
X108510500Y-65557873D01*
X108510499Y-64462128D01*
X108504091Y-64402517D01*
X108496565Y-64382340D01*
X108453797Y-64267671D01*
X108453793Y-64267664D01*
X108367547Y-64152455D01*
X108367544Y-64152452D01*
X108252335Y-64066206D01*
X108252328Y-64066202D01*
X108196167Y-64045256D01*
X108140233Y-64003385D01*
X108115816Y-63937921D01*
X108115500Y-63929074D01*
X108115500Y-63371460D01*
X108135185Y-63304421D01*
X108168374Y-63269887D01*
X108306555Y-63173132D01*
X108463132Y-63016555D01*
X108590142Y-62835167D01*
X108647618Y-62711907D01*
X108693790Y-62659468D01*
X108760983Y-62640316D01*
X108827864Y-62660531D01*
X108872381Y-62711907D01*
X108929858Y-62835167D01*
X109056868Y-63016555D01*
X109213445Y-63173132D01*
X109394833Y-63300142D01*
X109446988Y-63324462D01*
X109595513Y-63393720D01*
X109595515Y-63393720D01*
X109595520Y-63393723D01*
X109809409Y-63451035D01*
X109966974Y-63464820D01*
X110029998Y-63470334D01*
X110030000Y-63470334D01*
X110030002Y-63470334D01*
X110085147Y-63465509D01*
X110250591Y-63451035D01*
X110464480Y-63393723D01*
X110638097Y-63312764D01*
X110707173Y-63302273D01*
X110770957Y-63330793D01*
X110809196Y-63389269D01*
X110814500Y-63425147D01*
X110814500Y-83169547D01*
X110794815Y-83236586D01*
X110778181Y-83257228D01*
X107674100Y-86361308D01*
X107612777Y-86394793D01*
X107575613Y-86397155D01*
X107490004Y-86389666D01*
X107489998Y-86389666D01*
X107269414Y-86408964D01*
X107269407Y-86408965D01*
X107055524Y-86466275D01*
X107055513Y-86466279D01*
X106854836Y-86559856D01*
X106854834Y-86559857D01*
X106673444Y-86686868D01*
X106516868Y-86843444D01*
X106389857Y-87024834D01*
X106389856Y-87024836D01*
X106332382Y-87148091D01*
X106286210Y-87200531D01*
X106219017Y-87219683D01*
X106152135Y-87199467D01*
X106107618Y-87148091D01*
X106079050Y-87086828D01*
X106050142Y-87024833D01*
X105923132Y-86843445D01*
X105766555Y-86686868D01*
X105766550Y-86686864D01*
X105766547Y-86686862D01*
X105628376Y-86590112D01*
X105584751Y-86535535D01*
X105575500Y-86488538D01*
X105575500Y-85592115D01*
X105595185Y-85525076D01*
X105647989Y-85479321D01*
X105656167Y-85475933D01*
X105734145Y-85446849D01*
X105742331Y-85443796D01*
X105857546Y-85357546D01*
X105943796Y-85242331D01*
X105994091Y-85107483D01*
X106000500Y-85047873D01*
X106000499Y-83952128D01*
X105994091Y-83892517D01*
X105950739Y-83776285D01*
X105943797Y-83757671D01*
X105943793Y-83757664D01*
X105857547Y-83642455D01*
X105857544Y-83642452D01*
X105742335Y-83556206D01*
X105742328Y-83556202D01*
X105607482Y-83505908D01*
X105607483Y-83505908D01*
X105547883Y-83499501D01*
X105547881Y-83499500D01*
X105547873Y-83499500D01*
X105547864Y-83499500D01*
X104452129Y-83499500D01*
X104452123Y-83499501D01*
X104392516Y-83505908D01*
X104257671Y-83556202D01*
X104257664Y-83556206D01*
X104142455Y-83642452D01*
X104142452Y-83642455D01*
X104056206Y-83757664D01*
X104056202Y-83757671D01*
X104005908Y-83892517D01*
X103999501Y-83952116D01*
X103999501Y-83952123D01*
X103999500Y-83952135D01*
X103999500Y-85047870D01*
X103999501Y-85047876D01*
X104005908Y-85107483D01*
X104056202Y-85242328D01*
X104056206Y-85242335D01*
X104142452Y-85357544D01*
X104142455Y-85357547D01*
X104257663Y-85443792D01*
X104257665Y-85443793D01*
X104257669Y-85443796D01*
X104257673Y-85443797D01*
X104259924Y-85445027D01*
X104261746Y-85446849D01*
X104264769Y-85449112D01*
X104264443Y-85449546D01*
X104309331Y-85494431D01*
X104324500Y-85553861D01*
X104324500Y-86488539D01*
X104304815Y-86555578D01*
X104271624Y-86590113D01*
X104133445Y-86686867D01*
X104133436Y-86686875D01*
X104085878Y-86734433D01*
X104024555Y-86767917D01*
X103954863Y-86762932D01*
X103910517Y-86734432D01*
X103895637Y-86719552D01*
X103895606Y-86719523D01*
X103351691Y-86175608D01*
X103351671Y-86175586D01*
X103260226Y-86084141D01*
X103209002Y-86049915D01*
X103157780Y-86015689D01*
X103157779Y-86015688D01*
X103157776Y-86015686D01*
X103157773Y-86015685D01*
X103077285Y-85982347D01*
X103043946Y-85968537D01*
X103033920Y-85966543D01*
X102983522Y-85956518D01*
X102923103Y-85944500D01*
X102923100Y-85944500D01*
X102923099Y-85944500D01*
X93401607Y-85944500D01*
X93278393Y-85944500D01*
X93278389Y-85944500D01*
X93217971Y-85956518D01*
X93157548Y-85968537D01*
X93157543Y-85968538D01*
X93124207Y-85982347D01*
X93110397Y-85988067D01*
X93088169Y-85997274D01*
X93043713Y-86015688D01*
X93033557Y-86022475D01*
X93033449Y-86022547D01*
X92941268Y-86084140D01*
X92897705Y-86127703D01*
X92854142Y-86171267D01*
X92854139Y-86171270D01*
X92636244Y-86389164D01*
X92574921Y-86422649D01*
X92516470Y-86421258D01*
X92470591Y-86408965D01*
X92250002Y-86389666D01*
X92249998Y-86389666D01*
X92029414Y-86408964D01*
X92029407Y-86408965D01*
X91815524Y-86466275D01*
X91815513Y-86466279D01*
X91614836Y-86559856D01*
X91614834Y-86559857D01*
X91433444Y-86686868D01*
X91276868Y-86843444D01*
X91149857Y-87024834D01*
X91149856Y-87024836D01*
X91092382Y-87148091D01*
X91046210Y-87200531D01*
X90979017Y-87219683D01*
X90912135Y-87199467D01*
X90867618Y-87148091D01*
X90839050Y-87086828D01*
X90810142Y-87024833D01*
X90683132Y-86843445D01*
X90526555Y-86686868D01*
X90345167Y-86559858D01*
X90345163Y-86559856D01*
X90144486Y-86466279D01*
X90144475Y-86466275D01*
X89930592Y-86408965D01*
X89930585Y-86408964D01*
X89710002Y-86389666D01*
X89709998Y-86389666D01*
X89489414Y-86408964D01*
X89489407Y-86408965D01*
X89275524Y-86466275D01*
X89275513Y-86466279D01*
X89074836Y-86559856D01*
X89074834Y-86559857D01*
X88893444Y-86686868D01*
X88736868Y-86843444D01*
X88609857Y-87024834D01*
X88609856Y-87024836D01*
X88552382Y-87148091D01*
X88506210Y-87200531D01*
X88439017Y-87219683D01*
X88372135Y-87199467D01*
X88327618Y-87148091D01*
X88299050Y-87086828D01*
X88270142Y-87024833D01*
X88143132Y-86843445D01*
X87986555Y-86686868D01*
X87805167Y-86559858D01*
X87805163Y-86559856D01*
X87604486Y-86466279D01*
X87604475Y-86466275D01*
X87390592Y-86408965D01*
X87390585Y-86408964D01*
X87170002Y-86389666D01*
X87169998Y-86389666D01*
X86949414Y-86408964D01*
X86949407Y-86408965D01*
X86735524Y-86466275D01*
X86735513Y-86466279D01*
X86534836Y-86559856D01*
X86534834Y-86559857D01*
X86353444Y-86686868D01*
X86196868Y-86843444D01*
X86069857Y-87024834D01*
X86069856Y-87024836D01*
X86012382Y-87148091D01*
X85966210Y-87200531D01*
X85899017Y-87219683D01*
X85832135Y-87199467D01*
X85787618Y-87148091D01*
X85759050Y-87086828D01*
X85730142Y-87024833D01*
X85603132Y-86843445D01*
X85446555Y-86686868D01*
X85265167Y-86559858D01*
X85265163Y-86559856D01*
X85064486Y-86466279D01*
X85064475Y-86466275D01*
X84850592Y-86408965D01*
X84850585Y-86408964D01*
X84630002Y-86389666D01*
X84629998Y-86389666D01*
X84409414Y-86408964D01*
X84409407Y-86408965D01*
X84195524Y-86466275D01*
X84195513Y-86466279D01*
X83994836Y-86559856D01*
X83994834Y-86559857D01*
X83813444Y-86686868D01*
X83656868Y-86843444D01*
X83529857Y-87024834D01*
X83529856Y-87024836D01*
X83472382Y-87148091D01*
X83426210Y-87200531D01*
X83359017Y-87219683D01*
X83292135Y-87199467D01*
X83247618Y-87148091D01*
X83219050Y-87086828D01*
X83190142Y-87024833D01*
X83063132Y-86843445D01*
X82906555Y-86686868D01*
X82725167Y-86559858D01*
X82725163Y-86559856D01*
X82524486Y-86466279D01*
X82524475Y-86466275D01*
X82310592Y-86408965D01*
X82310585Y-86408964D01*
X82090002Y-86389666D01*
X82089998Y-86389666D01*
X81869414Y-86408964D01*
X81869407Y-86408965D01*
X81655524Y-86466275D01*
X81655513Y-86466279D01*
X81454836Y-86559856D01*
X81454834Y-86559857D01*
X81273444Y-86686868D01*
X81116868Y-86843444D01*
X80989857Y-87024834D01*
X80989856Y-87024836D01*
X80932382Y-87148091D01*
X80886210Y-87200531D01*
X80819017Y-87219683D01*
X80752135Y-87199467D01*
X80707618Y-87148091D01*
X80679050Y-87086828D01*
X80650142Y-87024833D01*
X80523132Y-86843445D01*
X80366555Y-86686868D01*
X80185167Y-86559858D01*
X80185165Y-86559857D01*
X80180732Y-86556753D01*
X80181796Y-86555232D01*
X80139271Y-86510610D01*
X80125500Y-86453817D01*
X80125500Y-85573466D01*
X80145185Y-85506427D01*
X80197989Y-85460672D01*
X80206156Y-85457288D01*
X80242331Y-85443796D01*
X80357546Y-85357546D01*
X80443796Y-85242331D01*
X80494091Y-85107483D01*
X80500500Y-85047873D01*
X80500499Y-83952128D01*
X80494091Y-83892517D01*
X80450739Y-83776285D01*
X80443797Y-83757671D01*
X80443793Y-83757664D01*
X80357547Y-83642455D01*
X80357544Y-83642452D01*
X80242335Y-83556206D01*
X80242328Y-83556202D01*
X80107482Y-83505908D01*
X80107483Y-83505908D01*
X80047883Y-83499501D01*
X80047881Y-83499500D01*
X80047873Y-83499500D01*
X80047864Y-83499500D01*
X78952129Y-83499500D01*
X78952123Y-83499501D01*
X78892516Y-83505908D01*
X78757671Y-83556202D01*
X78757664Y-83556206D01*
X78642455Y-83642452D01*
X78642452Y-83642455D01*
X78556206Y-83757664D01*
X78556202Y-83757671D01*
X78505908Y-83892517D01*
X78499501Y-83952116D01*
X78499501Y-83952123D01*
X78499500Y-83952135D01*
X78499500Y-85047870D01*
X78499501Y-85047876D01*
X78505908Y-85107483D01*
X78556202Y-85242328D01*
X78556206Y-85242335D01*
X78642452Y-85357544D01*
X78642455Y-85357547D01*
X78757664Y-85443793D01*
X78757669Y-85443796D01*
X78793832Y-85457284D01*
X78849766Y-85499154D01*
X78874184Y-85564618D01*
X78874500Y-85573466D01*
X78874500Y-86523549D01*
X78854815Y-86590588D01*
X78821624Y-86625123D01*
X78733452Y-86686862D01*
X78733441Y-86686871D01*
X78576868Y-86843444D01*
X78449857Y-87024834D01*
X78449856Y-87024836D01*
X78392382Y-87148091D01*
X78346210Y-87200531D01*
X78279017Y-87219683D01*
X78212135Y-87199467D01*
X78167618Y-87148091D01*
X78139050Y-87086828D01*
X78110142Y-87024833D01*
X77983132Y-86843445D01*
X77826555Y-86686868D01*
X77645167Y-86559858D01*
X77645163Y-86559856D01*
X77444486Y-86466279D01*
X77444475Y-86466275D01*
X77230592Y-86408965D01*
X77230585Y-86408964D01*
X77010002Y-86389666D01*
X77009998Y-86389666D01*
X76789414Y-86408964D01*
X76789407Y-86408965D01*
X76575524Y-86466275D01*
X76575513Y-86466279D01*
X76374836Y-86559856D01*
X76374834Y-86559857D01*
X76193444Y-86686868D01*
X76036868Y-86843444D01*
X75961074Y-86951690D01*
X75906497Y-86995315D01*
X75836998Y-87002507D01*
X75774644Y-86970985D01*
X75739230Y-86910755D01*
X75735499Y-86880566D01*
X75735499Y-86847129D01*
X75735498Y-86847123D01*
X75735497Y-86847116D01*
X75729091Y-86787517D01*
X75721781Y-86767919D01*
X75678797Y-86652671D01*
X75678793Y-86652664D01*
X75592547Y-86537455D01*
X75592544Y-86537452D01*
X75477335Y-86451206D01*
X75477328Y-86451202D01*
X75342482Y-86400908D01*
X75342483Y-86400908D01*
X75282883Y-86394501D01*
X75282881Y-86394500D01*
X75282873Y-86394500D01*
X75282864Y-86394500D01*
X73657129Y-86394500D01*
X73657123Y-86394501D01*
X73597516Y-86400908D01*
X73462671Y-86451202D01*
X73462664Y-86451206D01*
X73347455Y-86537452D01*
X73347452Y-86537455D01*
X73261206Y-86652664D01*
X73261202Y-86652671D01*
X73210908Y-86787517D01*
X73207189Y-86822115D01*
X73204501Y-86847123D01*
X73204500Y-86847135D01*
X73204500Y-88472870D01*
X73204501Y-88472876D01*
X73210908Y-88532483D01*
X73261202Y-88667328D01*
X73261206Y-88667335D01*
X73347452Y-88782544D01*
X73347455Y-88782547D01*
X73462664Y-88868793D01*
X73462671Y-88868797D01*
X73597513Y-88919090D01*
X73597514Y-88919090D01*
X73597517Y-88919091D01*
X73608755Y-88920299D01*
X73673304Y-88947035D01*
X73713154Y-89004426D01*
X73719500Y-89043588D01*
X73719500Y-95025500D01*
X73699815Y-95092539D01*
X73647011Y-95138294D01*
X73595500Y-95149500D01*
X73077129Y-95149500D01*
X73077123Y-95149501D01*
X73017516Y-95155908D01*
X72882671Y-95206202D01*
X72882664Y-95206206D01*
X72767455Y-95292452D01*
X72767452Y-95292455D01*
X72681206Y-95407664D01*
X72681204Y-95407669D01*
X72630908Y-95542517D01*
X72624501Y-95602116D01*
X72624500Y-95602135D01*
X67222514Y-95602135D01*
X67371082Y-95498105D01*
X67538105Y-95331082D01*
X67673600Y-95137578D01*
X67773429Y-94923492D01*
X67773432Y-94923486D01*
X67830636Y-94710000D01*
X66933012Y-94710000D01*
X66965925Y-94652993D01*
X67000000Y-94525826D01*
X67000000Y-94394174D01*
X66965925Y-94267007D01*
X66933012Y-94210000D01*
X67830636Y-94210000D01*
X67830635Y-94209999D01*
X67773432Y-93996513D01*
X67773429Y-93996507D01*
X67673600Y-93782422D01*
X67673599Y-93782420D01*
X67538113Y-93588926D01*
X67538108Y-93588920D01*
X67371082Y-93421894D01*
X67177578Y-93286399D01*
X66963492Y-93186570D01*
X66963486Y-93186567D01*
X66750000Y-93129364D01*
X66750000Y-94026988D01*
X66692993Y-93994075D01*
X66565826Y-93960000D01*
X66434174Y-93960000D01*
X66307007Y-93994075D01*
X66250000Y-94026988D01*
X66250000Y-93129364D01*
X66249999Y-93129364D01*
X66036513Y-93186567D01*
X66036507Y-93186570D01*
X65822422Y-93286399D01*
X65822420Y-93286400D01*
X65628926Y-93421886D01*
X65506477Y-93544335D01*
X65445154Y-93577819D01*
X65375462Y-93572835D01*
X65319529Y-93530963D01*
X65302614Y-93499986D01*
X65253354Y-93367913D01*
X65253350Y-93367906D01*
X65167190Y-93252812D01*
X65167187Y-93252809D01*
X65052093Y-93166649D01*
X65052086Y-93166645D01*
X64917379Y-93116403D01*
X64917372Y-93116401D01*
X64857844Y-93110000D01*
X64210000Y-93110000D01*
X64210000Y-94026988D01*
X64152993Y-93994075D01*
X64025826Y-93960000D01*
X63894174Y-93960000D01*
X63767007Y-93994075D01*
X63710000Y-94026988D01*
X63710000Y-93110000D01*
X63062155Y-93110000D01*
X63002627Y-93116401D01*
X63002620Y-93116403D01*
X62867913Y-93166645D01*
X62867906Y-93166649D01*
X62752812Y-93252809D01*
X62752809Y-93252812D01*
X62666649Y-93367906D01*
X62666645Y-93367913D01*
X62616403Y-93502620D01*
X62616401Y-93502627D01*
X62610000Y-93562155D01*
X60000000Y-93562155D01*
X60000000Y-90000000D01*
X50624500Y-90000000D01*
X50557461Y-89980315D01*
X50511706Y-89927511D01*
X50500500Y-89876000D01*
X50500500Y-86989994D01*
X53925057Y-86989994D01*
X53925057Y-86990005D01*
X53944807Y-87303942D01*
X53944808Y-87303949D01*
X54003755Y-87612958D01*
X54100963Y-87912132D01*
X54100965Y-87912137D01*
X54234900Y-88196761D01*
X54234903Y-88196767D01*
X54403457Y-88462367D01*
X54403460Y-88462371D01*
X54494286Y-88572160D01*
X55135748Y-87930698D01*
X55209588Y-88032330D01*
X55387670Y-88210412D01*
X55489300Y-88284250D01*
X54844971Y-88928579D01*
X54844972Y-88928581D01*
X55087772Y-89104985D01*
X55087790Y-89104996D01*
X55363447Y-89256540D01*
X55363455Y-89256544D01*
X55655926Y-89372340D01*
X55960620Y-89450573D01*
X55960629Y-89450575D01*
X56272701Y-89489999D01*
X56272715Y-89490000D01*
X56587285Y-89490000D01*
X56587298Y-89489999D01*
X56899370Y-89450575D01*
X56899379Y-89450573D01*
X57204073Y-89372340D01*
X57496544Y-89256544D01*
X57496552Y-89256540D01*
X57772209Y-89104996D01*
X57772219Y-89104990D01*
X58015026Y-88928579D01*
X58015027Y-88928579D01*
X57370698Y-88284251D01*
X57472330Y-88210412D01*
X57650412Y-88032330D01*
X57724251Y-87930698D01*
X58365712Y-88572160D01*
X58456544Y-88462364D01*
X58625096Y-88196767D01*
X58625099Y-88196761D01*
X58759034Y-87912137D01*
X58759036Y-87912132D01*
X58856244Y-87612958D01*
X58915191Y-87303949D01*
X58915192Y-87303942D01*
X58934943Y-86990005D01*
X58934943Y-86989994D01*
X58915192Y-86676057D01*
X58915191Y-86676050D01*
X58856244Y-86367041D01*
X58759036Y-86067867D01*
X58759034Y-86067862D01*
X58625099Y-85783238D01*
X58625096Y-85783232D01*
X58456542Y-85517632D01*
X58456539Y-85517628D01*
X58365712Y-85407838D01*
X57724250Y-86049300D01*
X57650412Y-85947670D01*
X57472330Y-85769588D01*
X57370698Y-85695748D01*
X58015027Y-85051419D01*
X58015026Y-85051417D01*
X57772227Y-84875014D01*
X57772209Y-84875003D01*
X57496552Y-84723459D01*
X57496544Y-84723455D01*
X57204073Y-84607659D01*
X56899379Y-84529426D01*
X56899370Y-84529424D01*
X56587298Y-84490000D01*
X56272701Y-84490000D01*
X55960629Y-84529424D01*
X55960620Y-84529426D01*
X55655926Y-84607659D01*
X55363455Y-84723455D01*
X55363447Y-84723459D01*
X55087787Y-84875004D01*
X55087782Y-84875007D01*
X54844972Y-85051418D01*
X54844971Y-85051419D01*
X55489301Y-85695748D01*
X55387670Y-85769588D01*
X55209588Y-85947670D01*
X55135748Y-86049300D01*
X54494286Y-85407838D01*
X54494285Y-85407838D01*
X54403459Y-85517629D01*
X54403457Y-85517632D01*
X54234903Y-85783232D01*
X54234900Y-85783238D01*
X54100965Y-86067862D01*
X54100963Y-86067867D01*
X54003755Y-86367041D01*
X53944808Y-86676050D01*
X53944807Y-86676057D01*
X53925057Y-86989994D01*
X50500500Y-86989994D01*
X50500500Y-69664999D01*
X52534341Y-69664999D01*
X52534341Y-69665000D01*
X52554936Y-69900403D01*
X52554938Y-69900413D01*
X52616094Y-70128655D01*
X52616096Y-70128659D01*
X52616097Y-70128663D01*
X52638879Y-70177518D01*
X52715965Y-70342830D01*
X52715967Y-70342834D01*
X52851501Y-70536395D01*
X52851506Y-70536402D01*
X53018597Y-70703493D01*
X53018606Y-70703501D01*
X53025640Y-70708426D01*
X53069265Y-70763003D01*
X53076457Y-70832501D01*
X53044934Y-70894856D01*
X53025640Y-70911574D01*
X53018606Y-70916498D01*
X53018597Y-70916506D01*
X52851505Y-71083597D01*
X52715965Y-71277169D01*
X52715964Y-71277171D01*
X52616098Y-71491335D01*
X52616094Y-71491344D01*
X52554938Y-71719586D01*
X52554936Y-71719596D01*
X52534341Y-71954999D01*
X52534341Y-71955000D01*
X52554936Y-72190403D01*
X52554938Y-72190413D01*
X52616094Y-72418655D01*
X52616096Y-72418659D01*
X52616097Y-72418663D01*
X52617733Y-72422171D01*
X52715965Y-72632830D01*
X52715967Y-72632834D01*
X52851501Y-72826395D01*
X52851506Y-72826402D01*
X53018597Y-72993493D01*
X53018606Y-72993501D01*
X53025640Y-72998426D01*
X53069265Y-73053003D01*
X53076457Y-73122501D01*
X53044934Y-73184856D01*
X53025640Y-73201574D01*
X53018606Y-73206498D01*
X53018597Y-73206506D01*
X52851505Y-73373597D01*
X52715965Y-73567169D01*
X52715964Y-73567171D01*
X52616098Y-73781335D01*
X52616094Y-73781344D01*
X52554938Y-74009586D01*
X52554936Y-74009596D01*
X52534341Y-74244999D01*
X52534341Y-74245000D01*
X52554936Y-74480403D01*
X52554938Y-74480413D01*
X52616094Y-74708655D01*
X52616096Y-74708659D01*
X52616097Y-74708663D01*
X52677341Y-74840000D01*
X52715965Y-74922830D01*
X52715967Y-74922834D01*
X52851501Y-75116395D01*
X52851506Y-75116402D01*
X53018597Y-75283493D01*
X53018606Y-75283501D01*
X53025640Y-75288426D01*
X53069265Y-75343003D01*
X53076457Y-75412501D01*
X53044934Y-75474856D01*
X53025640Y-75491574D01*
X53018606Y-75496498D01*
X53018597Y-75496506D01*
X52851505Y-75663597D01*
X52715965Y-75857169D01*
X52715964Y-75857171D01*
X52616098Y-76071335D01*
X52616094Y-76071344D01*
X52554938Y-76299586D01*
X52554936Y-76299596D01*
X52534341Y-76534999D01*
X52534341Y-76535000D01*
X52554936Y-76770403D01*
X52554938Y-76770413D01*
X52616094Y-76998655D01*
X52616096Y-76998659D01*
X52616097Y-76998663D01*
X52677341Y-77130000D01*
X52715965Y-77212830D01*
X52715967Y-77212834D01*
X52851501Y-77406395D01*
X52851506Y-77406402D01*
X53018597Y-77573493D01*
X53018606Y-77573501D01*
X53025640Y-77578426D01*
X53069265Y-77633003D01*
X53076457Y-77702501D01*
X53044934Y-77764856D01*
X53025640Y-77781574D01*
X53018606Y-77786498D01*
X53018597Y-77786506D01*
X52851505Y-77953597D01*
X52715965Y-78147169D01*
X52715964Y-78147171D01*
X52616098Y-78361335D01*
X52616094Y-78361344D01*
X52554938Y-78589586D01*
X52554936Y-78589596D01*
X52534341Y-78824999D01*
X52534341Y-78825000D01*
X52554936Y-79060403D01*
X52554938Y-79060413D01*
X52616094Y-79288655D01*
X52616096Y-79288659D01*
X52616097Y-79288663D01*
X52677341Y-79420000D01*
X52715965Y-79502830D01*
X52715967Y-79502834D01*
X52806615Y-79632292D01*
X52851505Y-79696401D01*
X53018599Y-79863495D01*
X53115384Y-79931265D01*
X53212165Y-79999032D01*
X53212167Y-79999033D01*
X53212170Y-79999035D01*
X53426337Y-80098903D01*
X53654592Y-80160063D01*
X53831034Y-80175500D01*
X53889999Y-80180659D01*
X53890000Y-80180659D01*
X53890001Y-80180659D01*
X53948966Y-80175500D01*
X54125408Y-80160063D01*
X54353663Y-80098903D01*
X54567830Y-79999035D01*
X54761401Y-79863495D01*
X54874207Y-79750688D01*
X54935526Y-79717206D01*
X55005218Y-79722190D01*
X55061152Y-79764061D01*
X55085569Y-79829525D01*
X55085413Y-79849179D01*
X55074843Y-79969997D01*
X55074843Y-79970001D01*
X55095430Y-80205315D01*
X55095432Y-80205326D01*
X55156566Y-80433483D01*
X55156570Y-80433492D01*
X55256400Y-80647579D01*
X55256402Y-80647583D01*
X55315072Y-80731373D01*
X55315073Y-80731373D01*
X55906212Y-80140234D01*
X55917482Y-80182292D01*
X55989890Y-80307708D01*
X56092292Y-80410110D01*
X56217708Y-80482518D01*
X56259765Y-80493787D01*
X55668625Y-81084925D01*
X55752421Y-81143599D01*
X55966507Y-81243429D01*
X55966516Y-81243433D01*
X56194673Y-81304567D01*
X56194684Y-81304569D01*
X56429998Y-81325157D01*
X56430002Y-81325157D01*
X56665315Y-81304569D01*
X56665326Y-81304567D01*
X56893483Y-81243433D01*
X56893492Y-81243429D01*
X57107578Y-81143600D01*
X57107582Y-81143598D01*
X57191373Y-81084926D01*
X57191373Y-81084925D01*
X56600234Y-80493787D01*
X56642292Y-80482518D01*
X56767708Y-80410110D01*
X56870110Y-80307708D01*
X56942518Y-80182292D01*
X56953787Y-80140235D01*
X57544925Y-80731373D01*
X57544926Y-80731373D01*
X57603598Y-80647582D01*
X57603600Y-80647578D01*
X57703429Y-80433492D01*
X57703433Y-80433483D01*
X57760618Y-80220063D01*
X57796983Y-80160402D01*
X57859829Y-80129873D01*
X57923725Y-80135973D01*
X58012517Y-80169091D01*
X58012516Y-80169091D01*
X58019444Y-80169835D01*
X58072127Y-80175500D01*
X59867872Y-80175499D01*
X59927483Y-80169091D01*
X60062331Y-80118796D01*
X60177546Y-80032546D01*
X60263796Y-79917331D01*
X60314091Y-79782483D01*
X60320500Y-79722873D01*
X60320499Y-77927128D01*
X60314091Y-77867517D01*
X60289214Y-77800819D01*
X60263797Y-77732671D01*
X60263793Y-77732664D01*
X60177547Y-77617455D01*
X60177544Y-77617452D01*
X60065840Y-77533830D01*
X60023969Y-77477896D01*
X60018985Y-77408205D01*
X60038574Y-77363442D01*
X60144035Y-77212830D01*
X60243903Y-76998663D01*
X60305063Y-76770408D01*
X60325659Y-76535000D01*
X60305063Y-76299592D01*
X60243903Y-76071337D01*
X60144035Y-75857171D01*
X60064480Y-75743553D01*
X60008494Y-75663597D01*
X59841402Y-75496506D01*
X59841396Y-75496501D01*
X59834363Y-75491577D01*
X59790736Y-75437002D01*
X59783541Y-75367504D01*
X59815061Y-75305148D01*
X59834363Y-75288423D01*
X59841392Y-75283501D01*
X59841401Y-75283495D01*
X60008495Y-75116401D01*
X60144035Y-74922830D01*
X60243903Y-74708663D01*
X60305063Y-74480408D01*
X60325659Y-74245000D01*
X60305063Y-74009592D01*
X60243903Y-73781337D01*
X60144035Y-73567171D01*
X60008495Y-73373599D01*
X60008494Y-73373597D01*
X59841402Y-73206506D01*
X59841396Y-73206501D01*
X59834363Y-73201577D01*
X59790736Y-73147002D01*
X59783541Y-73077504D01*
X59815061Y-73015148D01*
X59834363Y-72998423D01*
X59841392Y-72993501D01*
X59841401Y-72993495D01*
X60008495Y-72826401D01*
X60144035Y-72632830D01*
X60243903Y-72418663D01*
X60305063Y-72190408D01*
X60325659Y-71955000D01*
X60323403Y-71929220D01*
X60305063Y-71719596D01*
X60305063Y-71719592D01*
X60243903Y-71491337D01*
X60144035Y-71277171D01*
X60064480Y-71163553D01*
X60008494Y-71083597D01*
X59841404Y-70916508D01*
X59841396Y-70916501D01*
X59785109Y-70877089D01*
X59741484Y-70822512D01*
X59735668Y-70784220D01*
X59140234Y-70188787D01*
X59182292Y-70177518D01*
X59307708Y-70105110D01*
X59410110Y-70002708D01*
X59482518Y-69877292D01*
X59493787Y-69835235D01*
X60084925Y-70426373D01*
X60084926Y-70426373D01*
X60143598Y-70342582D01*
X60143600Y-70342578D01*
X60243429Y-70128492D01*
X60243433Y-70128483D01*
X60304567Y-69900326D01*
X60304569Y-69900315D01*
X60325157Y-69665001D01*
X60325157Y-69664998D01*
X60304569Y-69429684D01*
X60304567Y-69429673D01*
X60243433Y-69201516D01*
X60243429Y-69201507D01*
X60143600Y-68987423D01*
X60143599Y-68987421D01*
X60084925Y-68903626D01*
X60084925Y-68903625D01*
X59493787Y-69494764D01*
X59482518Y-69452708D01*
X59410110Y-69327292D01*
X59307708Y-69224890D01*
X59182292Y-69152482D01*
X59140234Y-69141212D01*
X59731373Y-68550073D01*
X59731373Y-68550072D01*
X59647583Y-68491402D01*
X59647579Y-68491400D01*
X59433492Y-68391570D01*
X59433483Y-68391566D01*
X59205326Y-68330432D01*
X59205315Y-68330430D01*
X58970002Y-68309843D01*
X58969998Y-68309843D01*
X58734684Y-68330430D01*
X58734673Y-68330432D01*
X58506516Y-68391566D01*
X58506507Y-68391570D01*
X58292419Y-68491401D01*
X58208625Y-68550072D01*
X58799765Y-69141212D01*
X58757708Y-69152482D01*
X58632292Y-69224890D01*
X58529890Y-69327292D01*
X58457482Y-69452708D01*
X58446212Y-69494765D01*
X57855072Y-68903625D01*
X57796401Y-68987419D01*
X57696570Y-69201507D01*
X57696566Y-69201516D01*
X57635432Y-69429673D01*
X57635430Y-69429684D01*
X57614843Y-69664998D01*
X57614843Y-69665001D01*
X57635903Y-69905715D01*
X57634683Y-69905821D01*
X57627599Y-69969295D01*
X57583538Y-70023521D01*
X57563426Y-70030124D01*
X56953787Y-70639764D01*
X56942518Y-70597708D01*
X56870110Y-70472292D01*
X56767708Y-70369890D01*
X56642292Y-70297482D01*
X56600234Y-70286212D01*
X57191373Y-69695073D01*
X57191373Y-69695072D01*
X57107583Y-69636402D01*
X57107579Y-69636400D01*
X56893492Y-69536570D01*
X56893483Y-69536566D01*
X56665326Y-69475432D01*
X56665315Y-69475430D01*
X56430002Y-69454843D01*
X56429998Y-69454843D01*
X56194684Y-69475430D01*
X56194673Y-69475432D01*
X55966516Y-69536566D01*
X55966507Y-69536570D01*
X55752419Y-69636401D01*
X55668625Y-69695072D01*
X56259765Y-70286212D01*
X56217708Y-70297482D01*
X56092292Y-70369890D01*
X55989890Y-70472292D01*
X55917482Y-70597708D01*
X55906212Y-70639765D01*
X55299538Y-70033091D01*
X55289587Y-70031091D01*
X55239406Y-69982474D01*
X55223477Y-69914444D01*
X55224947Y-69901722D01*
X55225061Y-69900413D01*
X55225063Y-69900408D01*
X55245659Y-69665000D01*
X55225063Y-69429592D01*
X55163903Y-69201337D01*
X55064035Y-68987171D01*
X55005537Y-68903626D01*
X54928494Y-68793597D01*
X54761402Y-68626506D01*
X54761395Y-68626501D01*
X54567834Y-68490967D01*
X54567830Y-68490965D01*
X54567828Y-68490964D01*
X54353663Y-68391097D01*
X54353659Y-68391096D01*
X54353655Y-68391094D01*
X54125413Y-68329938D01*
X54125403Y-68329936D01*
X53890001Y-68309341D01*
X53889999Y-68309341D01*
X53654596Y-68329936D01*
X53654586Y-68329938D01*
X53426344Y-68391094D01*
X53426335Y-68391098D01*
X53212171Y-68490964D01*
X53212169Y-68490965D01*
X53018597Y-68626505D01*
X52851505Y-68793597D01*
X52715965Y-68987169D01*
X52715964Y-68987171D01*
X52616098Y-69201335D01*
X52616094Y-69201344D01*
X52554938Y-69429586D01*
X52554936Y-69429596D01*
X52534341Y-69664999D01*
X50500500Y-69664999D01*
X50500500Y-60124000D01*
X50520185Y-60056961D01*
X50572989Y-60011206D01*
X50624500Y-60000000D01*
X54732191Y-60000000D01*
X54799230Y-60019685D01*
X54819872Y-60036319D01*
X55489301Y-60705748D01*
X55387670Y-60779588D01*
X55209588Y-60957670D01*
X55135748Y-61059300D01*
X54494286Y-60417838D01*
X54494285Y-60417838D01*
X54403459Y-60527629D01*
X54403457Y-60527632D01*
X54234903Y-60793232D01*
X54234900Y-60793238D01*
X54100965Y-61077862D01*
X54100963Y-61077867D01*
X54003755Y-61377041D01*
X53944808Y-61686050D01*
X53944807Y-61686057D01*
X53925057Y-61999994D01*
X53925057Y-62000005D01*
X53944807Y-62313942D01*
X53944808Y-62313949D01*
X54003755Y-62622958D01*
X54100963Y-62922132D01*
X54100965Y-62922137D01*
X54234900Y-63206761D01*
X54234903Y-63206767D01*
X54403457Y-63472367D01*
X54403460Y-63472371D01*
X54494286Y-63582160D01*
X55135748Y-62940698D01*
X55209588Y-63042330D01*
X55387670Y-63220412D01*
X55489300Y-63294250D01*
X54844971Y-63938579D01*
X54844972Y-63938581D01*
X55087772Y-64114985D01*
X55087790Y-64114996D01*
X55363447Y-64266540D01*
X55363455Y-64266544D01*
X55655926Y-64382340D01*
X55960620Y-64460573D01*
X55960629Y-64460575D01*
X56272701Y-64499999D01*
X56272715Y-64500000D01*
X56587285Y-64500000D01*
X56587298Y-64499999D01*
X56899370Y-64460575D01*
X56899379Y-64460573D01*
X57204073Y-64382340D01*
X57496544Y-64266544D01*
X57496552Y-64266540D01*
X57772209Y-64114996D01*
X57772219Y-64114990D01*
X58015026Y-63938579D01*
X58015027Y-63938579D01*
X57370698Y-63294251D01*
X57472330Y-63220412D01*
X57650412Y-63042330D01*
X57724251Y-62940698D01*
X58365712Y-63582160D01*
X58456544Y-63472364D01*
X58625096Y-63206767D01*
X58625099Y-63206761D01*
X58759034Y-62922137D01*
X58759036Y-62922132D01*
X58856244Y-62622958D01*
X58915191Y-62313949D01*
X58915192Y-62313942D01*
X58934943Y-62000005D01*
X58934943Y-61999994D01*
X58915192Y-61686057D01*
X58915191Y-61686050D01*
X58856244Y-61377041D01*
X58759036Y-61077867D01*
X58759034Y-61077862D01*
X58625099Y-60793238D01*
X58625096Y-60793232D01*
X58456542Y-60527632D01*
X58456539Y-60527628D01*
X58365712Y-60417838D01*
X57724250Y-61059300D01*
X57650412Y-60957670D01*
X57472330Y-60779588D01*
X57370698Y-60705748D01*
X58040128Y-60036319D01*
X58101451Y-60002834D01*
X58127809Y-60000000D01*
X60000000Y-60000000D01*
X60000000Y-50624500D01*
X60019685Y-50557461D01*
X60072489Y-50511706D01*
X60124000Y-50500500D01*
X139876000Y-50500500D01*
X139943039Y-50520185D01*
G37*
%TD.AperFunction*%
%TD*%
M02*
