%TF.GenerationSoftware,KiCad,Pcbnew,8.0.6*%
%TF.CreationDate,2025-01-21T08:23:12-05:00*%
%TF.ProjectId,vga_test,7667615f-7465-4737-942e-6b696361645f,rev?*%
%TF.SameCoordinates,Original*%
%TF.FileFunction,Copper,L1,Top*%
%TF.FilePolarity,Positive*%
%FSLAX46Y46*%
G04 Gerber Fmt 4.6, Leading zero omitted, Abs format (unit mm)*
G04 Created by KiCad (PCBNEW 8.0.6) date 2025-01-21 08:23:12*
%MOMM*%
%LPD*%
G01*
G04 APERTURE LIST*
G04 Aperture macros list*
%AMRoundRect*
0 Rectangle with rounded corners*
0 $1 Rounding radius*
0 $2 $3 $4 $5 $6 $7 $8 $9 X,Y pos of 4 corners*
0 Add a 4 corners polygon primitive as box body*
4,1,4,$2,$3,$4,$5,$6,$7,$8,$9,$2,$3,0*
0 Add four circle primitives for the rounded corners*
1,1,$1+$1,$2,$3*
1,1,$1+$1,$4,$5*
1,1,$1+$1,$6,$7*
1,1,$1+$1,$8,$9*
0 Add four rect primitives between the rounded corners*
20,1,$1+$1,$2,$3,$4,$5,0*
20,1,$1+$1,$4,$5,$6,$7,0*
20,1,$1+$1,$6,$7,$8,$9,0*
20,1,$1+$1,$8,$9,$2,$3,0*%
G04 Aperture macros list end*
%TA.AperFunction,ComponentPad*%
%ADD10R,1.700000X1.700000*%
%TD*%
%TA.AperFunction,ComponentPad*%
%ADD11O,1.700000X1.700000*%
%TD*%
%TA.AperFunction,ComponentPad*%
%ADD12R,1.530000X1.530000*%
%TD*%
%TA.AperFunction,ComponentPad*%
%ADD13C,1.530000*%
%TD*%
%TA.AperFunction,SMDPad,CuDef*%
%ADD14RoundRect,0.250000X0.450000X-0.350000X0.450000X0.350000X-0.450000X0.350000X-0.450000X-0.350000X0*%
%TD*%
%TA.AperFunction,ComponentPad*%
%ADD15C,4.000000*%
%TD*%
%TA.AperFunction,ComponentPad*%
%ADD16C,1.700000*%
%TD*%
%TA.AperFunction,SMDPad,CuDef*%
%ADD17RoundRect,0.250000X-0.350000X-0.450000X0.350000X-0.450000X0.350000X0.450000X-0.350000X0.450000X0*%
%TD*%
%TA.AperFunction,ViaPad*%
%ADD18C,0.600000*%
%TD*%
%TA.AperFunction,Conductor*%
%ADD19C,0.500000*%
%TD*%
%TA.AperFunction,Conductor*%
%ADD20C,0.250000*%
%TD*%
G04 APERTURE END LIST*
D10*
%TO.P,J12,1,Pin_1*%
%TO.N,/IO08*%
X107220000Y-96500000D03*
D11*
%TO.P,J12,2,Pin_2*%
%TO.N,/IO09*%
X109760000Y-96500000D03*
%TO.P,J12,3,Pin_3*%
%TO.N,/IO10*%
X112300000Y-96500000D03*
%TO.P,J12,4,Pin_4*%
%TO.N,/IO11*%
X114840000Y-96500000D03*
%TO.P,J12,5,Pin_5*%
%TO.N,/IO12*%
X117380000Y-96500000D03*
%TO.P,J12,6,Pin_6*%
%TO.N,/IO13*%
X119920000Y-96500000D03*
%TO.P,J12,7,Pin_7*%
%TO.N,/IO14*%
X122460000Y-96500000D03*
%TO.P,J12,8,Pin_8*%
%TO.N,/IO15*%
X125000000Y-96500000D03*
%TD*%
D10*
%TO.P,J4,1,Pin_1*%
%TO.N,/3v3*%
X73975000Y-96500000D03*
D11*
%TO.P,J4,2,Pin_2*%
X76515000Y-96500000D03*
%TO.P,J4,3,Pin_3*%
X79055000Y-96500000D03*
%TD*%
D10*
%TO.P,J3,1,Pin_1*%
%TO.N,/5v*%
X131460000Y-94500000D03*
D11*
%TO.P,J3,2,Pin_2*%
X134000000Y-94500000D03*
%TO.P,J3,3,Pin_3*%
X131460000Y-97040000D03*
%TO.P,J3,4,Pin_4*%
X134000000Y-97040000D03*
%TD*%
D12*
%TO.P,U1,J1_1,3V3*%
%TO.N,/3v3*%
X74470000Y-87660000D03*
D13*
%TO.P,U1,J1_2,3V3*%
X77010000Y-87660000D03*
%TO.P,U1,J1_3,RST*%
%TO.N,/RST*%
X79550000Y-87660000D03*
%TO.P,U1,J1_4,GPIO4*%
%TO.N,/IO04*%
X82090000Y-87660000D03*
%TO.P,U1,J1_5,GPIO5*%
%TO.N,/IO05*%
X84630000Y-87660000D03*
%TO.P,U1,J1_6,GPIO6*%
%TO.N,/IO06*%
X87170000Y-87660000D03*
%TO.P,U1,J1_7,GPIO7*%
%TO.N,/IO07*%
X89710000Y-87660000D03*
%TO.P,U1,J1_8,GPIO15*%
%TO.N,/IO15*%
X92250000Y-87660000D03*
%TO.P,U1,J1_9,GPIO16*%
%TO.N,/IO16*%
X94790000Y-87660000D03*
%TO.P,U1,J1_10,GPIO17*%
%TO.N,/IO17*%
X97330000Y-87660000D03*
%TO.P,U1,J1_11,GPIO18*%
%TO.N,/IO18*%
X99870000Y-87660000D03*
%TO.P,U1,J1_12,GPIO8*%
%TO.N,/IO08*%
X102410000Y-87660000D03*
%TO.P,U1,J1_13,GPIO3*%
%TO.N,/IO03*%
X104950000Y-87660000D03*
%TO.P,U1,J1_14,GPIO46*%
%TO.N,/IO46*%
X107490000Y-87660000D03*
%TO.P,U1,J1_15,GPIO9*%
%TO.N,/IO09*%
X110030000Y-87660000D03*
%TO.P,U1,J1_16,GPIO10*%
%TO.N,/IO10*%
X112570000Y-87660000D03*
%TO.P,U1,J1_17,GPIO11*%
%TO.N,/IO11*%
X115110000Y-87660000D03*
%TO.P,U1,J1_18,GPIO12*%
%TO.N,/IO12*%
X117650000Y-87660000D03*
%TO.P,U1,J1_19,GPIO13*%
%TO.N,/IO13*%
X120190000Y-87660000D03*
%TO.P,U1,J1_20,GPIO14*%
%TO.N,/IO14*%
X122730000Y-87660000D03*
%TO.P,U1,J1_21,5V0*%
%TO.N,/5v*%
X125270000Y-87660000D03*
%TO.P,U1,J1_22,GND*%
%TO.N,GND*%
X127810000Y-87660000D03*
%TO.P,U1,J3_1,GND*%
X74470000Y-62200000D03*
%TO.P,U1,J3_2,U0TXD/GPIO43*%
%TO.N,/IO43*%
X77010000Y-62200000D03*
%TO.P,U1,J3_3,U0RXD/GPIO44*%
%TO.N,/IO44*%
X79550000Y-62200000D03*
%TO.P,U1,J3_4,GPIO1*%
%TO.N,HSYNC*%
X82090000Y-62200000D03*
%TO.P,U1,J3_5,GPIO2*%
%TO.N,VSYNK*%
X84630000Y-62200000D03*
%TO.P,U1,J3_6,MTMS/GPIO42*%
%TO.N,/IO42*%
X87170000Y-62200000D03*
%TO.P,U1,J3_7,MTDI/GPIO41*%
%TO.N,/IO41*%
X89710000Y-62200000D03*
%TO.P,U1,J3_8,MTDO/GPIO40*%
%TO.N,/IO40*%
X92250000Y-62200000D03*
%TO.P,U1,J3_9,MTCK/GPIO39*%
%TO.N,/IO39*%
X94790000Y-62200000D03*
%TO.P,U1,J3_10,GPIO38*%
%TO.N,/IO38*%
X97330000Y-62200000D03*
%TO.P,U1,J3_11,GPIO37*%
%TO.N,/IO37*%
X99870000Y-62200000D03*
%TO.P,U1,J3_12,GPIO36*%
%TO.N,/IO36*%
X102410000Y-62200000D03*
%TO.P,U1,J3_13,GPIO35*%
%TO.N,/IO35*%
X104950000Y-62200000D03*
%TO.P,U1,J3_14,GPIO0*%
%TO.N,/IO00*%
X107490000Y-62200000D03*
%TO.P,U1,J3_15,GPIO45*%
%TO.N,/IO45*%
X110030000Y-62200000D03*
%TO.P,U1,J3_16,GPIO48*%
%TO.N,/IO48*%
X112570000Y-62200000D03*
%TO.P,U1,J3_17,GPIO47*%
%TO.N,/IO47*%
X115110000Y-62200000D03*
%TO.P,U1,J3_18,GPIO21*%
%TO.N,/IO21*%
X117650000Y-62200000D03*
%TO.P,U1,J3_19,USB_D+/GPIO20*%
%TO.N,/IO19*%
X120190000Y-62200000D03*
%TO.P,U1,J3_20,USB_D-/GPIO19*%
%TO.N,/IO20*%
X122730000Y-62200000D03*
%TO.P,U1,J3_21,GND*%
%TO.N,GND*%
X125270000Y-62200000D03*
%TO.P,U1,J3_22,GND*%
X127810000Y-62200000D03*
%TD*%
D14*
%TO.P,R18,1*%
%TO.N,BLUE*%
X99500000Y-93500000D03*
%TO.P,R18,2*%
%TO.N,/IO18*%
X99500000Y-91500000D03*
%TD*%
D10*
%TO.P,J11,1,Pin_1*%
%TO.N,GND*%
X63960000Y-94460000D03*
D11*
%TO.P,J11,2,Pin_2*%
X66500000Y-94460000D03*
%TO.P,J11,3,Pin_3*%
X63960000Y-97000000D03*
%TO.P,J11,4,Pin_4*%
X66500000Y-97000000D03*
%TD*%
D15*
%TO.P,J1,0*%
%TO.N,GND*%
X56430000Y-86990000D03*
X56430000Y-62000000D03*
D10*
%TO.P,J1,1*%
%TO.N,RED*%
X58970000Y-78825000D03*
D16*
%TO.P,J1,2*%
%TO.N,GREEN*%
X58970000Y-76535000D03*
%TO.P,J1,3*%
%TO.N,BLUE*%
X58970000Y-74245000D03*
%TO.P,J1,4*%
%TO.N,unconnected-(J1-Pad4)*%
X58970000Y-71955000D03*
%TO.P,J1,5*%
%TO.N,GND*%
X58970000Y-69665000D03*
%TO.P,J1,6*%
X56430000Y-79970000D03*
%TO.P,J1,7*%
X56430000Y-77680000D03*
%TO.P,J1,8*%
X56430000Y-75390000D03*
%TO.P,J1,9*%
%TO.N,unconnected-(J1-Pad9)*%
X56430000Y-73100000D03*
%TO.P,J1,10*%
%TO.N,GND*%
X56430000Y-70810000D03*
%TO.P,J1,11*%
%TO.N,unconnected-(J1-Pad11)*%
X53890000Y-78825000D03*
%TO.P,J1,12*%
%TO.N,unconnected-(J1-Pad12)*%
X53890000Y-76535000D03*
%TO.P,J1,13*%
%TO.N,Net-(J1-Pad13)*%
X53890000Y-74245000D03*
%TO.P,J1,14*%
%TO.N,Net-(J1-Pad14)*%
X53890000Y-71955000D03*
%TO.P,J1,15*%
%TO.N,unconnected-(J1-Pad15)*%
X53890000Y-69665000D03*
%TD*%
D10*
%TO.P,J2,1,Pin_1*%
%TO.N,GND*%
X131920000Y-57540000D03*
D11*
%TO.P,J2,2,Pin_2*%
X131920000Y-55000000D03*
%TO.P,J2,3,Pin_3*%
X134460000Y-57540000D03*
%TO.P,J2,4,Pin_4*%
X134460000Y-55000000D03*
%TO.P,J2,5,Pin_5*%
X137000000Y-57540000D03*
%TO.P,J2,6,Pin_6*%
X137000000Y-55000000D03*
%TD*%
D14*
%TO.P,R12,1*%
%TO.N,GREEN*%
X117500000Y-93500000D03*
%TO.P,R12,2*%
%TO.N,/IO12*%
X117500000Y-91500000D03*
%TD*%
D17*
%TO.P,R1,1*%
%TO.N,Net-(J1-Pad14)*%
X83500000Y-59000000D03*
%TO.P,R1,2*%
%TO.N,VSYNK*%
X85500000Y-59000000D03*
%TD*%
%TO.P,R19,1*%
%TO.N,BLUE*%
X115000000Y-59000000D03*
%TO.P,R19,2*%
%TO.N,/IO21*%
X117000000Y-59000000D03*
%TD*%
D14*
%TO.P,R4,1*%
%TO.N,RED*%
X84500000Y-93500000D03*
%TO.P,R4,2*%
%TO.N,/IO05*%
X84500000Y-91500000D03*
%TD*%
%TO.P,R8,1*%
%TO.N,RED*%
X102500000Y-93500000D03*
%TO.P,R8,2*%
%TO.N,/IO08*%
X102500000Y-91500000D03*
%TD*%
%TO.P,R17,1*%
%TO.N,BLUE*%
X97000000Y-93500000D03*
%TO.P,R17,2*%
%TO.N,/IO17*%
X97000000Y-91500000D03*
%TD*%
%TO.P,R13,1*%
%TO.N,GREEN*%
X120000000Y-93500000D03*
%TO.P,R13,2*%
%TO.N,/IO13*%
X120000000Y-91500000D03*
%TD*%
%TO.P,R9,1*%
%TO.N,GREEN*%
X110000000Y-93500000D03*
%TO.P,R9,2*%
%TO.N,/IO09*%
X110000000Y-91500000D03*
%TD*%
%TO.P,R10,1*%
%TO.N,GREEN*%
X112500000Y-93500000D03*
%TO.P,R10,2*%
%TO.N,/IO10*%
X112500000Y-91500000D03*
%TD*%
D10*
%TO.P,J9,1,Pin_1*%
%TO.N,/IO20*%
X125500000Y-55500000D03*
D11*
%TO.P,J9,2,Pin_2*%
%TO.N,/IO19*%
X122960000Y-55500000D03*
%TD*%
D14*
%TO.P,R7,1*%
%TO.N,RED*%
X89500000Y-93500000D03*
%TO.P,R7,2*%
%TO.N,/IO07*%
X89500000Y-91500000D03*
%TD*%
%TO.P,R16,1*%
%TO.N,BLUE*%
X94500000Y-93500000D03*
%TO.P,R16,2*%
%TO.N,/IO16*%
X94500000Y-91500000D03*
%TD*%
%TO.P,R14,1*%
%TO.N,GREEN*%
X122000000Y-93500000D03*
%TO.P,R14,2*%
%TO.N,/IO14*%
X122000000Y-91500000D03*
%TD*%
%TO.P,R11,1*%
%TO.N,GREEN*%
X115000000Y-93500000D03*
%TO.P,R11,2*%
%TO.N,/IO11*%
X115000000Y-91500000D03*
%TD*%
%TO.P,R3,1*%
%TO.N,RED*%
X82000000Y-93500000D03*
%TO.P,R3,2*%
%TO.N,/IO04*%
X82000000Y-91500000D03*
%TD*%
D10*
%TO.P,J8,1,Pin_1*%
%TO.N,/IO43*%
X76960000Y-55500000D03*
D11*
%TO.P,J8,2,Pin_2*%
%TO.N,/IO44*%
X79500000Y-55500000D03*
%TD*%
D10*
%TO.P,J7,1,Pin_1*%
%TO.N,/IO39*%
X94080000Y-55500000D03*
D11*
%TO.P,J7,2,Pin_2*%
%TO.N,/IO40*%
X91540000Y-55500000D03*
%TO.P,J7,3,Pin_3*%
%TO.N,/IO41*%
X89000000Y-55500000D03*
%TO.P,J7,4,Pin_4*%
%TO.N,/IO42*%
X86460000Y-55500000D03*
%TD*%
D10*
%TO.P,J5,1,Pin_1*%
%TO.N,/IO35*%
X105540000Y-55500000D03*
D11*
%TO.P,J5,2,Pin_2*%
%TO.N,/IO36*%
X103000000Y-55500000D03*
%TO.P,J5,3,Pin_3*%
%TO.N,/IO37*%
X100460000Y-55500000D03*
%TO.P,J5,4,Pin_4*%
%TO.N,/IO38*%
X97920000Y-55500000D03*
%TD*%
D10*
%TO.P,J10,1,Pin_1*%
%TO.N,/IO04*%
X83380000Y-96500000D03*
D11*
%TO.P,J10,2,Pin_2*%
%TO.N,/IO05*%
X85920000Y-96500000D03*
%TO.P,J10,3,Pin_3*%
%TO.N,/IO06*%
X88460000Y-96500000D03*
%TO.P,J10,4,Pin_4*%
%TO.N,/IO07*%
X91000000Y-96500000D03*
%TD*%
D17*
%TO.P,R2,1*%
%TO.N,Net-(J1-Pad13)*%
X78500000Y-59500000D03*
%TO.P,R2,2*%
%TO.N,HSYNC*%
X80500000Y-59500000D03*
%TD*%
D14*
%TO.P,R15,1*%
%TO.N,BLUE*%
X92000000Y-93500000D03*
%TO.P,R15,2*%
%TO.N,/IO15*%
X92000000Y-91500000D03*
%TD*%
%TO.P,R5,1*%
%TO.N,RED*%
X87000000Y-93500000D03*
%TO.P,R5,2*%
%TO.N,/IO06*%
X87000000Y-91500000D03*
%TD*%
D10*
%TO.P,J6,1,Pin_1*%
%TO.N,/IO45*%
X110960000Y-55500000D03*
D11*
%TO.P,J6,2,Pin_2*%
%TO.N,/IO46*%
X113500000Y-55500000D03*
%TO.P,J6,3,Pin_3*%
%TO.N,/IO47*%
X116040000Y-55500000D03*
%TO.P,J6,4,Pin_4*%
%TO.N,/IO48*%
X118580000Y-55500000D03*
%TD*%
D18*
%TO.N,RED*%
X90500000Y-93500000D03*
X104000000Y-93500000D03*
%TD*%
D19*
%TO.N,/5v*%
X125270000Y-93730000D02*
X125000000Y-94000000D01*
X125270000Y-87660000D02*
X125270000Y-93730000D01*
X125000000Y-94000000D02*
X125500000Y-94500000D01*
X125500000Y-94500000D02*
X131460000Y-94500000D01*
X131460000Y-94500000D02*
X131460000Y-97040000D01*
X131460000Y-97040000D02*
X134000000Y-97040000D01*
X134000000Y-94500000D02*
X134000000Y-97040000D01*
D20*
%TO.N,HSYNC*%
X80500000Y-59500000D02*
X80500000Y-60340000D01*
X80500000Y-60340000D02*
X82090000Y-61930000D01*
%TO.N,RED*%
X102500000Y-93500000D02*
X104000000Y-93500000D01*
X82000000Y-93500000D02*
X89500000Y-93500000D01*
X82000000Y-93500000D02*
X72500000Y-93500000D01*
X72145000Y-92000000D02*
X72145000Y-93145000D01*
X58970000Y-78825000D02*
X72145000Y-92000000D01*
X89500000Y-93500000D02*
X90500000Y-93500000D01*
X72145000Y-93145000D02*
X72500000Y-93500000D01*
%TO.N,GREEN*%
X73360000Y-92285000D02*
X73500000Y-92425000D01*
X73360000Y-90925000D02*
X73360000Y-92285000D01*
X108925000Y-92425000D02*
X73500000Y-92425000D01*
X73500000Y-92425000D02*
X73360000Y-92425000D01*
X73360000Y-90925000D02*
X58970000Y-76535000D01*
X122000000Y-93500000D02*
X110000000Y-93500000D01*
X110000000Y-93500000D02*
X108925000Y-92425000D01*
%TO.N,Net-(J1-Pad13)*%
X78500000Y-59500000D02*
X66000000Y-59500000D01*
X55065000Y-73070000D02*
X53890000Y-74245000D01*
X66000000Y-59500000D02*
X56321701Y-69178299D01*
X56321701Y-69178299D02*
X55065000Y-69178299D01*
X55065000Y-69178299D02*
X55065000Y-73070000D01*
%TO.N,BLUE*%
X111029900Y-91970100D02*
X111029900Y-92100000D01*
X111120746Y-85879254D02*
X111150000Y-85908507D01*
X123025000Y-92904900D02*
X123025000Y-94095100D01*
X108580000Y-83338508D02*
X111120746Y-85879254D01*
X123025000Y-94095100D02*
X122695100Y-94425000D01*
X92000000Y-93500000D02*
X99375000Y-93500000D01*
X122695100Y-92575000D02*
X123025000Y-92904900D01*
X111150000Y-91970100D02*
X111029900Y-91970100D01*
X70720000Y-92925000D02*
X57605000Y-79810000D01*
X111000000Y-59000000D02*
X115000000Y-59000000D01*
X92000000Y-93500000D02*
X91075000Y-94425000D01*
X108580000Y-61478507D02*
X108550747Y-61449253D01*
X91075000Y-94425000D02*
X70720000Y-94425000D01*
X57605000Y-75610000D02*
X58970000Y-74245000D01*
X111029900Y-92100000D02*
X111504900Y-92575000D01*
X108550747Y-61449253D02*
X111000000Y-59000000D01*
X100425000Y-94425000D02*
X99500000Y-93500000D01*
X57605000Y-79810000D02*
X57605000Y-75610000D01*
X108550747Y-61449253D02*
X108580000Y-61478506D01*
X122695100Y-94425000D02*
X100425000Y-94425000D01*
X111150000Y-85908507D02*
X111150000Y-91970100D01*
X111504900Y-92575000D02*
X122695100Y-92575000D01*
X108580000Y-61478506D02*
X108580000Y-83338508D01*
X70720000Y-92925000D02*
X70720000Y-94425000D01*
%TO.N,Net-(J1-Pad14)*%
X63525000Y-58475000D02*
X53510000Y-68490000D01*
X52715000Y-70780000D02*
X53890000Y-71955000D01*
X52715000Y-69178299D02*
X52715000Y-70780000D01*
X53510000Y-68490000D02*
X53403299Y-68490000D01*
X83500000Y-59000000D02*
X82975000Y-58475000D01*
X82975000Y-58475000D02*
X63525000Y-58475000D01*
X53403299Y-68490000D02*
X52715000Y-69178299D01*
%TO.N,VSYNK*%
X84630000Y-61930000D02*
X84630000Y-59870000D01*
X84630000Y-59870000D02*
X85500000Y-59000000D01*
%TO.N,/IO04*%
X82000000Y-87520000D02*
X82000000Y-91500000D01*
X82090000Y-87430000D02*
X82000000Y-87520000D01*
%TO.N,/IO05*%
X84500000Y-87560000D02*
X84500000Y-91500000D01*
X84630000Y-87430000D02*
X84500000Y-87560000D01*
%TO.N,/IO06*%
X87000000Y-87600000D02*
X87170000Y-87430000D01*
X87000000Y-91500000D02*
X87000000Y-87600000D01*
X87170000Y-91330000D02*
X87000000Y-91500000D01*
%TO.N,/IO07*%
X89500000Y-87640000D02*
X89710000Y-87430000D01*
X89500000Y-91500000D02*
X89500000Y-87640000D01*
%TO.N,/IO08*%
X102410000Y-87430000D02*
X102500000Y-87520000D01*
X102500000Y-87520000D02*
X102500000Y-91500000D01*
%TO.N,/IO09*%
X110060000Y-91440000D02*
X110000000Y-91500000D01*
X110000000Y-89560000D02*
X110000000Y-91500000D01*
X110000000Y-89560000D02*
X110030000Y-89530000D01*
X110030000Y-89530000D02*
X110030000Y-87430000D01*
%TO.N,/IO10*%
X112500000Y-91500000D02*
X112500000Y-89500000D01*
X112500000Y-89500000D02*
X112570000Y-89430000D01*
X112570000Y-89430000D02*
X112570000Y-87430000D01*
X112600000Y-91400000D02*
X112500000Y-91500000D01*
%TO.N,/IO11*%
X115000000Y-90000000D02*
X115000000Y-91500000D01*
X115110000Y-89830000D02*
X115110000Y-87430000D01*
X115140000Y-89860000D02*
X115110000Y-89830000D01*
X115140000Y-91360000D02*
X115000000Y-91500000D01*
X115140000Y-89860000D02*
X115000000Y-90000000D01*
%TO.N,/IO12*%
X117680000Y-89820000D02*
X117650000Y-89790000D01*
X117680000Y-89820000D02*
X117500000Y-90000000D01*
X117500000Y-90000000D02*
X117500000Y-91500000D01*
X117680000Y-91320000D02*
X117500000Y-91500000D01*
X117650000Y-89790000D02*
X117650000Y-87430000D01*
%TO.N,/IO13*%
X120190000Y-89750000D02*
X120190000Y-87430000D01*
X120000000Y-90000000D02*
X120000000Y-91500000D01*
X120220000Y-89780000D02*
X120000000Y-90000000D01*
X120220000Y-91280000D02*
X120000000Y-91500000D01*
X120220000Y-89780000D02*
X120190000Y-89750000D01*
%TO.N,/IO14*%
X122730000Y-90710000D02*
X122730000Y-87430000D01*
X122760000Y-90740000D02*
X122000000Y-91500000D01*
X122760000Y-90740000D02*
X122730000Y-90710000D01*
%TO.N,/IO15*%
X92000000Y-87680000D02*
X92000000Y-91500000D01*
X92250000Y-87430000D02*
X92000000Y-87680000D01*
%TO.N,/IO16*%
X94790000Y-91210000D02*
X94500000Y-91500000D01*
X94790000Y-86970000D02*
X94790000Y-91210000D01*
%TO.N,/IO17*%
X97000000Y-87760000D02*
X97000000Y-91500000D01*
X97330000Y-87430000D02*
X97000000Y-87760000D01*
%TO.N,/IO18*%
X99870000Y-91130000D02*
X99500000Y-91500000D01*
X99870000Y-87130000D02*
X99870000Y-91130000D01*
%TO.N,/IO21*%
X117650000Y-60650000D02*
X117650000Y-61930000D01*
X117000000Y-59000000D02*
X117000000Y-60000000D01*
X117000000Y-60000000D02*
X117650000Y-60650000D01*
D19*
%TO.N,/5v*%
X125270000Y-87430000D02*
X125300000Y-87460000D01*
%TO.N,/3v3*%
X74470000Y-87430000D02*
X77010000Y-87430000D01*
D20*
%TO.N,/IO36*%
X102440000Y-61930000D02*
X102440000Y-56060000D01*
X102440000Y-56060000D02*
X103000000Y-55500000D01*
%TO.N,/IO35*%
X104980000Y-61930000D02*
X104980000Y-56060000D01*
X104980000Y-56060000D02*
X105540000Y-55500000D01*
%TO.N,/IO37*%
X99900000Y-61930000D02*
X99900000Y-56060000D01*
X99900000Y-56060000D02*
X100460000Y-55500000D01*
%TO.N,/IO38*%
X97360000Y-56060000D02*
X97920000Y-55500000D01*
X97360000Y-61930000D02*
X97360000Y-56060000D01*
%TO.N,/IO41*%
X89740000Y-62500000D02*
X89710000Y-62470000D01*
X89710000Y-56210000D02*
X89000000Y-55500000D01*
X89710000Y-62470000D02*
X89710000Y-55210000D01*
%TO.N,/IO42*%
X87170000Y-61930000D02*
X87170000Y-56210000D01*
X87170000Y-56210000D02*
X86460000Y-55500000D01*
%TO.N,/IO39*%
X94820000Y-56240000D02*
X94080000Y-55500000D01*
X94820000Y-61930000D02*
X94820000Y-56240000D01*
%TO.N,/IO40*%
X92280000Y-61930000D02*
X92280000Y-56240000D01*
X92280000Y-56240000D02*
X91540000Y-55500000D01*
%TO.N,/IO19*%
X120220000Y-58240000D02*
X122960000Y-55500000D01*
X120220000Y-61930000D02*
X120220000Y-58240000D01*
%TO.N,/IO20*%
X122760000Y-61930000D02*
X122760000Y-58240000D01*
X122760000Y-58240000D02*
X125500000Y-55500000D01*
%TD*%
M02*
