%TF.GenerationSoftware,KiCad,Pcbnew,8.0.6*%
%TF.CreationDate,2025-01-21T08:23:13-05:00*%
%TF.ProjectId,vga_test,7667615f-7465-4737-942e-6b696361645f,rev?*%
%TF.SameCoordinates,Original*%
%TF.FileFunction,Soldermask,Bot*%
%TF.FilePolarity,Negative*%
%FSLAX46Y46*%
G04 Gerber Fmt 4.6, Leading zero omitted, Abs format (unit mm)*
G04 Created by KiCad (PCBNEW 8.0.6) date 2025-01-21 08:23:13*
%MOMM*%
%LPD*%
G01*
G04 APERTURE LIST*
G04 Aperture macros list*
%AMRoundRect*
0 Rectangle with rounded corners*
0 $1 Rounding radius*
0 $2 $3 $4 $5 $6 $7 $8 $9 X,Y pos of 4 corners*
0 Add a 4 corners polygon primitive as box body*
4,1,4,$2,$3,$4,$5,$6,$7,$8,$9,$2,$3,0*
0 Add four circle primitives for the rounded corners*
1,1,$1+$1,$2,$3*
1,1,$1+$1,$4,$5*
1,1,$1+$1,$6,$7*
1,1,$1+$1,$8,$9*
0 Add four rect primitives between the rounded corners*
20,1,$1+$1,$2,$3,$4,$5,0*
20,1,$1+$1,$4,$5,$6,$7,0*
20,1,$1+$1,$6,$7,$8,$9,0*
20,1,$1+$1,$8,$9,$2,$3,0*%
G04 Aperture macros list end*
%ADD10R,1.700000X1.700000*%
%ADD11O,1.700000X1.700000*%
%ADD12RoundRect,0.102000X0.765000X-0.765000X0.765000X0.765000X-0.765000X0.765000X-0.765000X-0.765000X0*%
%ADD13C,1.734000*%
%ADD14C,4.000000*%
%ADD15C,1.700000*%
%ADD16C,3.200000*%
%ADD17R,1.000000X1.000000*%
G04 APERTURE END LIST*
D10*
%TO.C,J12*%
X107220000Y-96500000D03*
D11*
X109760000Y-96500000D03*
X112300000Y-96500000D03*
X114840000Y-96500000D03*
X117380000Y-96500000D03*
X119920000Y-96500000D03*
X122460000Y-96500000D03*
X125000000Y-96500000D03*
%TD*%
D10*
%TO.C,J4*%
X73975000Y-96500000D03*
D11*
X76515000Y-96500000D03*
X79055000Y-96500000D03*
%TD*%
D10*
%TO.C,J3*%
X131460000Y-94500000D03*
D11*
X134000000Y-94500000D03*
X131460000Y-97040000D03*
X134000000Y-97040000D03*
%TD*%
D12*
%TO.C,U1*%
X74470000Y-87660000D03*
D13*
X77010000Y-87660000D03*
X79550000Y-87660000D03*
X82090000Y-87660000D03*
X84630000Y-87660000D03*
X87170000Y-87660000D03*
X89710000Y-87660000D03*
X92250000Y-87660000D03*
X94790000Y-87660000D03*
X97330000Y-87660000D03*
X99870000Y-87660000D03*
X102410000Y-87660000D03*
X104950000Y-87660000D03*
X107490000Y-87660000D03*
X110030000Y-87660000D03*
X112570000Y-87660000D03*
X115110000Y-87660000D03*
X117650000Y-87660000D03*
X120190000Y-87660000D03*
X122730000Y-87660000D03*
X125270000Y-87660000D03*
X127810000Y-87660000D03*
X74470000Y-62200000D03*
X77010000Y-62200000D03*
X79550000Y-62200000D03*
X82090000Y-62200000D03*
X84630000Y-62200000D03*
X87170000Y-62200000D03*
X89710000Y-62200000D03*
X92250000Y-62200000D03*
X94790000Y-62200000D03*
X97330000Y-62200000D03*
X99870000Y-62200000D03*
X102410000Y-62200000D03*
X104950000Y-62200000D03*
X107490000Y-62200000D03*
X110030000Y-62200000D03*
X112570000Y-62200000D03*
X115110000Y-62200000D03*
X117650000Y-62200000D03*
X120190000Y-62200000D03*
X122730000Y-62200000D03*
X125270000Y-62200000D03*
X127810000Y-62200000D03*
%TD*%
D10*
%TO.C,J11*%
X63960000Y-94460000D03*
D11*
X66500000Y-94460000D03*
X63960000Y-97000000D03*
X66500000Y-97000000D03*
%TD*%
D14*
%TO.C,J1*%
X56430000Y-86990000D03*
X56430000Y-62000000D03*
D10*
X58970000Y-78825000D03*
D15*
X58970000Y-76535000D03*
X58970000Y-74245000D03*
X58970000Y-71955000D03*
X58970000Y-69665000D03*
X56430000Y-79970000D03*
X56430000Y-77680000D03*
X56430000Y-75390000D03*
X56430000Y-73100000D03*
X56430000Y-70810000D03*
X53890000Y-78825000D03*
X53890000Y-76535000D03*
X53890000Y-74245000D03*
X53890000Y-71955000D03*
X53890000Y-69665000D03*
%TD*%
D10*
%TO.C,J2*%
X131920000Y-57540000D03*
D11*
X131920000Y-55000000D03*
X134460000Y-57540000D03*
X134460000Y-55000000D03*
X137000000Y-57540000D03*
X137000000Y-55000000D03*
%TD*%
D16*
%TO.C,H3*%
X55000000Y-55000000D03*
%TD*%
%TO.C,H3*%
X55000000Y-95000000D03*
%TD*%
D10*
%TO.C,J9*%
X125500000Y-55500000D03*
D11*
X122960000Y-55500000D03*
%TD*%
D16*
%TO.C,H3*%
X145000000Y-95000000D03*
%TD*%
%TO.C,H3*%
X145000000Y-55000000D03*
%TD*%
D10*
%TO.C,J8*%
X76960000Y-55500000D03*
D11*
X79500000Y-55500000D03*
%TD*%
D10*
%TO.C,J7*%
X94080000Y-55500000D03*
D11*
X91540000Y-55500000D03*
X89000000Y-55500000D03*
X86460000Y-55500000D03*
%TD*%
D10*
%TO.C,J5*%
X105540000Y-55500000D03*
D11*
X103000000Y-55500000D03*
X100460000Y-55500000D03*
X97920000Y-55500000D03*
%TD*%
D10*
%TO.C,J10*%
X83380000Y-96500000D03*
D11*
X85920000Y-96500000D03*
X88460000Y-96500000D03*
X91000000Y-96500000D03*
%TD*%
D10*
%TO.C,J6*%
X110960000Y-55500000D03*
D11*
X113500000Y-55500000D03*
X116040000Y-55500000D03*
X118580000Y-55500000D03*
%TD*%
D17*
%TO.C,TP1*%
X79500000Y-84500000D03*
%TD*%
%TO.C,TP3*%
X105000000Y-84500000D03*
%TD*%
%TO.C,TP2*%
X107510000Y-65010000D03*
%TD*%
M02*
