%TF.GenerationSoftware,KiCad,Pcbnew,8.0.6*%
%TF.CreationDate,2025-01-21T08:23:09-05:00*%
%TF.ProjectId,vga_test,7667615f-7465-4737-942e-6b696361645f,rev?*%
%TF.SameCoordinates,Original*%
%TF.FileFunction,Plated,1,2,PTH,Drill*%
%TF.FilePolarity,Positive*%
%FSLAX46Y46*%
G04 Gerber Fmt 4.6, Leading zero omitted, Abs format (unit mm)*
G04 Created by KiCad (PCBNEW 8.0.6) date 2025-01-21 08:23:09*
%MOMM*%
%LPD*%
G01*
G04 APERTURE LIST*
%TA.AperFunction,ViaDrill*%
%ADD10C,0.300000*%
%TD*%
%TA.AperFunction,ComponentDrill*%
%ADD11C,1.000000*%
%TD*%
%TA.AperFunction,ComponentDrill*%
%ADD12C,1.020000*%
%TD*%
%TA.AperFunction,ComponentDrill*%
%ADD13C,1.100000*%
%TD*%
%TA.AperFunction,ComponentDrill*%
%ADD14C,3.200000*%
%TD*%
G04 APERTURE END LIST*
D10*
X90500000Y-93500000D03*
X104000000Y-93500000D03*
D11*
%TO.C,J11*%
X63960000Y-94460000D03*
X63960000Y-97000000D03*
X66500000Y-94460000D03*
X66500000Y-97000000D03*
%TO.C,J4*%
X73975000Y-96500000D03*
X76515000Y-96500000D03*
%TO.C,J8*%
X76960000Y-55500000D03*
%TO.C,J4*%
X79055000Y-96500000D03*
%TO.C,J8*%
X79500000Y-55500000D03*
%TO.C,J10*%
X83380000Y-96500000D03*
X85920000Y-96500000D03*
%TO.C,J7*%
X86460000Y-55500000D03*
%TO.C,J10*%
X88460000Y-96500000D03*
%TO.C,J7*%
X89000000Y-55500000D03*
%TO.C,J10*%
X91000000Y-96500000D03*
%TO.C,J7*%
X91540000Y-55500000D03*
X94080000Y-55500000D03*
%TO.C,J5*%
X97920000Y-55500000D03*
X100460000Y-55500000D03*
X103000000Y-55500000D03*
X105540000Y-55500000D03*
%TO.C,J12*%
X107220000Y-96500000D03*
X109760000Y-96500000D03*
%TO.C,J6*%
X110960000Y-55500000D03*
%TO.C,J12*%
X112300000Y-96500000D03*
%TO.C,J6*%
X113500000Y-55500000D03*
%TO.C,J12*%
X114840000Y-96500000D03*
%TO.C,J6*%
X116040000Y-55500000D03*
%TO.C,J12*%
X117380000Y-96500000D03*
%TO.C,J6*%
X118580000Y-55500000D03*
%TO.C,J12*%
X119920000Y-96500000D03*
X122460000Y-96500000D03*
%TO.C,J9*%
X122960000Y-55500000D03*
%TO.C,J12*%
X125000000Y-96500000D03*
%TO.C,J9*%
X125500000Y-55500000D03*
%TO.C,J3*%
X131460000Y-94500000D03*
X131460000Y-97040000D03*
%TO.C,J2*%
X131920000Y-55000000D03*
X131920000Y-57540000D03*
%TO.C,J3*%
X134000000Y-94500000D03*
X134000000Y-97040000D03*
%TO.C,J2*%
X134460000Y-55000000D03*
X134460000Y-57540000D03*
X137000000Y-55000000D03*
X137000000Y-57540000D03*
D12*
%TO.C,U1*%
X74470000Y-62200000D03*
X74470000Y-87660000D03*
X77010000Y-62200000D03*
X77010000Y-87660000D03*
X79550000Y-62200000D03*
X79550000Y-87660000D03*
X82090000Y-62200000D03*
X82090000Y-87660000D03*
X84630000Y-62200000D03*
X84630000Y-87660000D03*
X87170000Y-62200000D03*
X87170000Y-87660000D03*
X89710000Y-62200000D03*
X89710000Y-87660000D03*
X92250000Y-62200000D03*
X92250000Y-87660000D03*
X94790000Y-62200000D03*
X94790000Y-87660000D03*
X97330000Y-62200000D03*
X97330000Y-87660000D03*
X99870000Y-62200000D03*
X99870000Y-87660000D03*
X102410000Y-62200000D03*
X102410000Y-87660000D03*
X104950000Y-62200000D03*
X104950000Y-87660000D03*
X107490000Y-62200000D03*
X107490000Y-87660000D03*
X110030000Y-62200000D03*
X110030000Y-87660000D03*
X112570000Y-62200000D03*
X112570000Y-87660000D03*
X115110000Y-62200000D03*
X115110000Y-87660000D03*
X117650000Y-62200000D03*
X117650000Y-87660000D03*
X120190000Y-62200000D03*
X120190000Y-87660000D03*
X122730000Y-62200000D03*
X122730000Y-87660000D03*
X125270000Y-62200000D03*
X125270000Y-87660000D03*
X127810000Y-62200000D03*
X127810000Y-87660000D03*
D13*
%TO.C,J1*%
X53890000Y-69665000D03*
X53890000Y-71955000D03*
X53890000Y-74245000D03*
X53890000Y-76535000D03*
X53890000Y-78825000D03*
X56430000Y-70810000D03*
X56430000Y-73100000D03*
X56430000Y-75390000D03*
X56430000Y-77680000D03*
X56430000Y-79970000D03*
X58970000Y-69665000D03*
X58970000Y-71955000D03*
X58970000Y-74245000D03*
X58970000Y-76535000D03*
X58970000Y-78825000D03*
D14*
X56430000Y-62000000D03*
X56430000Y-86990000D03*
M02*
